<?xml version="1.0" encoding="UTF-8" standalone="no"?>
<svg
   xmlns:dc="http://purl.org/dc/elements/1.1/"
   xmlns:cc="http://web.resource.org/cc/"
   xmlns:rdf="http://www.w3.org/1999/02/22-rdf-syntax-ns#"
   xmlns:svg="http://www.w3.org/2000/svg"
   xmlns="http://www.w3.org/2000/svg"
   xmlns:xlink="http://www.w3.org/1999/xlink"
   xmlns:sodipodi="http://sodipodi.sourceforge.net/DTD/sodipodi-0.dtd"
   xmlns:inkscape="http://www.inkscape.org/namespaces/inkscape"
   version="1.1"
   width="4500"
   height="3000"
   id="Flag_of_Niederösterreich"
   sodipodi:version="0.32"
   inkscape:version="0.44"
   sodipodi:docname="niederoesterreich_dienstflagge.svg"
   sodipodi:docbase="/home/michael/grafik/wappen/flaggen">
  <metadata
     id="metadata10">
    <rdf:RDF>
      <cc:Work
         rdf:about="">
        <dc:format>image/svg+xml</dc:format>
        <dc:type
           rdf:resource="http://purl.org/dc/dcmitype/StillImage" />
      </cc:Work>
    </rdf:RDF>
  </metadata>
  <defs
     id="defs8" />
  <sodipodi:namedview
     inkscape:window-height="949"
     inkscape:window-width="1280"
     inkscape:pageshadow="2"
     inkscape:pageopacity="0.0"
     guidetolerance="10.0"
     gridtolerance="10.0"
     objecttolerance="10.0"
     borderopacity="1.0"
     bordercolor="#666666"
     pagecolor="#ffffff"
     id="base"
     inkscape:zoom="0.04"
     inkscape:cx="3473.5459"
     inkscape:cy="1791.1548"
     inkscape:window-x="0"
     inkscape:window-y="25"
     inkscape:current-layer="Flag_of_Niederösterreich" />
  <rect
     width="4500"
     height="1500"
     fill="rgb(0,102,255)"
     id="rect3" />
  <rect
     width="4500"
     height="1500"
     y="1500"
     fill="rgb(255,204,0)"
     id="rect5" />
  <g
     id="g1943"
     transform="matrix(3.517589,0,0,3.517589,1719.851,600.3184)">
    <g
       transform="translate(-29.80965,-24.73295)"
       style="display:inline"
       inkscape:label="Krone"
       id="layer4">
      <path
         sodipodi:nodetypes="ccccc"
         id="path2899"
         d="M 67.015087,150.32959 L 291.22342,151.2003 C 287.05131,143.06683 259.56177,139.44074 242.0282,134.65678 C 183.46459,130.47979 126.99612,136.77843 70.715614,144.01693 L 67.015087,150.32959 z "
         style="fill:#f7c500;fill-opacity:1;fill-rule:evenodd;stroke:none;stroke-width:1px;stroke-linecap:butt;stroke-linejoin:miter;stroke-opacity:1" />
      <path
         sodipodi:nodetypes="ccccc"
         id="path3786"
         d="M 67.015087,150.32959 L 181.32779,151.2003 C 195.6583,145.46129 198.68959,142.48823 215.33146,137.26891 C 156.76785,133.09193 126.99612,136.77843 70.715614,144.01693 L 67.015087,150.32959 z "
         style="fill:black;fill-opacity:1;fill-rule:evenodd;stroke:none;stroke-width:1px;stroke-linecap:butt;stroke-linejoin:miter;stroke-opacity:1;display:inline" />
      <path
         sodipodi:nodetypes="cczzccscczcczcczzczzcccczzzzcccczzzzzc"
         id="path2814"
         d="M 50.965497,59.15727 C 50.965497,60.388643 64.154468,107.91947 64.154468,107.91947 C 64.154468,107.91947 61.13054,108.37165 60.61427,109.92046 C 60.075545,111.53663 61.433819,116.08719 62.769172,117.00085 C 64.231427,118.00134 66.771134,117.30869 66.771134,117.30869 L 72.466234,139.93516 C 72.466234,139.93516 67.156221,140.55743 65.847605,142.85967 C 64.648092,144.96997 67.078977,149.63222 67.078977,149.63222 C 143.34348,135.08032 226.46199,131.1997 292.05953,149.31344 C 292.05953,149.31344 294.57509,143.7832 293.80548,141.78222 C 293.01437,139.72529 289.34175,139.16556 289.34175,139.16556 L 296.11431,117.46261 C 300.82588,118.74741 301.81877,113.55984 301.62133,111.39138 C 301.42502,109.23544 298.23506,108.29428 298.23506,108.29428 L 311.50647,61.896919 C 313.94011,62.11748 316.34612,63.609353 318.27901,62.279456 C 320.1046,61.023387 323.01711,46.231137 321.61248,44.673172 C 320.30095,43.218497 282.04844,32.824964 260.71234,31.112601 C 256.67357,30.687648 250.72009,31.647526 248.96148,33.058887 C 247.2981,34.393821 244.91951,49.661103 245.35754,50.458433 C 245.72915,51.134875 249.32216,50.966335 250.39801,51.10053 L 243.78096,86.986137 C 233.69241,85.889709 223.17459,85.222564 212.6888,84.523391 L 212.99665,46.812604 C 216.34092,46.018224 217.74653,46.459708 218.89847,44.206873 C 219.91798,42.213049 221.5694,29.424892 218.6344,27.530525 C 215.54417,25.535949 146.29804,24.709383 143.4769,26.877491 C 140.61383,29.077819 140.8576,36.952936 142.50056,41.887113 C 144.14352,46.821289 145.61858,46.224901 148.74758,46.535699 L 148.81134,84.985157 C 138.22,85.668944 127.78405,86.508135 117.60261,87.601822 C 117.60261,87.601822 109.4788,53.133611 109.12598,51.231248 C 108.25527,50.251697 116.1305,51.824511 117.53885,50.761748 C 118.84718,49.774462 116.06187,36.078036 114.74959,34.710145 C 113.35846,33.260061 103.66588,30.520098 98.440095,29.886355 C 92.910805,29.215805 41.11242,38.236153 39.245579,40.187567 C 37.230773,42.293651 40.754151,57.798483 42.902349,59.374949 C 44.876923,60.823999 50.965497,59.15727 50.965497,59.15727 z "
         style="fill:#f7c500;fill-opacity:1;fill-rule:evenodd;stroke:black;stroke-width:1.72392178px;stroke-linecap:butt;stroke-linejoin:miter;stroke-opacity:1" />
      <path
         sodipodi:nodetypes="cc"
         id="path1887"
         d="M 63.384861,108.00314 C 143.60188,92.434516 223.22036,90.131581 297.69861,108.17574"
         style="fill:none;fill-opacity:0.75;fill-rule:evenodd;stroke:black;stroke-width:1.72392178px;stroke-linecap:butt;stroke-linejoin:miter;stroke-opacity:1" />
      <path
         sodipodi:nodetypes="cc"
         id="path1889"
         d="M 67.284391,117.14944 C 147.50141,101.58082 221.72624,99.559316 296.20449,117.60347"
         style="fill:none;fill-opacity:0.75;fill-rule:evenodd;stroke:black;stroke-width:1.72392178px;stroke-linecap:butt;stroke-linejoin:miter;stroke-opacity:1;display:inline" />
      <path
         sodipodi:nodetypes="cc"
         id="path1893"
         d="M 69.678849,128.25485 C 150.33122,113.55693 217.155,111.97079 292.50397,128.70888"
         style="fill:none;fill-opacity:0.75;fill-rule:evenodd;stroke:black;stroke-width:1.72392178px;stroke-linecap:butt;stroke-linejoin:miter;stroke-opacity:1;display:inline" />
      <path
         sodipodi:nodetypes="cc"
         id="path1901"
         d="M 245.32018,120.31687 L 243.47312,131.13326"
         style="fill:none;fill-opacity:0.75;fill-rule:evenodd;stroke:black;stroke-width:1.72392178px;stroke-linecap:butt;stroke-linejoin:miter;stroke-opacity:1" />
      <path
         sodipodi:nodetypes="cc"
         id="path1903"
         d="M 201.60644,116.93059 L 200.81043,127.99107"
         style="fill:none;fill-opacity:0.75;fill-rule:evenodd;stroke:black;stroke-width:1.72392178px;stroke-linecap:butt;stroke-linejoin:miter;stroke-opacity:1" />
      <path
         sodipodi:nodetypes="cc"
         id="path1907"
         d="M 158.50841,117.39236 L 159.52209,128.6177"
         style="fill:none;fill-opacity:0.75;fill-rule:evenodd;stroke:black;stroke-width:1.72392178px;stroke-linecap:butt;stroke-linejoin:miter;stroke-opacity:1" />
      <path
         id="path1909"
         d="M 115.7182,121.2404 L 117.41134,133.24628"
         style="fill:none;fill-opacity:0.75;fill-rule:evenodd;stroke:black;stroke-width:1.72392178px;stroke-linecap:butt;stroke-linejoin:miter;stroke-opacity:1" />
      <path
         id="path1911"
         d="M 83.394666,126.01197 L 85.70349,137.55609"
         style="fill:none;fill-opacity:0.75;fill-rule:evenodd;stroke:black;stroke-width:1.72392178px;stroke-linecap:butt;stroke-linejoin:miter;stroke-opacity:1" />
      <path
         id="path1915"
         d="M 95.246628,112.62079 L 97.40153,123.54922"
         style="fill:none;fill-opacity:0.75;fill-rule:evenodd;stroke:black;stroke-width:1.72392178px;stroke-linecap:butt;stroke-linejoin:miter;stroke-opacity:1" />
      <path
         id="path1917"
         d="M 132.95742,107.38746 L 134.65055,118.77765"
         style="fill:none;fill-opacity:0.75;fill-rule:evenodd;stroke:black;stroke-width:1.72392178px;stroke-linecap:butt;stroke-linejoin:miter;stroke-opacity:1" />
      <path
         sodipodi:nodetypes="cc"
         id="path1919"
         d="M 181.57024,116.86684 L 181.44272,104.77079"
         style="fill:none;fill-opacity:0.75;fill-rule:evenodd;stroke:black;stroke-width:1.72392178px;stroke-linecap:butt;stroke-linejoin:miter;stroke-opacity:1" />
      <path
         id="path1921"
         d="M 228.08096,106.61785 L 226.69567,118.31589"
         style="fill:none;fill-opacity:0.75;fill-rule:evenodd;stroke:black;stroke-width:1.72392178px;stroke-linecap:butt;stroke-linejoin:miter;stroke-opacity:1" />
      <path
         sodipodi:nodetypes="cc"
         id="path1923"
         d="M 265.44655,111.38942 L 262.99476,122.62569"
         style="fill:none;fill-opacity:0.75;fill-rule:evenodd;stroke:black;stroke-width:1.72392178px;stroke-linecap:butt;stroke-linejoin:miter;stroke-opacity:1" />
      <path
         id="path1925"
         d="M 278.10547,125.85805 L 275.33488,136.9404"
         style="fill:none;fill-opacity:0.75;fill-rule:evenodd;stroke:black;stroke-width:1.72392178px;stroke-linecap:butt;stroke-linejoin:miter;stroke-opacity:1" />
      <path
         sodipodi:nodetypes="cc"
         id="path1927"
         d="M 108.80926,88.50904 L 99.23143,50.967321"
         style="fill:none;fill-opacity:0.75;fill-rule:evenodd;stroke:black;stroke-width:1.72392178px;stroke-linecap:butt;stroke-linejoin:miter;stroke-opacity:1" />
      <path
         sodipodi:nodetypes="cc"
         id="path1935"
         d="M 81.059433,78.42379 L 84.498526,91.225689"
         style="fill:none;fill-opacity:0.75;fill-rule:evenodd;stroke:black;stroke-width:1.72392178px;stroke-linecap:butt;stroke-linejoin:miter;stroke-opacity:1" />
      <path
         sodipodi:nodetypes="cc"
         id="path1937"
         d="M 65.35943,69.90747 L 67.874994,80.231155"
         style="fill:none;fill-opacity:0.75;fill-rule:evenodd;stroke:black;stroke-width:1.72392178px;stroke-linecap:butt;stroke-linejoin:miter;stroke-opacity:1" />
      <path
         sodipodi:nodetypes="cc"
         id="path1939"
         d="M 90.321137,65.837222 L 92.693717,76.49516"
         style="fill:none;fill-opacity:0.75;fill-rule:evenodd;stroke:black;stroke-width:1.72392178px;stroke-linecap:butt;stroke-linejoin:miter;stroke-opacity:1" />
      <path
         sodipodi:nodetypes="cc"
         id="path1941"
         d="M 74.73771,54.023075 L 77.853488,67.675686"
         style="fill:none;fill-opacity:0.75;fill-rule:evenodd;stroke:black;stroke-width:1.72392178px;stroke-linecap:butt;stroke-linejoin:miter;stroke-opacity:1" />
      <path
         sodipodi:nodetypes="cc"
         id="path1943"
         d="M 51.292015,59.068343 C 71.780672,54.893534 98.000779,49.796617 109.34366,50.911438"
         style="fill:none;fill-opacity:0.75;fill-rule:evenodd;stroke:black;stroke-width:1.72392178px;stroke-linecap:butt;stroke-linejoin:miter;stroke-opacity:1" />
      <path
         sodipodi:nodetypes="cc"
         id="path1945"
         d="M 99.864275,30.272741 L 104.20049,50.359507"
         style="fill:none;fill-opacity:0.75;fill-rule:evenodd;stroke:black;stroke-width:1.72392178px;stroke-linecap:butt;stroke-linejoin:miter;stroke-opacity:1" />
      <path
         sodipodi:nodetypes="cc"
         id="path1951"
         d="M 147.1556,46.335615 C 169.70606,45.614933 192.44279,44.998581 212.85935,46.770971"
         style="fill:none;fill-opacity:0.75;fill-rule:evenodd;stroke:black;stroke-width:1.72392178px;stroke-linecap:butt;stroke-linejoin:miter;stroke-opacity:1;display:inline" />
      <path
         sodipodi:nodetypes="cc"
         id="path2840"
         d="M 180.42532,45.408797 L 180.48907,57.561418"
         style="fill:none;fill-opacity:0.75;fill-rule:evenodd;stroke:black;stroke-width:1.72392178px;stroke-linecap:butt;stroke-linejoin:miter;stroke-opacity:1" />
      <path
         id="path2842"
         d="M 165.8409,58.251799 L 165.8409,69.571054"
         style="fill:none;fill-opacity:0.75;fill-rule:evenodd;stroke:black;stroke-width:1.72392178px;stroke-linecap:butt;stroke-linejoin:miter;stroke-opacity:1" />
      <path
         id="path2844"
         d="M 195.22743,57.598765 L 195.22743,69.571054"
         style="fill:none;fill-opacity:0.75;fill-rule:evenodd;stroke:black;stroke-width:1.72392178px;stroke-linecap:butt;stroke-linejoin:miter;stroke-opacity:1" />
      <path
         sodipodi:nodetypes="cc"
         id="path2846"
         d="M 180.92443,70.213149 L 180.83426,83.685118"
         style="fill:none;fill-opacity:0.75;fill-rule:evenodd;stroke:black;stroke-width:1.72392178px;stroke-linecap:butt;stroke-linejoin:miter;stroke-opacity:1" />
      <path
         sodipodi:nodetypes="cc"
         id="path2848"
         d="M 249.62357,51.101768 C 265.55106,50.55475 292.51659,55.488481 311.70548,61.826666"
         style="fill:none;fill-opacity:0.75;fill-rule:evenodd;stroke:black;stroke-width:1.72392178px;stroke-linecap:butt;stroke-linejoin:miter;stroke-opacity:1" />
      <path
         sodipodi:nodetypes="cc"
         id="path2850"
         d="M 259.98663,31.586244 L 256.2861,50.41539"
         style="fill:none;fill-opacity:0.75;fill-rule:evenodd;stroke:black;stroke-width:1.72392178px;stroke-linecap:butt;stroke-linejoin:miter;stroke-opacity:1" />
      <path
         sodipodi:nodetypes="cc"
         id="path2852"
         d="M 252.5856,87.747166 L 261.07501,51.177263"
         style="fill:none;fill-opacity:0.75;fill-rule:evenodd;stroke:black;stroke-width:1.72392178px;stroke-linecap:butt;stroke-linejoin:miter;stroke-opacity:1" />
      <path
         sodipodi:nodetypes="cc"
         id="path2860"
         d="M 285.99917,54.877789 L 282.80546,67.810955"
         style="fill:none;fill-opacity:0.75;fill-rule:evenodd;stroke:black;stroke-width:1.72392178px;stroke-linecap:butt;stroke-linejoin:miter;stroke-opacity:1" />
      <path
         sodipodi:nodetypes="cc"
         id="path2862"
         d="M 295.59567,70.025085 L 292.63833,81.813839"
         style="fill:none;fill-opacity:0.75;fill-rule:evenodd;stroke:black;stroke-width:1.72392178px;stroke-linecap:butt;stroke-linejoin:miter;stroke-opacity:1" />
      <path
         sodipodi:nodetypes="cc"
         id="path2864"
         d="M 270.10866,65.65285 L 267.2711,76.905144"
         style="fill:none;fill-opacity:0.75;fill-rule:evenodd;stroke:black;stroke-width:1.72392178px;stroke-linecap:butt;stroke-linejoin:miter;stroke-opacity:1" />
      <path
         sodipodi:nodetypes="cc"
         id="path2866"
         d="M 279.37865,79.382034 L 276.18496,91.917193"
         style="fill:none;fill-opacity:0.75;fill-rule:evenodd;stroke:black;stroke-width:1.72392178px;stroke-linecap:butt;stroke-linejoin:miter;stroke-opacity:1" />
      <path
         sodipodi:nodetypes="cc"
         id="path2868"
         d="M 72.073307,140.01328 C 152.72569,125.31537 214.43403,122.532 289.783,139.27009"
         style="fill:none;fill-opacity:0.75;fill-rule:evenodd;stroke:black;stroke-width:1.72392178px;stroke-linecap:butt;stroke-linejoin:miter;stroke-opacity:1;display:inline" />
      <path
         sodipodi:nodetypes="cc"
         id="path2870"
         d="M 60.625284,96.109688 C 143.04795,80.568052 233.937,79.03872 300.76604,97.513359"
         style="fill:none;fill-opacity:0.75;fill-rule:evenodd;stroke:black;stroke-width:1.74594605px;stroke-linecap:butt;stroke-linejoin:miter;stroke-opacity:1;display:inline" />
      <path
         sodipodi:nodetypes="cc"
         id="path1947"
         d="M 148.95218,71.119022 C 171.21733,70.02674 192.33556,70.122676 212.55151,70.938691"
         style="fill:none;fill-opacity:0.75;fill-rule:evenodd;stroke:black;stroke-width:1.72392178px;stroke-linecap:butt;stroke-linejoin:miter;stroke-opacity:1" />
      <path
         sodipodi:nodetypes="cc"
         id="path2872"
         d="M 57.837608,82.44906 C 76.431537,79.525554 90.687994,76.95695 105.94445,74.83033"
         style="fill:none;fill-opacity:0.75;fill-rule:evenodd;stroke:black;stroke-width:1.72392178px;stroke-linecap:butt;stroke-linejoin:miter;stroke-opacity:1;display:inline" />
      <path
         sodipodi:nodetypes="cc"
         id="path2874"
         d="M 55.007795,71.234817 C 73.601724,68.311312 87.858182,65.742708 103.11463,63.616088"
         style="fill:none;fill-opacity:0.75;fill-rule:evenodd;stroke:black;stroke-width:1.72392178px;stroke-linecap:butt;stroke-linejoin:miter;stroke-opacity:1;display:inline" />
      <path
         sodipodi:nodetypes="cc"
         id="path2877"
         d="M 255.50557,75.572668 C 271.97642,77.743846 290.71449,80.948524 304.58649,85.172379"
         style="fill:none;fill-opacity:0.75;fill-rule:evenodd;stroke:black;stroke-width:1.72392178px;stroke-linecap:butt;stroke-linejoin:miter;stroke-opacity:1;display:inline" />
      <path
         sodipodi:nodetypes="cc"
         id="path2879"
         d="M 148.95218,71.119022 C 171.21733,70.02674 192.33556,70.122676 212.55151,70.938691"
         style="fill:none;fill-opacity:0.75;fill-rule:evenodd;stroke:black;stroke-width:1.72392178px;stroke-linecap:butt;stroke-linejoin:miter;stroke-opacity:1;display:inline" />
      <path
         sodipodi:nodetypes="cc"
         id="path2883"
         d="M 148.95218,58.712946 C 171.21733,57.620664 192.33556,57.7166 212.55151,58.532615"
         style="fill:none;fill-opacity:0.75;fill-rule:evenodd;stroke:black;stroke-width:1.72392178px;stroke-linecap:butt;stroke-linejoin:miter;stroke-opacity:1;display:inline" />
      <path
         sodipodi:nodetypes="cc"
         id="path2885"
         d="M 258.55773,63.52506 C 275.02858,65.696238 293.76664,68.900915 307.63864,73.12477"
         style="fill:none;fill-opacity:0.75;fill-rule:evenodd;stroke:black;stroke-width:1.72392178px;stroke-linecap:butt;stroke-linejoin:miter;stroke-opacity:1;display:inline" />
      <path
         sodipodi:nodetypes="cc"
         id="path2887"
         d="M 51.55995,60.678134 C 71.454895,56.433189 98.691984,51.406466 109.35346,52.483332"
         style="fill:none;fill-opacity:0.75;fill-rule:evenodd;stroke:black;stroke-width:3.44784355;stroke-linecap:butt;stroke-linejoin:miter;stroke-miterlimit:4;stroke-dasharray:none;stroke-opacity:1" />
      <path
         sodipodi:nodetypes="cc"
         id="path2891"
         d="M 148.86201,47.803255 C 170.285,46.952467 191.64103,46.8382 212.85935,48.238611"
         style="fill:none;fill-opacity:0.75;fill-rule:evenodd;stroke:black;stroke-width:3.44784355;stroke-linecap:butt;stroke-linejoin:miter;stroke-miterlimit:4;stroke-dasharray:none;stroke-opacity:1" />
      <path
         sodipodi:nodetypes="cc"
         id="path2893"
         d="M 250.09174,52.437448 C 268.7032,52.753131 291.09518,56.663194 310.89077,63.365882"
         style="fill:none;fill-opacity:0.75;fill-rule:evenodd;stroke:black;stroke-width:3.44784355;stroke-linecap:butt;stroke-linejoin:miter;stroke-miterlimit:4;stroke-dasharray:none;stroke-opacity:1" />
      <path
         sodipodi:nodetypes="cccc"
         id="path3788"
         d="M 206.98204,139.01034 L 180.643,147.93513 L 167.8,147.93513 L 206.98204,139.01034 z "
         style="fill:#f7c500;fill-opacity:1;fill-rule:evenodd;stroke:none;stroke-width:1px;stroke-linecap:butt;stroke-linejoin:miter;stroke-opacity:1" />
    </g>
    <g
       transform="translate(-29.80965,-24.73295)"
       style="opacity:1;display:inline"
       id="layer1"
       inkscape:label="Schild">
      <path
         sodipodi:nodetypes="cczccc"
         id="path1882"
         d="M 31.533575,150.63971 L 31.533575,403.9819 C 31.533575,472.31516 140.34705,532.44692 180.42533,532.44692 C 220.93887,532.44692 327.57566,472.25417 327.57566,404.01691 L 327.57566,151.07507 L 31.533575,150.63971 z "
         style="fill:#0094de;fill-opacity:1;fill-rule:evenodd;stroke:black;stroke-width:3.44784355;stroke-linecap:butt;stroke-linejoin:miter;stroke-miterlimit:4;stroke-dasharray:none;stroke-opacity:1" />
    </g>
    <g
       transform="translate(-29.80965,-24.73295)"
       inkscape:label="Adler"
       id="layer3">
      <g
         transform="matrix(1.723922,0,0,1.723922,-21.57986,-17.90472)"
         id="g2796">
        <g
           id="g2780">
          <path
             sodipodi:nodetypes="ccccccccccccccccccccccccc"
             id="path2797"
             d="M 164.28571,143.25504 L 164.10714,143.07647 C 166.22631,148.83109 167.53384,156.32753 173.39286,156.82647 C 168.23846,152.24314 168.6856,147.6598 167.5,143.07647 C 172.66246,152.81373 177.27428,156.53819 182.14286,155.3979 C 174.87463,149.54261 173.51492,145.65683 171.78571,141.64789 C 178.67435,147.57892 184.11413,157.53455 195,152.36218 C 184.97929,151.37098 180.49087,144.8475 175,139.32647 C 181.74659,142.01675 190.29885,149.05482 195.71429,142.18361 C 187.76012,141.35028 181.60027,139.26694 177.67857,136.11218 C 196.52552,139.71105 198.76824,134.72045 198.92857,131.64789 C 192.20238,134.58694 185.47619,133.03684 178.75,132.36218 C 191.62217,132.74483 196.83885,127.5745 196.78571,122.36218 C 190.6634,125.83544 180.12515,129.4436 179.64286,127.18361 C 182.64766,125.5019 193.46878,119.74807 188.75,113.25504 C 186.06431,117.63246 182.9688,121.2927 178.39286,122.36218 C 181.77199,119.49922 183.27477,112.47602 182.85714,111.29075 C 180.65476,112.29514 178.45238,114.07734 176.25,119.32647 C 176.41069,116.80066 177.06322,114.43881 175.89286,111.46932 C 174.08615,113.3204 172.705,115.45519 172.32143,118.25504 L 172.54668,127.36218 L 172,136.36218 L 167,138.36218 L 165,141.83593 L 164.28571,143.25504 z "
             style="fill:#f7c500;fill-opacity:1;fill-rule:evenodd;stroke:black;stroke-width:1px;stroke-linecap:butt;stroke-linejoin:miter;stroke-opacity:1" />
          <path
             sodipodi:nodetypes="ccccccccccccccccccccccccc"
             id="path1884"
             d="M 152.69634,142.71933 L 153.14277,142.63004 C 151.0236,148.38466 150.43036,156.41682 143.85705,156.82647 C 149.01145,152.24314 148.56431,147.6598 149.74991,143.07647 C 144.58745,152.81373 139.97563,156.53819 135.10705,155.3979 C 142.37528,149.54261 143.73499,145.65683 145.4642,141.64789 C 138.57556,147.57892 133.13578,157.53455 122.24991,152.36218 C 132.27062,151.37098 136.75904,144.8475 142.24991,139.32647 C 135.50332,142.01675 126.95106,149.05482 121.53562,142.18361 C 129.48979,141.35028 135.64964,139.26694 139.57134,136.11218 C 120.72439,139.71105 118.48167,134.72045 118.32134,131.64789 C 125.04753,134.58694 131.77372,133.03684 138.49991,132.36218 C 125.62774,132.74483 120.41106,127.5745 120.4642,122.36218 C 126.58651,125.83544 137.12476,129.4436 137.60705,127.18361 C 134.60225,125.5019 123.78113,119.74807 128.49991,113.25504 C 131.1856,117.63246 134.28111,121.2927 138.85705,122.36218 C 135.47792,119.49922 133.97514,112.47602 134.39277,111.29075 C 136.59515,112.29514 138.79753,114.07734 140.99991,119.32647 C 140.83922,116.80066 140.18669,114.43881 141.35705,111.46932 C 143.16376,113.3204 144.54491,115.45519 144.92848,118.25504 L 144.70323,127.36218 L 145.24991,136.36218 L 150.24991,138.36218 L 152.24991,141.83593 L 152.69634,142.71933 z "
             style="fill:#f7c500;fill-opacity:1;fill-rule:evenodd;stroke:black;stroke-width:1px;stroke-linecap:butt;stroke-linejoin:miter;stroke-opacity:1" />
          <path
             sodipodi:nodetypes="czzzzczzczzzzzzzzzzzzcc"
             id="path1886"
             d="M 152.78562,131.46932 C 152.3907,130.54468 149.59608,130.24199 149.74991,131.82647 C 149.90303,133.40364 149.60311,135.42269 148.1536,135.39789 C 146.70409,135.37309 146.56526,134.94884 146.50498,133.61218 C 146.4449,132.27985 146.28933,128.73618 146.59875,127.61472 C 146.91306,126.47556 147.85897,126.72815 148.32134,126.11218 C 148.33906,125.02303 148.62101,122.70078 147.81626,121.8246 C 147.01151,120.94843 148.14519,120.42973 147.09301,119.40043 C 146.04083,118.37113 145.59408,118.42388 144.74991,118.43361 C 144.74991,118.43361 144.74991,120.17468 143.94634,120.48718 C 143.14277,120.79968 141.75883,118.92468 141.08919,119.28182 C 140.41955,119.63896 142.16063,121.69254 141.49099,122.36218 C 140.82135,123.03182 139.48205,121.73718 138.72312,122.45147 C 137.96419,123.16575 139.66062,123.88003 139.25884,124.95146 C 138.85706,126.02289 137.6517,126.33539 137.69634,127.27289 C 137.74098,128.21039 138.67848,128.16575 138.99098,129.59432 C 139.30348,131.02289 138.63384,130.57647 138.81241,132.31754 C 138.99098,134.05861 139.16955,134.19254 139.92848,135.88897 C 140.68741,137.5854 141.13383,137.71932 142.51776,139.10325 C 143.90169,140.48718 143.67847,140.39789 145.59812,141.33539 C 147.51776,142.27289 148.05348,142.27289 149.8392,142.63003 C 151.62492,142.98717 153.39082,142.49927 153.39082,142.49927 C 152.91204,138.7738 151.8053,135.84329 152.78562,131.46932 z "
             style="opacity:1;fill:#f7c500;fill-opacity:1;fill-rule:evenodd;stroke:black;stroke-width:1px;stroke-linecap:butt;stroke-linejoin:miter;stroke-opacity:1;display:inline" />
          <path
             sodipodi:nodetypes="cssccsssssssssssssssssssssssssssssssssssssssssssscssssssssssssssssssssssssssssssssssssssssssssccssscssccccccccczccscccsccccccccccsc"
             d="M 164.25029,143.31935 C 163.81596,143.23845 162.82921,142.85401 162.75537,143.74099 C 162.63674,145.16586 162.55526,145.13131 162.94477,146.36218 C 163.34338,147.62178 164.25029,149.16956 164.25029,149.16956 L 165.56596,151.55158 C 165.56596,151.55158 166.35075,152.28072 166.46204,152.98337 C 166.57333,153.68602 166.36395,153.54346 166.45306,154.48845 C 166.54218,155.43344 166.32184,155.51334 166.8185,156.76334 C 167.31516,158.01334 167.78439,158.46821 168.43969,159.48845 C 169.09499,160.5087 168.93969,160.50535 169.43969,160.84432 C 169.93969,161.18329 169.68969,161.46486 170.43969,160.84432 C 171.18969,160.22379 171.31342,159.04838 172.31342,158.67785 C 173.31342,158.30731 173.51527,158.4411 174.43969,159.36218 C 175.36411,160.28326 175.83496,161.64375 175.56918,162.29905 C 175.3034,162.95435 173.86684,161.77022 173.37656,161.98338 C 172.91281,162.18501 174.08111,165.41191 173.42949,166.00885 C 172.77786,166.60578 171.70999,164.61219 170.77005,164.23718 C 169.83011,163.86217 170.82132,167.1512 169.24238,167.33155 C 167.63227,167.51547 168.34205,163.93527 167.88612,163.36218 C 167.45782,162.82381 163.33794,163.57554 162.97633,162.82554 C 162.61473,162.07554 166.10542,161.0916 166.43969,160.36218 C 166.77965,159.62035 164.64792,156.02663 164.28185,155.45688 C 163.90684,154.8732 163.20261,154.73486 162.6668,153.35553 C 162.13098,151.9762 162.74942,149.46517 161.43969,149.42531 C 160.16153,149.38545 160.8699,154.06989 160.83255,155.22825 C 160.79808,156.29741 160.59739,156.31149 161.41291,157.45147 C 162.24326,158.61218 164.1219,159.25441 163.43969,160.36218 C 162.74549,161.48941 160.67811,158.19113 160.06469,158.47826 C 159.43523,158.7729 159.61379,160.1412 159.8504,161.36218 C 160.08701,162.58316 160.1138,162.11218 161.01112,163.36218 C 161.90844,164.61218 162.61826,165.74611 163.43969,166.09432 C 164.27801,166.4497 165.58255,166.06754 166.08255,166.49611 C 166.58255,166.92468 166.32808,167.55861 165.43969,167.80861 C 164.5513,168.05861 164.01559,167.72379 162.88612,167.36218 C 161.75665,167.00057 161.20874,166.07112 160.92183,166.36218 C 160.61379,166.67468 161.81022,168.04075 163.43969,168.79075 C 165.06916,169.54075 165.43969,169.46932 167.43969,169.36218 C 169.43969,169.25504 169.93969,168.36218 171.43969,168.36218 C 172.93969,168.36218 173.30129,168.68361 173.88612,169.09432 C 174.45074,169.49084 174.89995,169.72821 174.93969,171.54075 C 174.97943,173.35329 174.08254,175.87111 173.70754,175.87111 C 173.33254,175.87111 173.4701,172.60078 172.85933,171.80861 C 172.26558,171.03852 171.36603,171.20593 170.43969,171.22825 C 169.51335,171.25057 169.18969,171.11218 168.43969,171.36218 C 167.68969,171.61218 167.7254,172.24611 167.12719,172.36218 C 166.4859,172.48661 164.91448,172.51209 164.43969,172.31754 C 163.9821,172.13004 163.57362,171.97602 162.57362,170.98718 C 161.57362,169.99834 161.308,168.38674 160.84148,168.80861 C 160.37496,169.23049 160.78344,171.87781 160.61826,172.40682 C 160.44864,172.95007 159.45753,174.46338 158.71985,174.45147 C 157.98216,174.46338 156.99105,172.95007 156.82143,172.40682 C 156.65625,171.87781 157.06473,169.23049 156.59821,168.80861 C 156.13169,168.38674 155.86607,169.99834 154.86607,170.98718 C 153.86607,171.97602 153.45759,172.13004 153,172.31754 C 152.52521,172.51209 150.95379,172.48661 150.3125,172.36218 C 149.71429,172.24611 149.75,171.61218 149,171.36218 C 148.25,171.11218 147.92634,171.25057 147,171.22825 C 146.07366,171.20593 145.17411,171.03852 144.58036,171.80861 C 143.96959,172.60078 144.10715,175.87111 143.73215,175.87111 C 143.35715,175.87111 142.46026,173.35329 142.5,171.54075 C 142.53974,169.72821 142.98895,169.49084 143.55357,169.09432 C 144.1384,168.68361 144.5,168.36218 146,168.36218 C 147.5,168.36218 148,169.25504 150,169.36218 C 152,169.46932 152.37053,169.54075 154,168.79075 C 155.62947,168.04075 156.8259,166.67468 156.51786,166.36218 C 156.23095,166.07112 155.68304,167.00057 154.55357,167.36218 C 153.4241,167.72379 152.88839,168.05861 152,167.80861 C 151.11161,167.55861 150.85714,166.92468 151.35714,166.49611 C 151.85714,166.06754 153.16168,166.4497 154,166.09432 C 154.82143,165.74611 155.53125,164.61218 156.42857,163.36218 C 157.32589,162.11218 157.35268,162.58316 157.58929,161.36218 C 157.8259,160.1412 158.00446,158.7729 157.375,158.47826 C 156.76158,158.19113 154.6942,161.48941 154,160.36218 C 153.31779,159.25441 155.19643,158.61218 156.02678,157.45147 C 156.8423,156.31149 156.64161,156.29741 156.60714,155.22825 C 156.56979,154.06989 157.27816,149.38545 156,149.42531 C 154.69027,149.46517 155.30871,151.9762 154.77289,153.35553 C 154.23708,154.73486 153.53285,154.8732 153.15784,155.45688 C 152.79177,156.02663 150.66004,159.62035 151,160.36218 C 151.33427,161.0916 154.82496,162.07554 154.46336,162.82554 C 154.10175,163.57554 149.98187,162.82381 149.55357,163.36218 C 149.09764,163.93527 149.80742,167.51547 148.19731,167.33155 C 146.61837,167.1512 147.60958,163.86217 146.66964,164.23718 C 145.7297,164.61219 144.66183,166.60578 144.0102,166.00885 C 143.35858,165.41191 144.52688,162.18501 144.06313,161.98338 C 143.57285,161.77022 142.13629,162.95435 141.87051,162.29905 C 141.60473,161.64375 142.07558,160.28326 143,159.36218 C 143.92442,158.4411 144.12627,158.30731 145.12627,158.67785 C 146.12627,159.04838 146.25,160.22379 147,160.84432 C 147.75,161.46486 147.5,161.18329 148,160.84432 C 148.5,160.50535 148.3447,160.5087 149,159.48845 C 149.6553,158.46821 150.12453,158.01334 150.62119,156.76334 C 151.11785,155.51334 150.89751,155.43344 150.98663,154.48845 C 151.07574,153.54346 150.86636,153.68602 150.97765,152.98337 C 151.08894,152.28072 151.87373,151.55158 151.87373,151.55158 L 153.1894,149.16956 C 153.1894,149.16956 154.09631,147.62178 154.49492,146.36218 C 154.88443,145.13131 155.12511,144.64561 154.49492,143.36218 C 153.8114,141.97013 153.40369,143.07968 152.83226,142.22254 C 151.77614,140.63836 152,136.36218 152,136.36218 C 152,136.36218 151.80806,133.43293 152.49492,132.11979 C 153.18179,130.80666 153.93162,131.79905 154.74746,131.10964 C 155.5633,130.42024 155.7583,129.36218 155.7583,129.36218 C 155.86752,128.10252 155.93185,127.37508 156.55357,125.84432 C 156.78458,124.83692 157.09096,123.1569 158.19643,122.18361 L 159.64286,119.95146 L 160.55357,115.75504 L 159,117.36218 L 157,119.36218 C 155.90037,120.38427 154.86281,120.8128 154,121.36218 C 153.31334,121.29706 152.79166,120.63791 152.65817,120.0146 C 153.93997,118.98883 156.50892,117.24905 155.91071,116.45147 C 155.34302,115.69458 153.33226,117.75396 152.08929,118.54075 C 151.4268,117.34124 151.75298,116.53718 152.26786,115.80861 C 153.73176,114.2636 154.90486,111.7539 157,110.63004 C 159.09514,109.50618 160.15253,110.48569 162,110.00504 C 163.23731,109.52039 163.93677,108.67717 164.46429,107.71933 L 164.35714,110.55861 C 164.35714,110.55861 164.6875,112.74271 166,111.36218 C 167.3125,109.98165 168.42857,109.06172 169.64286,108.18361 C 169.08325,109.6995 169.34165,111.07905 167.5,112.80861 C 166.50247,113.67418 164.90729,113.94209 163.46429,114.36218 C 165.42132,115.51966 168.40399,116.29253 168.64286,118.09432 C 167.20441,118.61798 165.93344,118.63923 164.73214,118.45147 C 164.73829,119.67986 164.54471,120.74614 165.26786,121.73718 C 165.88095,123.0486 166.49405,124.19886 167.10714,125.27289 C 165.33985,125.2128 164.45347,124.27181 163.35714,123.54075 C 164.47273,125.14125 165.51717,126.72752 165.46429,128.09432 C 163.98702,127.31212 162.91797,126.32581 161.91071,125.30861 C 161.91071,125.30861 159.57238,130.51647 160.53571,131.36218 C 161.49905,132.20789 162.68364,131.50846 164.46429,131.36218"
             style="fill:#f7c500;fill-opacity:1;fill-rule:evenodd;stroke:black;stroke-width:1px;stroke-linecap:butt;stroke-linejoin:miter;stroke-opacity:1"
             id="path3690" />
          <path
             sodipodi:nodetypes="czzzzczzczzzzzzzzzzzzcc"
             id="path2799"
             d="M 164.46429,131.46932 C 164.85921,130.54468 167.65383,130.24199 167.5,131.82647 C 167.34688,133.40364 167.6468,135.42269 169.09631,135.39789 C 170.54582,135.37309 170.68465,134.94884 170.74493,133.61218 C 170.80501,132.27985 170.96058,128.73618 170.65116,127.61472 C 170.33685,126.47556 169.39094,126.72815 168.92857,126.11218 C 168.91085,125.02303 168.6289,122.70078 169.43365,121.8246 C 170.2384,120.94843 169.10472,120.42973 170.1569,119.40043 C 171.20908,118.37113 171.65583,118.42388 172.5,118.43361 C 172.5,118.43361 172.5,120.17468 173.30357,120.48718 C 174.10714,120.79968 175.49108,118.92468 176.16072,119.28182 C 176.83036,119.63896 175.08928,121.69254 175.75892,122.36218 C 176.42856,123.03182 177.76786,121.73718 178.52679,122.45147 C 179.28572,123.16575 177.58929,123.88003 177.99107,124.95146 C 178.39285,126.02289 179.59821,126.33539 179.55357,127.27289 C 179.50893,128.21039 178.57143,128.16575 178.25893,129.59432 C 177.94643,131.02289 178.61607,130.57647 178.4375,132.31754 C 178.25893,134.05861 178.08036,134.19254 177.32143,135.88897 C 176.5625,137.5854 176.11608,137.71932 174.73215,139.10325 C 173.34822,140.48718 173.57144,140.39789 171.65179,141.33539 C 169.73215,142.27289 169.19643,142.27289 167.41071,142.63003 C 165.62499,142.98717 164.30552,143.21356 164.30552,143.21356 C 164.7843,139.48809 165.44461,135.84329 164.46429,131.46932 z "
             style="opacity:1;fill:#f7c500;fill-opacity:1;fill-rule:evenodd;stroke:black;stroke-width:1px;stroke-linecap:butt;stroke-linejoin:miter;stroke-opacity:1;display:inline" />
          <path
             sodipodi:nodetypes="ccc"
             id="path1892"
             d="M 156.51999,113.68081 C 157.1347,112.18707 158.52852,112.03677 159.87972,112.15329 C 159.28556,113.54686 158.48823,114.46672 156.51999,113.68081 z "
             style="fill:black;fill-opacity:1;fill-rule:evenodd;stroke:none;stroke-width:1px;stroke-linecap:butt;stroke-linejoin:miter;stroke-opacity:1" />
        </g>
        <use
           x="0"
           y="0"
           xlink:href="#g2780"
           id="use2788"
           transform="matrix(-1,0,0,1,234.3569,0)"
           width="744.09448"
           height="1052.3622" />
        <use
           x="0"
           y="0"
           xlink:href="#g2780"
           id="use2790"
           transform="translate(0,69.64286)"
           width="744.09448"
           height="1052.3622" />
        <use
           x="0"
           y="0"
           xlink:href="#use2788"
           id="use2792"
           transform="translate(0,70)"
           width="744.09448"
           height="1052.3622" />
        <use
           x="0"
           y="0"
           xlink:href="#g2780"
           id="use2794"
           transform="translate(-42,135.4288)"
           width="744.09448"
           height="1052.3622" />
      </g>
    </g>
  </g>
</svg>
