<?xml version="1.0" encoding="UTF-8" standalone="no"?>
<svg xmlns="http://www.w3.org/2000/svg" width="500" height="300">
 <rect width="500" height="150" y="-300" transform="scale(1-1)" fill="#da121a"/>
 <g stroke="#000">
  <g fill="#fff">
   <path d="m.2 149.8l.715-149.6 498.89.255-.031 149.18" color="#000" stroke-width=".4"/>
   <path d="m167.21 51.905h165.6v118.8c0 43.2-36 77.4-82.8 77.4-46.8 0-82.8-34.2-82.8-77.4v-118.8" stroke-linejoin="round" stroke-linecap="round" stroke-width="1.44"/>
  </g>
  <g fill-rule="evenodd">
   <g stroke-linejoin="round" stroke-linecap="round">
    <g stroke-width=".54">
     <g fill="#fcdd09">
      <path d="m242.64 90.68c3.563-.764 7.858-.43 12.218 0 .166-3.392 1.554-6.727 3.946-9.713-4.02 1.456-5.127 4.03-6.853 6.248l-3.846-7.918-2.884 7.884c-2.441-1.893-4.635-5.04-7.437-5.304 2.295 2.741 3.978 5.657 4.857 8.803z"/>
      <path d="m241.64 92.49c2.529 2.758 3.729 5.136 5.334 7.629-2.436-.525-5.959-.777-7.368-2.915-.804-1.221-2.437 2-2.893 3.509-.922-1.253-1.35-2.204-1.83-4.794-.176-.948-.768-2.3.911-3.117 1.904-.927 3.932-.094 5.846-.313z"/>
     </g>
     <path d="m247.8 101.6c-3.238-1.213-6.48-.356-9.713.455-2.287.574-5.02 2.074-6.223-2.049-1.618 1.993-.817 5.361 2.277 4.933 5.832-.808 9.159-3.22 13.659-3.339z" fill="#da121a"/>
     <g fill="#fcdd09">
      <path d="m224.85 195.36c-4.247-2.187-7.267-4.273-11.912-6.868-6.239-2.472-7.07 1.353-4.722 3.22.056-2.545.713-3.822 3.327-.966-2.544 2.41-.389 2.813 2.468 2.039l9.551 4.829c-5.184.857-12.31-1.131-14.166 0-4.346-1.253-7.504 5.198-2.468 6.01-1.511-3.442.32-3.8 2.468-3.863.077 3.472 3.501 4.141 4.078.859l10.09-.107c-1.967 5.259-5.364 6.154-5.259 10.625-3.216 4.692 4.215 7.551 5.04 3-1.936 1.358-4.701.841-3.542-2.146 1.249-.082 2.759.747 3.542-.859.659-1.351-1.693-2.398-.429-4.4l3.863-6.117h8.693c2.73 0 1.421 2.338 2.784 2.053.84-.175 2.427-.736 2.367-3.02 2.707-.416 2.824.962 1.824 3.112 3.875-2.082 2.806-5.311-1.932-5.259-1.324-1.474-3.78.189-4.722.429-1.807.462-5.116-.215-8.05-.322l9.551-16.527.644-6.976-4.776 4.615z"/>
      <path d="m276.98 196.88c4.03-2.56 7.233-5.06 11.626-8.06 5.081-3.706 7.545 1.243 5.372 3.313-.284-2.494-1.736-3.831-4.083-1.801 1.612 2.703.109 3.98-2.655 2.708l-6.65 4.454c5.24.387 9.806-1.626 11.756-.666 4.216-1.638 8.624 2.909 2.923 5.232 2.182-3.867-.66-3.756-2.806-3.626.036 2.769-3.321 3.717-3.984 1.222l-10.06.8c2.432 5.061 5.896 5.647 6.192 10.11 3.625 4.384-3.519 7.899-4.753 3.446 2.05 1.178 4.758.415 3.334-2.456-1.251.031-3.136 1.22-4.06-.309-.778-1.287 1.401-1.707.184-3.738l-4.398-7.339-5.926.174c-.98 1.102-3.558 2.456-4.106-.513-3.257-.254-2.918.914-1.434 3.201-4.047-1.726-3.272-5.04 1.451-5.411.587-1.4 4.458.733 8.327-.206l-7.887-15.07-1.041-6.89 5.02 4.546z"/>
     </g>
    </g>
    <g stroke-width=".36">
     <path d="m309.32 173.28c-5.508-5.653-10.658-10.29-15.995-17.889l-1.264.723c5.061 7.146 10.941 12.428 17.259 17.17"/>
     <path d="m323.08 149.54c-7.43-1.189-13.579-4.071-17.604-8.587l1.266-.737c4.892 5.305 9.814 6.392 16.338 9.325"/>
    </g>
    <path d="m251.25 221.12c-2.026 2.629-4.35 3.175-6.654 3.863 2.677-3.879 4.868-7.855 6.117-12.02-2.473 2.924-5.631 5.724-8.585 6.439-4.261 1.031-8.097-.572-10.195-3.863 3.22 1.193 6.254 1 9.659-.751 4.78-2.462 6.616-6.229 8.156-10.195-2.657 3.479-5.535 4.85-8.763 2.898 5.886-3.184 8.705-9.627 8.978-20.498.119-4.737-1.05-11.383-2.879-18.09l-8.648 18.426c-1.203-4.591-1.535-9.04-.314-13.223-3.982 4.818-7.964 6.415-11.946 8.993 5.233-9.412 8.839-15.394 11.794-20.976-4.162 3.917-8.307 2.56-8.815-1.628-3.061 4.177-7.992 3.589-8.989-1.047-8.342 15.06-18.534 25.21-28.14 24.642 6.532-7.315 13.681-16.389 20.617-27.343-3.905 2.774-8.81-.909-6.277-4.696-1.574.904-3.148 1.028-4.722-.089-7.474 6.368-17.647 16.342-27.385 13.09 7.634-4.586 14.947-11.933 22.581-19.273.237-1.235-.061-2.363 1.502-3.863-4.998 1.877-6.726-3.541-3.649-5.795-8.26 1.276-20.864 4.442-23.825-3.434 6.818-.055 14.879-3.068 22.21-4.937-4.119-.262-4.131-7.535.859-8.156-6.678-3.716-15.563-6.29-17.708-14.273 5.974 1.962 11.948 4.752 17.922 5.151-2.058-2.285-.068-7.03 4.293-5.903-5.814-3.237-13.1-4.998-14.917-12.234 8.764 6.477 21.598 7.835 27.581 10.195 4.65 1.834 3.627 6.05 2.146 9.444-2.02 4.628-.35 9.642 2.146 13.737 4.067 6.673 12.887 10.331 19.289 9.201 3.571-.631 6.967-5.884 9.09-10.166-1.472 1.405-2.658 1.953-3.946 2.808 3.05-4.515 5.282-7.939 5.995-14.266-.83 1.245-1.495 1.833-2.125 2.277 1.204-4.123 1.522-8.246 1.518-12.369 1.857-.314 2.959.137 4.25.379 1.355.255 2.303-1.195.683-2.277-1.491-.996-2.775-.104-4.174-2.732-1.207-2.268-2.756-4.225-4.401-6.071 2.482-1.911 5.303-1.125 8.347-.987 3.431.157 7.167.365 10.472-1-1.357 1.287-2.828 2.863-5.691 3.585 2.342 2.514 3.651 5.322 4.477 8.272 1.92 6.853 2.147 12.584 2.428 18.516.207 4.376-.225 9.325-.071 12.53 8.852.645 19.719-1.758 23.862-9.265 2.317-4.199 3.32-6.491 2.146-10.474-1.302-4.417-1.289-9.279 3.361-11.11 5.983-2.36 18.13-3.718 26.21-8.753-1.814 7.239-9.483 9.169-15.297 11.02 4.821-1.095 7.105 4.831 3.079 6.965 5.974-.399 13.314-2.279 19.288-4.241-2.131 8.06-10.483 8.975-17.328 11.693 3.22.401 5.159 6.1.635 8.01 1.416 1.038 2.558 2.137 2.5 3.101 7.336 1.868 13.04 3.895 19.862 3.95-2.961 7.876-13.895 4.862-22.16 3.586.345 1.571-.472 5.092-5.242 2.456 1.564 1.5 1.948 5.284-.774 5.836 6.658 7.34 14.462 15.749 22.2 20.335-10.451 3.963-22.779-8.105-28.978-15.749 1.011 2.73-1.041 7.478-6.586 4 .389 1.667.041 3.093-1.173 3.919 4.116 6.699 9.367 19.03 16.959 26.35-9.607.575-17.276-7.372-25.618-24.05-1.545 1.066-3.811 1.499-6.842-2.065-.509 4.188-4.01 5.867-8.171 1.95 2.955 5.582 6.776 13.174 12.01 22.586-3.982-2.578-7.105-3.317-11.09-8.135 1.221 4.187.996 8.847-.207 13.438-2.611-7.148-5.43-12.842-8.326-17.997-1.829 6.706-.852 10.991-.733 15.728.273 10.871 4.272 17.1 10.158 20.283-3.228 1.952-5.57 1.225-8.227-2.254 1.54 3.967 2.732 7.841 7.512 10.303 3.404 1.753 6.117.228 9.337-.966-2.098 3.292-4.754 5.646-9.01 4.615-2.954-.715-5.898-2.871-8.371-5.795.713 4.594 3.226 7.497 5.903 11.376-2.304-.152-4.627-1.234-6.654-3.863.036 3.463.105 8.06-1.894 9.437-1.999-1.203-2.681-5.05-2.646-8.511z" fill="#da121a" stroke-width=".54"/>
    <g stroke-width=".36">
     <path d="m216.05 178.41c6.161-3.084 10.323-8.792 13.376-16.234-.108-1.443-.104-2.276-1.37-.138-1.94 6.194-6.986 11.298-12.01 16.373"/>
     <path d="m188.04 172.07c6.18-4.909 12.133-9.664 18.314-15.923l.922 1.036c-6.238 6.357-12.39 11.03-19.236 14.887"/>
     <path d="m176.23 146.96c7.03.503 12.629-1.304 18.464-4.805l-1.126-1.093c-5.336 4.217-10.84 4.381-17.339 5.898"/>
     <path d="m176.87 119.6c3.934 3.118 8.396 4.126 12.891 4.998l.309-1.134c-3.216-.331-7.462-1.503-13.09-3.863"/>
     <path d="m185.58 102.97c2.466 2.165 4.995 4.01 7.741 4.775l.377-1.099c-2.484-.518-5.359-2.06-8.117-3.676"/>
    </g>
   </g>
   <g stroke-width=".54">
    <path d="m237.29 148.25c-13.806-2.549-25.307-8.967-30.692-20.498 4.28.714 6.086-2.124 4.937-4.293-1.15-2.169-4.137-3.15-6.332.322-.353-4.603-3.086-6.665-5.473-5.04-2.387 1.621-.942 5.873 2.361 6.868-3.72-.362-5.625 3.21-4.293 5.04 1.333 1.834 4.829 2.161 6.439-1.288 7.792 14.171 18.959 20.475 34.34 22.966-.349-1.359-1.064-2.933-1.289-4.078z" fill="#fcdd09"/>
    <path d="m218.29 211.21c.505.017 1.01.193 1.515.814m20.801-14.381c-.137.496-.107 1.159-.044 1.856m-31.2-1.913c-.011.6-.021 1.381-.031 2.18m2.29-9.05c.51-.411 1.019-.537 1.528-1.9m24.526-13.235l-11.755 21.928" fill="none" stroke-linejoin="round" stroke-linecap="round"/>
   </g>
   <path d="m241.38 124.74c-7.569-4.46-17.341-10.174-19.08-24.04-1.32-10.539 2.088-20.233 11.99-28.381" fill="none" stroke-width=".72"/>
   <path d="m232.36 106.61c3.501 4.561 3.672 9.783 2.61 14.06-3.241-4.4-3.763-8.907-2.61-14.06z" fill="#078930" stroke-linejoin="round" stroke-linecap="round" stroke-width=".54"/>
  </g>
  <g fill="#078930" stroke-linejoin="round" stroke-linecap="round" stroke-width=".54">
   <ellipse ry="1.53" rx="1.53" cx="222.51" cy="107.98"/>
   <g fill-rule="evenodd">
    <path d="m218.67 117.56c4.778 4.04 11.503 4.812 16.314 3.318-5.05-3.02-11.271-4.152-16.314-3.318z"/>
    <path d="m230.26 87.7c-.48 5.73-4.129 11.438-7.792 13.886.564-5.436 3.473-10.852 7.792-13.886z"/>
    <path d="m238.02 75.46c-3.04 4.881-8.45 7.795-12.826 7.767 2.873-3.508 7.705-6.715 12.826-7.767z"/>
    <path d="m246.14 64.779c-2.992 4.91-7.629 7.871-12.11 7.671 2.399-4.503 6.887-6.89 12.11-7.671z"/>
    <path d="m226.38 68.56c1.652 5.689.652 10.831-1.466 14.821-1.354-5.235-1.141-9.823 1.466-14.821z"/>
    <path d="m214.65 88.61c.48 5.73 3.343 10.365 7.65 12.92-.027-5.758-3.652-9.242-7.65-12.92z"/>
   </g>
  </g>
  <g fill-rule="evenodd">
   <path d="m261.66 124.81c7.115-5.153 15.592-11.977 16.02-25.947.322-10.616-2.482-18.873-13.11-26.05" fill="none" stroke-width=".72"/>
   <path d="m268.95 105.62c-3.056 4.87-3.878 11.244-2.418 15.4 2.813-3.775 4.051-10.381 2.418-15.4z" fill="#078930" stroke-linejoin="round" stroke-linecap="round" stroke-width=".54"/>
  </g>
  <g stroke-linejoin="round" stroke-linecap="round">
   <g fill="#078930" stroke-width=".54">
    <circle r="1.53" cx="-269.11" cy="118.11" transform="matrix(-.99556.09416.09416.99556 0 0)"/>
    <g fill-rule="evenodd">
     <path d="m282.24 117.5c-4.376 4.467-10.999 5.418-15.626 3.777 4.739-3.486 10.526-4.133 15.626-3.777z"/>
     <path d="m258.77 75.74c3.912 4.214 9.993 6.05 14.284 5.189-3.487-2.898-9.06-5.128-14.284-5.189z"/>
     <path d="m251.45 66.33c3.441 4.607 8.943 7.27 13.383 6.649-2.66-4.864-8.112-6.362-13.383-6.649z"/>
     <path d="m269.8 66.874c-1.109 5.819.753 9.772 3.238 13.544.855-5.339-.172-8.814-3.238-13.544z"/>
     <path d="m285.95 92.26c-.242 4.839-4.182 9.861-8.684 11.596 1.762-6.646 4.595-8.924 8.684-11.596z"/>
     <path d="m268.68 87.58c.349 6.775 3.963 12.07 8.608 14.864-.159-4.705-4.351-11.81-8.608-14.864z"/>
    </g>
   </g>
   <g fill-rule="evenodd" stroke-width=".36">
    <path d="m282.44 179.08c-5.817-3.692-9.38-9.793-11.663-17.505l.673-2.02c1.758 6.814 6.509 13.967 10.99 19.523"/>
    <path d="m324.38 121.27c-4.385 2.445-9.594 2.614-14.171 2.751l-.122-1.276c3.227.191 8.357-.05 14.294-1.474"/>
    <path d="m315.62 104.16c-2.908 2.745-5.816 3.811-8.724 4.569l-.159-1.635c2.495-.152 5.825-1.374 8.883-2.934"/>
   </g>
  </g>
  <g fill-rule="evenodd" stroke-width=".54">
   <path d="m262.46 146.63c13.758-1.888 24.06-8.03 30.355-18.19-4.28.714-6.086-2.123-4.937-4.293 1.15-2.169 4.137-3.15 6.332.322.353-4.603 3.086-6.665 5.473-5.04 2.387 1.621.942 5.873-2.361 6.868 3.72-.362 5.625 3.21 4.293 5.04-1.332 1.834-4.829 2.161-6.439-1.288-7.948 12.836-18.549 18.217-32.34 20.605z" fill="#fcdd09"/>
   <g stroke-linejoin="round" stroke-linecap="round">
    <path d="m263.13 153.05c-.579-3.838-1.01-7.67-.607-11.231.676-6.01 5.304-4.37 9.713-5.464 5.642-1.399 10.344-4.605 13.811-8.954m-24.897 34.407c3.089 6.193 5.997 11.297 8.8 15.776m12.234-18.459c4.638 7.177 7.604 15.16 14.81 21.571m-9.748-22.1c-1.46 1.685-5.03 1.439-7.457-1.227.019 1.688-.072 2.746-1.213 3.542m21.06-10.494c7.232 6.355 8.772 8.764 15.432 12.829m-13.237-17.07c-.694.106-2.04-.289-2.998-.428 1.656 1.785 1.636 7.214-3.687 5.05m14.06-16.959c4.438.966 10.578 1.833 15.05 1.489m-14.219-4.971c.122 2.591-1.486 4.747-4.047 4.901 1.01.819 1.62 1.486 1.755 2.465m1.164-23.2c3.828-.59 6.897-1.404 10.724-3.678m-14.986 1.076c3.575.18 6.643 4.206 2.324 7.322m2.737-20.711c-8.176 4.841-18.97 3.73-18.847 12.839m-56.14 23.524c.682 7.631 2.83 14.635 5.125 20.58 2.052 5.317 5.599 5.923 7.289 13.529m14.416-35.459c-5.77 4.739-2.318 14.823-.953 22.22m-20.94 7.61c-3.089 6.193-5.997 11.297-8.8 15.776m-16.527-18.14c-4.638 7.177-8.355 13.01-15.346 18.459m13.611-22.594c-1.235 4.25 4.248 6.124 7.512 2.411m-18.333-12.01c-7.232 6.355-14.16 11.496-20.82 15.561m15.915-17.08c.973 1.394 2.24 1.924 4.833 1.547-1.125 1.253-.89 3.264-.143 4.748m-10.946-19.16c-5.073.875-10.37 1.95-14.06 1.717m16.451-6.891c-3.598 2.866-2.987 7.38 1.458 8.299m-2.563-21.906c-3.828-.59-7.655-2.77-11.483-5.04m13.468 1.079c.614.866 1.086 1.368 1.593 1.667-3.149.18-5.346 3.898-2.962 6.961m-3.54-21.716c5.452 2.857 8.771 4.12 18.04 7.287 7.1 2.425 5.192 5.437 3.458 8.06m5.353 17.593c4.093 7.03 12.236 10.281 19.639 10.303m5.527-35.683c1.262-.675 2.598-1.304 4.847-1.556m-5.13-9.876c1.93 2.22 3.098 5.454 5.639 6.146m5.53-5.03c-.177 1.687-.508 3.194-1.984 4.638m-6.269-7.475c.584 2.342 2.114 2.876 3.718 2.696 4.877-.547 9.603.761 12.976-1.366m-7.638 4.213c3.865 6.33 5.344 12.382 5.767 18.341m-9.04-3.949c.095 4.055-.046 7.646-.518 10.849 2.212-2.953 3.01-6.845 3.528-10.931m-6.589 2.041c1.052-1.783 1.933-4.162 2.58-7.361m-5.116 19.23c1.608-1.603 2.988-4.089 4.585-7.01m-11.492 16.896c3.089-1.342 6.177-3.581 9.266-8.118m3.02-2.392c-.178 3.807-1.115 7.613-2.724 11.42 3.644-2.369 5.129-7.54 5.974-12.06m-9.946-35.878c3.833-1.033 9.716-.719 13.168-.018m-1.982 105.71c.357 12.296.502 23.536.662 34.852m2.576-61.17l7.19 12.02m-25.864-17.01c1.43-2.192 1.862-6.06 3.863-3.706" fill="none"/>
    <path d="m246.59 94.2c.327 1.787.863 3.364 1.903 4.438l.196-4.385z"/>
    <path d="m284.64 210.63c-.502.062-.989.283-1.436.947m-18.367-13.819c.181.482.211 1.145.211 1.844m27.365-2.86c.064.597.038.89.12 1.685m-2.64-8.128c-.544-.364-.947-.706-1.197-1.487m-23.846-12.48l10.274 21.03" fill="none"/>
    <path d="m248.52 98.6c1.714-.787 2.185-2.662 2.58-4.357l-2.527.022c-.679 1.682-.159 3.093-.053 4.335z" fill="#fff"/>
   </g>
  </g>
 </g>
</svg>
