<?xml version="1.0" encoding="UTF-8"?>
<!DOCTYPE svg>
<svg xmlns="http://www.w3.org/2000/svg" width="600" height="400" viewBox="0 0 6 4">
	<rect fill="#FFF"	width="6" height="4"/>
	<path d="M0,0 v3 h1 v1 h5 v-3 h-1 v-1" fill="#0038A8" stroke="none"/>
	<path d="M0,0 v2 h1 v1 h1 v1 h4 v-2 h-1 v-1 h-1 v-1" fill="#F9DD16" stroke="none"/>
	<path d="M0,0 v1 h1 v1 h1 v1 h1 v1 h3 v-1 h-1 v-1 h-1 v-1 h-1 v-1" fill="#D81E05" stroke="none"/>
	<path d="M1,0 v1 h1 v1 h1 v1 h1 v1 h1 v-1 h-1 v-1 h-1 v-1 h-1 v-1" fill="#FFF" stroke="none"/>
</svg>