<?xml version="1.0" encoding="UTF-8"?>
<svg xmlns="http://www.w3.org/2000/svg" xmlns:xlink="http://www.w3.org/1999/xlink" width="450" height="300">
<rect width="450" height="300" fill="#efd600"/>
<path d="m0,300c11.1188,0,225-39.3913,225-162v-138h-225z" fill="#fff"/>
<rect width="450" height="138" fill="#d60021"/>
<rect width="225" height="46" x="225" y="46" fill="#fff"/>
<g fill="#d60021">
<path d="m450,152.821-223.355,0c0.8532,5.85492,2.60868,11.3424,4.4103,16.7862h218.87l0.075-16.786z"/>
<path d="m450,185.344-212.442,0c3.05914,5.84609,6.50651,11.4602,10.5399,16.7862h201.902v-16.7862z"/>
<path d="m450,217.868-188.073,0c6.07254,5.99765,12.7058,11.539,19.7342,16.7862h168.339v-16.7862z"/>
<path d="m450,250.391-144.493,0c10.841,6.30498,21.9216,11.8142,33.1894,16.7862h111.304v-16.7862z"/>
<path d="m450,282.914-70.191,0c34.267,11.189,61.71,16.283,70.191,17.086v-17.0859z"/>
</g>
<g>
<g fill="#fcef3c">
<path d="m152.027,63.274c-0.18783-0.06723-0.2739-0.231852-0.1913-0.365835s0.0178-0.491408-0.1438-0.79427c-0.16167-0.302865-0.23164-0.550664-0.15546-0.550664,0.173,0,1.04039,1.65868,0.92005,1.75937-0.0484,0.04049-0.24167,0.01862-0.42949-0.0486z"/>
<path d="m140.811,62.9477c-2.85298-0.56092-4.69151-2.71815-5.70893-6.69856-0.70072-2.74138-1.22756-4.15565-1.78123-4.78165-0.31969-0.361465-0.26226-0.632823,0.40369-1.90761,0.42702-0.817408,0.92698-2.22199,1.11101-3.12129,0.68796-3.36184,2.40676-6.04062,4.48243-6.98594,1.38622-0.631327,4.187-0.670938,5.38454-0.07615,0.47849,0.237647,1.13518,0.74826,1.45935,1.13469l0.58937,0.702605,0.39925-0.957922c0.65361-1.56824,2.99721-2.81036,3.99459-2.11716,0.36245,0.251906,0.36245,0.278544,0,0.239743-1.66494-0.178242-3.26505,1.10217-3.85838,3.08749l-0.30967,1.03618-0.70227-0.657682c-1.43925-1.34787-3.51417-1.89624-4.97152-1.31391-0.78914,0.315331-2.6611,2.24743-3.18308,3.28536-1.29024,2.56558-1.29686,11.0184-0.0108,13.7613,0.32829,0.700173,0.90446,1.51557,1.28036,1.812,0.71031,0.560133,1.69748,0.726145,1.69748,0.285467,0-0.155566,0.34129-0.154154,0.88346,0.0037,1.82365,0.530803,3.51119-0.388039,4.00844-2.18256,0.66337-2.39396-0.0769-5.31871-1.51212-5.97428-0.81724-0.373298-1.55789-1.9602-1.27013-2.72141,0.16614-0.439524,0.2593-0.468345,0.53802-0.166455,0.21218,0.229818,0.23736,0.426904,0.0679,0.531861-0.42405,0.262739-0.31416,0.679613,0.17914,0.679613,0.24653,0,0.83994,0.404329,1.31867,0.898509,0.92792,0.957832,2.74167,1.66568,3.57335,1.39456,0.39769-0.12965,0.42182-0.105817,0.11423,0.112876-0.47069,0.334671-0.50723,4.5111-0.0542,6.2l0.28656,1.06835-0.55551-0.749416c-0.63461-0.856152-1.26206-0.96879-1.51804-0.272516-0.54449,1.481-2.67481,3.15108-4.29287,3.36542-1.02204,0.135386-2.98919-0.351398-4.1668-1.03111-1.3892-0.801835-1.79677-0.626664-0.82008,0.352465,0.42211,0.423173,1.53165,0.945073,2.83983,1.3358,2.06123,0.615629,2.11146,0.822416,0.10392,0.427719z"/>
<path d="m143.262,62.9258c0.22426-0.145293,0.59123-0.257428,0.8155-0.249188,0.26886,0.0099,0.22256,0.09476-0.13591,0.249188-0.7473,0.321928-1.17649,0.321928-0.67959,0z"/>
<path d="m145.572,62.0638c0.59803-0.31098,1.33198-0.765429,1.631-1.00989,0.54367-0.444472,0.54367-0.444472,0,0.206299-0.29902,0.357922-0.93729,0.817792-1.4184,1.02194-1.31578,0.558303-1.447,0.423541-0.2126-0.218342z"/>
<path d="m150.221,58.402c-0.0968-0.252744-0.11473-0.52085-0.04-0.595792,0.0747-0.07494,0.21507,0.07053,0.31181,0.323276,0.0967,0.252741,0.11474,0.520848,0.04,0.595789-0.0747,0.07494-0.21506-0.07053-0.31181-0.323273z"/>
<path d="m139.296,57.6137c-0.30159-0.461459-0.47301-1.44459-0.53456-3.0658l-0.0906-2.38651,0.27083,2.45264c0.14896,1.34895,0.45068,2.72856,0.67049,3.0658,0.21979,0.33724,0.33847,0.613161,0.26371,0.613161-0.0747,0-0.33569-0.305681-0.57989-0.679289z"/>
<path d="m150.079,57.0894c-0.0118-0.287277,0.0524-0.448231,0.14278-0.357678,0.0903,0.09056,0.1,0.325599,0.0214,0.522322-0.0868,0.217394-0.15118,0.152822-0.16423-0.164644z"/>
<path d="m149.807,55.4543c-0.0118-0.287277,0.0524-0.448231,0.14278-0.357678,0.0903,0.09056,0.1,0.325598,0.0214,0.522322-0.0868,0.217394-0.15118,0.152821-0.16423-0.164644z"/>
<path d="m138.694,46.4386c-0.005-0.44965,0.0508-0.666588,0.12531-0.482089,0.0745,0.184503,0.079,0.552398,0.0101,0.817548-0.0689,0.265148-0.12984,0.11419-0.13538-0.335459z"/>
<path d="m147.986,46.3705c-0.0982-0.412179-0.29902-0.902707-0.44621-1.09006-0.19427-0.247267-0.12532-0.340645,0.25155-0.340645,0.41727,0,0.5277,0.213983,0.56255,1.09006,0.0503,1.26471-0.11191,1.41491-0.36789,0.340645z"/>
<path d="m138.915,45.0207c-0.009-1.0843,1.88528-3.6246,2.70105-3.62263,0.23231,0.000556,0.0181,0.248087-0.4759,0.550069-0.56957,0.348121-1.1406,1.07078-1.5604,1.97472-0.36415,0.784115-0.66329,1.27815-0.66475,1.09785z"/>
<path d="m145.708,42.8504c-1.19317-1.22989-1.04218-1.39788,0.22884-0.254582,0.55753,0.501509,1.28671,1.53612,1.07194,1.52095-0.0426-0.003-0.62799-0.572877-1.30078-1.26636z"/>
<path d="m148.428,41.4517c-0.002-0.391301,0.75725-1.9622,0.94819-1.9622,0.14441,0-0.11007,0.700728-0.5938,1.63509-0.19399,0.374708-0.35347,0.521909-0.35439,0.327112z"/>
<path d="m74.9386,61.9415c0-0.07787,0.129253-0.383691,0.287229-0.679613,0.355775-0.666436,0.599493-18.2789,0.26514-19.1606-0.127722-0.336777-0.610067-0.969837-1.07188-1.40681-1.12616-1.06558-1.05856-1.29977,0.315637-1.09354,1.64446,0.246786,3.76983-0.230299,6.15721-1.38212,1.13617-0.548158,2.47467-1.08932,2.97445-1.20259,0.991224-0.22465,2.48923,0.164581,2.48923,0.646777,0,0.203992-0.104659,0.19544-0.326202-0.02666-0.47924-0.480445-0.761133-0.399701-0.761133,0.218012,0,0.299766-0.09174,0.525564-0.203875,0.501766-0.112131-0.02379-0.448528,0.04647-0.747545,0.156151-1.71357,0.628535-2.37911,1.07672-3.11862,2.10014-0.901781,1.248-1.06103,1.21908-0.395181-0.07176,0.235291-0.456138,0.358364-0.898946,0.273502-0.984021-0.292414-0.293144-1.32354,0.889873-1.96042,2.2492-0.628516,1.34148-0.638441,1.49873-0.641055,10.1579l-0.0027,8.79537,0.730726,0.27852c0.404782,0.154284,2.27464,0.242441,4.19202,0.197643,3.23711-0.07564,3.50689-0.123855,4.16534-0.744418,0.387228-0.364948,0.832537-1.16206,0.98958-1.77135,0.797507-3.09418,1.63476-4.94619,2.68758-5.94496,1.05005-0.996145,2.23003-1.3388,2.59145-0.752536,0.09529,0.154558-0.01401,0.200111-0.256402,0.106867-0.620104-0.238557-1.83903,0.134391-1.6978,0.519462,0.06669,0.181829,0.258864,0.299935,0.427062,0.262464,0.168198-0.03747,0.305812,0.05451,0.305812,0.204387,0,0.149884-0.286852,0.272517-0.637454,0.272517-0.711974,0-1.53722,0.767391-1.53722,1.42945,0,0.238007-0.121178,0.473612-0.269283,0.523575-0.426872,0.144001-1.08989,3.09734-1.08989,4.85479,0,1.29837-0.0905,1.62692-0.475707,1.72688-0.668791,0.17356-13.6597,0.191648-13.6597,0.01902z"/>
<path d="m111.799,124.869c-0.0676-1.64713-0.98858-2.34511-1.9924-1.50992-0.49401,0.41101-0.57447,0.3584-0.45997-0.30082,0.0927-0.53347-0.0819-0.78294-0.52531-0.75072-0.4744,0.0344-0.60182-0.19055-0.44605-0.78767,0.16996-0.65161,0.0681-0.77821-0.46203-0.57429-0.37404,0.1439-0.68007,0.10246-0.68007-0.0921,0-0.19455,0.25798-0.45296,0.5733-0.57426,0.6463-0.24863,0.81263-3.1515,0.18058-3.1515-0.21599,0-0.27026-0.19862-0.1206-0.4414,0.17478-0.2835,0.61041-0.12279,1.21783,0.44927,0.64607,0.60849,1.21623,0.8046,1.79953,0.619,0.46961-0.14942,0.85102-0.39778,0.84757-0.5519-0.0143-0.63873-0.74051-1.36855-1.46796-1.47525-1.09015-0.15991-1.16055-1.12725-0.16038-2.20352,0.98375-1.05855,2.13578-1.17195,3.00936-0.29618,0.33783,0.33868,0.7902,0.61579,1.00525,0.61579,0.21504,0,0.47723,0.45221,0.58264,1.00492,0.15952,0.83656,0.0137,1.02573-0.87014,1.12895-0.58606,0.0684-1.11819,0.42273-1.18773,0.79077-0.15648,0.82819,1.06164,1.34861,1.77241,0.75723,0.61489-0.51159,0.80999-0.25865,1.19742,1.55232,0.29398,1.37409-0.29578,1.89644-0.763,0.67582-0.14846-0.38785-0.51174-0.55846-0.88409-0.41522-0.34764,0.13374-0.52734,0.0733-0.39937-0.13431,0.38029-0.61684-0.53151-0.92495-1.86703-0.63089-0.81723,0.17996-1.17402,0.46635-1.0346,0.83056,0.13726,0.35858,0.002,0.47488-0.3806,0.32763-1.02915-0.39591-0.67803,1.35163,0.41593,2.07023,1.1352,0.74569,2.26665,0.87171,2.26665,0.25248,0-0.22578,0.27641-0.41052,0.61424-0.41052,0.87052,0,0.76442,0.38891-0.37899,1.38907-0.54627,0.47785-1.07149,1.42303-1.16713,2.10039-0.16117,1.14142-0.1784,1.1221-0.23526-0.26397zm-33.1324,0.38271c-0.350194-0.42301,0.109783-0.52927,2.29112-0.52927,1.50111,0,3.16084-0.15638,3.6883-0.34753,0.803979-0.29136,0.935657-0.22499,0.814551,0.41052-0.122827,0.64459-0.609319,0.77584-3.25013,0.87681-2.15941,0.0826-3.23918-0.0425-3.54384-0.41053zm12.9211,0.20498c0.711194-0.1365,0.878458-0.37206,0.689026-0.9704-0.190214-0.60083-0.05309-0.79016,0.572268-0.79016,0.452332,0,0.936309,0.18473,1.0755,0.41052,0.377567,0.61245,1.43324,0.4957,1.43324-0.15849,0-0.31295-0.644954-0.87583-1.43324-1.25083-1.80485-0.8586-1.81344-1.09759-0.03123-0.86884,1.66673,0.21392,3.10247,1.33369,3.10247,2.41966,0,0.62499-0.114872,0.6845-0.577795,0.29936-0.641723-0.53391-1.29806,0.0728-0.855449,0.79072,0.159775,0.25918-0.699384,0.38991-2.33045,0.35462-1.42094-0.0308-2.1609-0.13703-1.64434-0.23616zm43.0818,0.13469c0-0.0866,0.36856-0.25401,0.819-0.3721,0.45045-0.11809,0.819-0.0473,0.819,0.15739,0,0.20465-0.36855,0.37208-0.819,0.37208-0.45044,0-0.819-0.0708-0.819-0.15737zm7.99783-0.17207c-0.39893-0.39995-0.22354-1.36493,0.20036-1.1023,0.22974,0.14234,1.42752,0.25881,2.66173,0.25881,1.59424,0,2.24402,0.1581,2.24402,0.54601,0,0.39508-0.67577,0.5418-2.44437,0.53071-1.34439-0.008-2.54218-0.11338-2.66174-0.23323zm-56.1681-1.22375c-0.366768-0.58877-0.273258-0.9675,0.469419-1.90123,0.562549-0.70728,1.12139-1.04584,1.42044-0.86056,0.271158,0.16802,1.21283,0.29551,2.09261,0.28334,1.58984-0.022,1.59538-0.0166,0.908748,0.89603-0.516891,0.68697-0.995689,0.87332-1.90152,0.74003-0.893096-0.1314-1.38393,0.0521-1.87118,0.69974-0.62393,0.82924-0.685884,0.83714-1.11852,0.14265zm44.8943-0.97906c0-1.18646,0.97322-2.0049,2.32769-1.9575,0.58822,0.0206,0.54558,0.10562-0.20412,0.40705-1.19643,0.48105-0.73204,1.35198,0.58617,1.09936,0.53666-0.10286,0.97575-0.0723,0.97575,0.0678,0,0.47021-1.83315,1.45613-2.76412,1.48662-0.74032,0.0243-0.92137-0.19256-0.92137-1.10338zm7.37436,0.49043c-0.33596-0.21294-1.04682-0.27746-1.5797-0.14339-0.84522,0.21267-0.91804,0.145-0.5706-0.53024,0.21903-0.4257,0.32381-0.98039,0.23282-1.23265-0.091-0.25223,0.43926-0.57986,1.17827-0.72804,0.86531-0.17349,1.39948-0.10156,1.50042,0.20206,0.0862,0.25931,0.46772,0.7832,0.84779,1.16422,1.25462,1.25778-0.029,2.26941-1.609,1.26804zm-55.8566-2.02585c0.192582-1.3803,0.102049-1.64327-0.647849-1.88188-0.634494-0.20189-0.757584-0.41522-0.452319-0.78397,0.582589-0.70374-0.650138-2.43804-1.50043-2.11095-0.508244,0.19554-0.535157,0.12807-0.139556-0.3498,0.391089-0.47242,0.341428-0.67547-0.245791-1.00492-0.404757-0.22708-0.590864-0.55828-0.413582-0.73601,0.177286-0.17774,0.700447-0.0864,1.16258,0.20292,0.462136,0.28933,0.883409,0.46707,0.936162,0.39498,0.05275-0.0721,0.403355-0.58784,0.779117-1.1461,0.498473-0.74058,0.683208-0.83196,0.683208-0.33799,0,0.37236,0.322482,0.76151,0.716622,0.86477,0.539273,0.14128,0.488602,0.19953-0.204749,0.23536-0.506752,0.0262-0.921367,0.20973-0.921367,0.40788,0,0.60543,1.18466,1.38654,1.76454,1.16347,0.566874-0.21808,1.74619,1.25145,1.33507,1.6636-0.128215,0.12854-0.233124-0.004-0.233124-0.29551,0-0.42051-0.124381-0.42571-0.605641-0.0253-0.480215,0.39955-0.508732,0.68626-0.137706,1.38448,0.413332,0.77781,0.392688,0.81836-0.176898,0.34748-0.794551-0.65686-1.2957-0.0299-0.921331,1.15255,0.299353,0.94553-0.08904,2.45947-0.630964,2.45947-0.203422,0-0.269116-0.72203-0.145991-1.60452zm61.3887,0.68084c-0.0945-0.28223-0.22692-0.975-0.29426-1.53946-0.0674-0.56447-0.34683-1.02632-0.62106-1.02632-0.84627,0-2.22322-1.43579-2.08481-2.17392,0.0722-0.38487,0.54473-0.88211,1.05018-1.10498,0.50543-0.22289,0.91897-0.72001,0.91897-1.10473,0-0.38471,0.18428-0.81363,0.40951-0.95319,0.22522-0.13955,0.40949-0.70466,0.40949-1.2558,0-0.7284,0.22369-1.00209,0.819-1.00209,0.95346,0,1.10673,1.03305,0.20476,1.38005-0.77235,0.29711-0.81007,1.49363-0.0471,1.49363,0.31192,0,0.86795,0.46024,1.23559,1.02274,0.6466,0.98929,0.63808,1.01948-0.26003,0.92367-0.77494-0.0827-0.93361,0.10461-0.95956,1.13253-0.0171,0.67736-0.17518,1.55527-0.35129,1.9509-0.17611,0.39565-0.20468,1.18078-0.0635,1.74473,0.25906,1.03478-0.0473,1.46371-0.36591,0.51224zm-49.4541-2.66227-1.94511-0.15375,0-1.61962,0-1.6196,6.4697,0,6.4697,0,0.53654,1.4875c0.44751,1.24067,0.44418,1.54616-0.0201,1.84108-0.53723,0.34123-7.51473,0.38028-11.5107,0.0644zm23.5759-0.0308c-1.27768-0.18239-1.90699-1.11749-1.59385-2.36829l0.26773-1.06936,8.47982,0.21763c4.66391,0.1197,8.4867,0.22905,8.49511,0.24299,0.28886,0.47968,0.0531,2.52618-0.31793,2.76029-0.48712,0.30732-13.4159,0.49009-15.3309,0.21674zm-32.6612-3.653c-0.222225-0.58508-0.175191-0.63224,0.229236-0.22981,0.279862,0.27847,0.405678,0.60973,0.279599,0.73611-0.126079,0.1264-0.355056-0.10144-0.508835-0.5063zm60.9888-0.94139c0.1392-0.22578,0.42648-0.41052,0.63842-0.41052,0.21193,0,0.38533,0.18474,0.38533,0.41052s-0.28729,0.41053-0.63842,0.41053c-0.35112,0-0.52452-0.18475-0.38533-0.41053zm-57.7844-0.58593c-0.123353-0.32226-0.163636-1.01502-0.08952-1.53947l0.134757-0.95354,10.1351-0.12045c5.861-0.0697,10.1351,0.0362,10.1351,0.25096,0,0.20428-0.46174,0.28293-1.02609,0.17478-1.28565-0.24639-2.24988,0.52402-2.24988,1.7976v0.97605h-8.40756c-6.90522,0-8.44763-0.1047-8.63184-0.58593zm28.3688,0.31224c-0.15016-0.15052-0.27301-0.55162-0.27301-0.89135,0-0.33971-0.30495-0.9555-0.67771-1.36842-0.6536-0.72403-0.4658-0.75073,5.27967-0.75073,6.42682,0,6.4545,0.01,6.4545,2.29146v0.99273h-5.25523c-2.89038,0-5.37807-0.12316-5.52822-0.27369zm17.4173-0.21894c-0.72038-0.72219-0.62932-2.79156,0.12285-2.79156,0.44363,0,0.61425,0.45613,0.61425,1.64209,0,1.81241-0.0297,1.85867-0.7371,1.14947zm-41.0173-4.42476c-0.26761-0.1658-0.425183-0.92442-0.351879-1.69406l0.132755-1.39379,15.2746-0.0462,15.2746-0.0462-0.12317,1.6883-0.12317,1.68832-14.7995,0.052c-8.13976,0.0286-15.0176-0.0832-15.2842-0.24831zm36.8029-0.11153c-0.32748-0.8959-0.31749-2.77105,0.0148-2.77105,0.23773,0,0.43225,0.64658,0.43225,1.43684s-0.0921,1.43683-0.20475,1.43683c-0.11262,0-0.22163-0.0462-0.24226-0.10262zm-30.2653-11.581,0-7.20373,8.29233,0.104257,8.29234,0.104253,0.11183,7.03226,0.11183,7.03226-8.40416,0.0672-8.40417,0.0672,0-7.20374zm22.9319-0.01631c0-5.74735,0.0931-6.77366,0.61425-6.77366,0.51578,0,0.61424,0.892164,0.61424,5.56632,0,3.60634-0.14419,5.47696-0.40949,5.31259-0.22523-0.13955-0.40951,0.0234-0.40951,0.36208s0.18428,0.72994,0.40951,0.86949c0.63267,0.39199,0.48377,1.43684-0.20475,1.43684-0.52119,0-0.61425-1.0263-0.61425-6.77366zm-24.9798-9.6132c0-0.884307,0.247569-1.29632,0.921367-1.53332,1.42414-0.50095,26.6145-0.159518,27.2501,0.369344,0.29309,0.243854,0.47792,0.829002,0.41074,1.30033-0.12082,0.847763-0.27498,0.858128-14.3522,0.964926l-14.23,0.107944v-1.20922zm6.14246-12.1356c0-10.2824-0.55704-9.35942,5.52824-9.16008l3.68546,0.120724,0.11036,8.92891,0.11037,8.92891h-4.71722-4.71721v-8.81846zm13.9433,0.300073c0.003-8.26799,0.21278-9.95613,1.16234-9.3678,0.31113,0.192778,0.45527,3.06884,0.45527,9.08414,0,8.49767-0.028,8.80205-0.81051,8.80205-0.78176,0-0.8104-0.302231-0.8071-8.51839zm-14.546-11.3327c-0.47642-0.34924-0.66003-0.815084-0.49314-1.2511,0.24054-0.628421,1.116-0.683031,9.17786-0.57252l8.91195,0.122158,0.12958,1.12894,0.12957,1.12894h-8.54838c-6.54688,0-8.72611-0.130279-9.30744-0.55642zm1.10472-10.2199,0.11204-7.08155,4.19735-0.116993c2.30855-0.06434,4.20806,0.02802,4.22114,0.205263,0.0131,0.177243,0.11948,3.41658,0.23642,7.19854l0.21265,6.87629h-4.54582-4.54582l0.11204-7.08155zm13.4207-0.102627c0-6.11226,0.0916-7.18418,0.61424-7.18418,0.5226,0,0.61425,1.07192,0.61425,7.18418,0,6.11225-0.0917,7.18418-0.61425,7.18418-0.5226,0-0.61424-1.07193-0.61424-7.18418zm-10.7837-8.44724c-3.84848-0.226254-5.13-0.706302-4.52133-1.69364,0.11105-0.180123,4.33719-0.327497,9.39143-0.327497,9.35152,0,9.78216,0.07287,8.87529,1.50164-0.36514,0.57528-7.93208,0.861269-13.7454,0.5195zm-2.96058-4.38166c-0.47129-2.15929-0.97287-3.4304-1.82958-4.63656-1.30909-1.84306,0.0432-1.58804,1.5475,0.291835,1.45121,1.81352,2.53913,1.69994,2.31363-0.241565-0.2593-2.2327,2.02258-1.21843,2.53222,1.12554,0.25821,1.18754,0.73333,2.72392,1.19719,3.87128,0.24487,0.605709,0.0573,0.71842-1.1954,0.71842-1.1875,0-1.57949-0.206065-1.95228-1.02631-0.25655-0.56447-0.60116-1.02631-0.76581-1.02631-0.16467,0-0.415,0.461843-0.55632,1.02631-0.33965,1.35661-0.98382,1.3054-1.29115-0.102631zm10.6771,0.03555c0.17352-0.64047,0.4432-1.9398,0.59932-2.88738,0.30635-1.85947,1.01957-2.99816,1.87794-2.99816,0.3827,0,0.47355,0.400339,0.31422,1.38465-0.3426,2.11655,0.50898,2.22744,2.28605,0.297694,0.85209-0.925286,1.85125-1.68234,2.22038-1.68234,0.5943,0,0.57901,0.151848-0.13348,1.32641-0.44255,0.72952-1.11003,2.29978-1.48328,3.48946-0.49979,1.59295-0.87975,2.16306-1.44161,2.16306-0.57471,0-0.76294-0.303849-0.76294-1.23158,0-1.53863-0.6054-1.58598-1.31236-0.102632-0.31773,0.66669-0.93557,1.18553-1.50887,1.26713-0.884,0.125822-0.94261,0.03401-0.65537-1.02631zm-1.84687-2.72449c0-3.11753,0.0144-3.16104,1.04792-3.16104,0.58405,0,0.93751,0.179084,0.79849,0.404585-0.13718,0.222518-0.4201,1.45586-0.6287,2.74077-0.59782,3.68234-1.21771,3.69033-1.21771,0.01569zm-13.8498-5.31049,0.131606-0.929483,12.8992,0c12.6262,0,12.8992,0.01738,12.8992,0.821046,0,0.801578-0.30906,0.823622-13.0308,0.929487l-13.0308,0.108437,0.131625-0.929487zm2.79333-2.71558c0-0.727513,0.91258-2.93493,1.21334-2.93493,0.72423,0,2.47215,1.76262,2.47215,2.49294,0,0.93308-1.03604,1.06514-1.37658,0.175465-0.12964-0.338682-0.42576-0.615784-0.65805-0.615784s-0.42235,0.277102-0.42235,0.615784-0.27641,0.615788-0.61426,0.615788c-0.33783,0-0.61425-0.15717-0.61425-0.349263zm5.73297-0.04195c0-0.931342,1.00988-2.48786,1.77131-2.73014,0.98201-0.312458,1.91418,0.745991,1.91418,2.1735,0,1.12314-0.60472,1.23797-1.20815,0.22943-0.40937-0.684205-0.45031-0.684205-0.8597,0-0.45336,0.757745-1.61764,0.993249-1.61764,0.327209zm5.32348-0.244965c0-0.983842,1.19054-3.05928,1.75088-3.05226,0.84715,0.01062,1.45435,0.574741,1.90897,1.77352,0.61112,1.61136,0.55026,1.91491-0.38387,1.91491-0.6006,0-0.81899-0.273684-0.81899-1.02631,0-0.564475-0.1547-1.02631-0.34376-1.02631-0.18907,0-0.55368,0.461838-0.81023,1.02631-0.51859,1.14102-1.303,1.37588-1.303,0.390134zm5.73296,0.07575c0-0.764828,1.58037-2.72377,2.19737-2.72377,0.27495,0,0.69667,0.73894,0.93714,1.6421,0.24045,0.903152,0.27852,1.6421,0.0846,1.6421-0.19393,0-0.36228-0.415655-0.37409-0.923682l-0.0215-0.923678-0.64272,0.923678c-0.70374,1.0114-2.18081,1.25744-2.18081,0.363257zm-13.6739-2.94239c-0.42609-0.315048-0.95926-0.634495-1.18485-0.709877-0.44469-0.148601,0.26945-1.74633,1.19556-2.67475,0.75402-0.755932,1.94823-0.04309,2.60968,1.55778,0.40249,0.974144,0.41245,1.38271,0.0427,1.75334-0.3697,0.370631-0.53774,0.269648-0.72111-0.433366-0.31613-1.21188-0.87556-1.16791-1.03776,0.08155-0.11717,0.902623-0.20371,0.943329-0.90426,0.42533zm11.9532-0.450743c-0.51441-0.515697-0.57149-0.91363-0.2597-1.81026,0.61195-1.75988,1.58762-1.88749,2.9285-0.383017,1.0961,1.22983,1.11677,1.32356,0.41019,1.86054-0.87563,0.665462-1.51394,0.765647-1.15356,0.181059,0.13921-0.225792,0.11489-0.634696-0.054-0.90868-0.20617-0.334417-0.45584-0.133383-0.7596,0.611605-0.41595,1.02019-0.50569,1.05641-1.11182,0.448758zm-6.16215-0.196787c-1.00456-0.569443-0.89171-1.6995,0.27993-2.80294l0.99654-0.938546,1.07913,1.08184c1.17651,1.17947,1.22181,2.41028,0.0967,2.62751-0.4914,0.09487-0.71192-0.126203-0.71192-0.713703,0-1.19113-0.73665-1.06718-0.89417,0.15046-0.10648,0.823071-0.25731,0.929196-0.8462,0.595384zm-3.325-3.4511c-0.68165-0.504628-0.69848-0.63574-0.15184-1.18375,0.97344-0.975865,2.53979-1.21361,3.14882-0.477943,0.43228,0.522183,0.43368,0.760491,0.007,1.27536-0.36367,0.439288-0.6549,0.502146-0.95104,0.205262-0.59018-0.591665-0.99789-0.535043-1.15439,0.160315-0.11319,0.502867-0.24366,0.505878-0.89899,0.02075zm8.13712-0.199838c-0.31236-0.986575-0.91246-1.07342-1.09567-0.158559-0.11515,0.574953-0.22537,0.557841-0.84572-0.131309-0.60756-0.674927-0.63219-0.903685-0.1661-1.5427,0.6357-0.871545,2.10425-0.662676,3.47703,0.49453l0.85843,0.723625-0.98423,0.717044c-0.9471,0.689987-0.99404,0.686117-1.24374-0.102627zm-4.26694-2.21744c-0.38994-0.471004-0.3142-0.640152,0.38644-0.863082,1.12004-0.356381,1.27984-0.170717,0.62537,0.726572-0.45126,0.618695-0.59643,0.63828-1.01181,0.13651zm0.37713-4.12072,0-1.82376-1.74036-0.126234c-2.18424-0.158433-1.92848-0.947289,0.30712-0.947289h1.63799l-0.0257-1.94999c-0.0219-1.65812,0.0919-1.94999,0.76042-1.94999,0.51322,0,0.70821,0.203677,0.56161,0.586635-0.12349,0.32265-0.34717,1.24194-0.49705,2.04288l-0.27251,1.45624,2.09123-0.226182c1.93305-0.20907,2.09124-0.159849,2.09124,0.650684,0,0.806609-0.14764,0.854674-1.84273,0.599841l-1.84274-0.27703v1.89397c0,1.40985-0.15701,1.89397-0.61424,1.89397-0.45382,0-0.61426-0.476321-0.61426-1.82376z"/>
</g>
<g fill="#000">
<path d="m150.75,63.5067c-0.52329-0.279685-1.30449-0.88092-1.73601-1.33608l-0.78459-0.827558-0.89215,0.682189c-3.65994,2.79857-9.14439,2.05692-11.4113-1.54312-0.71626-1.13746-1.47556-3.10628-1.48203-3.84277-0.009-1.05026-1.38893-4.49092-2.02275-5.04424-0.53413-0.466284-0.6023-0.650729-0.32556-0.880976,0.66523-0.55348,1.74566-2.89538,2.08742-4.52461,0.18863-0.899303,0.44594-1.7516,0.57179-1.89398,0.12586-0.14239,0.23154-0.448969,0.23486-0.681287,0.003-0.232319,0.24872-0.728981,0.54534-1.10369,0.53602-0.677154,0.536-0.673657-0.003,0.576374-0.29799,0.691712-0.70607,2.04066-0.90684,2.99767-0.20076,0.957002-0.74921,2.47012-1.21879,3.36247-0.73314,1.39319-0.80112,1.682-0.48107,2.04387,0.56234,0.635817,1.14251,2.1883,1.80959,4.84228,1.17025,4.65602,3.51429,6.88852,7.23266,6.88852,2.38338,0,4.09522-0.578863,5.2529-1.77628l0.90554-0.936622,1.03996,1.12932c0.57199,0.621125,1.10949,1.05963,1.19445,0.974455,0.11662-0.116911-1.22101-2.1181-1.93375-2.89302-0.0484-0.05263-0.43244,0.231792-0.85337,0.632065-1.75896,1.6726-4.66166,2.63169-6.37802,2.10738-0.50123-0.153122-1.22469-0.347271-1.60767-0.431442-0.73515-0.16157-2.51197-1.5301-1.98733-1.53067,0.16857-0.000184,0.44527,0.167288,0.61487,0.37216,0.52822,0.638056,3.22825,1.34069,4.56952,1.18913,1.54052-0.174073,3.25209-1.35028,3.95777-2.71982,0.28961-0.562062,0.67852-1.02193,0.86426-1.02193,0.18572,0,0.67536,0.45987,1.08808,1.02193l0.7504,1.02194-0.1618-0.817548c-0.83624-4.2253-0.82258-6.86561,0.037-7.15286,0.24208-0.08089,0.32765,0.528807,0.32213,2.29503-0.004,1.32286,0.0473,2.71177,0.11429,3.08648,0.17346,0.969994,1.13767,3.61818,1.57456,4.32446,0.30745,0.497038,0.30863,0.635482,0.007,0.823724-0.28868,0.180155-0.27029,0.261779,0.0902,0.40046,0.73852,0.28411,1.22381,0.20009,1.22381-0.211883,0-0.212333-0.0918-0.42694-0.20388-0.476903-0.33309-0.148412-1.39359-2.69394-1.85438-4.45109-0.23968-0.91398-0.42595-2.70221-0.42236-4.05474l0.007-2.41965-1.22537,0.168376c-1.50935,0.207399-2.84417-0.300914-3.80911-1.45056-0.38208-0.45521-0.86346-0.827655-1.06975-0.827655-0.22309,0-0.31112-0.167017-0.21725-0.412241,0.0868-0.226738,0.0228-0.575256-0.14209-0.774494-0.16494-0.199239-0.2092-0.469554-0.0984-0.600707,0.11084-0.131149-0.0125-0.07419-0.27419,0.126573-1.04051,0.798416-0.27552,3.52199,1.11336,3.96391,0.71154,0.226404,1.40134,1.88282,1.3996,3.36091-0.003,3.04804-1.12423,4.57451-3.18862,4.34337-2.62168-0.293549-3.2161-1.3336-3.6421-6.3727-0.40292-4.76596-0.16946-7.49237,0.80691-9.42332,0.82434-1.63029,2.29301-2.56194,3.54871-2.25114,0.93514,0.231456,3.76391,3.1549,4.00189,4.13579,0.10276,0.423565,0.35207,1.01202,0.55403,1.30766,0.32042,0.469061,0.36796,0.208687,0.37316-2.04387,0.007-2.82063,0.55905-4.60412,1.70541-5.50489l0.59921-0.470843-0.59311-0.006c-1.10319-0.01127-2.23639,2.41704-2.25449,4.83109-0.004,0.487123-0.12899,0.885677-0.27848,0.885677-0.14952,0-0.27185-0.161876-0.27185-0.359721,0-0.681376-1.89269-2.5747-3.02981-3.03083-1.49379-0.599191-2.93078-0.354258-4.01484,0.684329-1.58696,1.5204-1.73687,2.24798-1.76472,8.56531-0.0139,3.14755,0.0661,6.04911,0.17774,6.4479,0.11162,0.398792,0.64045,1.17671,1.17517,1.72871,1.14174,1.17862,1.11754,1.40688-0.0693,0.653543-1.34315-0.852557-1.98024-2.5664-2.25397-6.0634-0.29615-3.78349-0.29716-3.67648,0.0592-6.30946,0.3309-2.44486,0.65276-3.23856,1.8828-4.64301,1.96251-2.24078,4.43931-2.39325,6.51849-0.40128,0.95593,0.91583,1.10501,0.864225,1.56658-0.542278,0.67453-2.0554,2.63697-3.36883,3.80649-2.54761,0.69518,0.488141,0.7397,0.0962,0.0816-0.718529-0.45122-0.558627-0.57148-0.578217-1.69231-0.275649-1.28125,0.345869-2.98679,1.86939-2.98679,2.66802,0,0.354434-0.0886,0.323196-0.41718-0.147091-0.6223-0.890699-2.69475-1.7043-4.34127-1.7043-1.82306,0-3.11684,0.549272-4.68047,1.98708-0.75567,0.694856-1.12583,0.916776-0.9392,0.563082,0.37615-0.712903,1.72281-1.8727,2.85736-2.46087,0.49661-0.257452,1.56845-0.446504,2.6178-0.461728,1.43957-0.02088,2.0566,0.117782,3.25051,0.730533l1.47364,0.756312,0.93311-0.963087c1.06248-1.09662,2.81601-1.7021,3.8617-1.33342,0.91708,0.323326,1.30917,1.49337,0.81231,2.42408-0.32331,0.605637-0.53016,0.69738-1.38755,0.615409-1.57952-0.15101-1.95432,0.727253-1.9079,4.47069,0.0328,2.6429-0.0139,2.96665-0.41607,2.88883-0.24916-0.0482-0.85745-0.884746-1.35176-1.85899-2.34242-4.61666-5.16375-5.40792-6.93892-1.94605-0.59827,1.16674-0.62971,1.50784-0.62971,6.83297,0,5.00975,0.0544,5.69505,0.51256,6.45366,1.10034,1.82207,3.55966,2.39077,4.69235,1.08508,0.73734-0.84994,1.04955-2.99618,0.65144-4.4783-0.20196-0.75194-0.61573-1.36058-1.2597-1.85299-2.37082-1.81285-2.30108-4.99385,0.11102-5.0626,1.47481-0.04204,1.99942,0.925595,1.53257,2.82686-0.16215,0.6604-0.0641,0.775207,1.10563,1.29391,1.20057,0.532394,1.36114,0.542802,2.48299,0.160971,0.65968-0.22453,1.23826-0.408235,1.28573-0.408235,0.0475,0,0.0919,1.31829,0.0986,2.92954,0.0144,3.41923,0.43861,5.2534,1.81765,7.85858,0.74015,1.39821,0.89379,1.89941,0.63314,2.06527-0.54602,0.347458-1.35581,0.243722-2.38291-0.305253z"/>
<path d="m72.6406,63.6602c0-0.05862,0.483164-0.692744,1.0737-1.40916,0.721038-0.874737,1.1005-1.62293,1.1553-2.27792,0.05016-0.599556,0.148711-0.812894,0.255788-0.553709,0.240292,0.581643-0.416155,2.38068-1.10264,3.02184-0.767385,0.716724-0.72649,0.784775,0.452737,0.75335,0.873088-0.02327,0.921853-0.05439,0.339792-0.216933-1.65897-0.463254,0.722804-0.697782,7.1455-0.703601,5.68871-0.0052,6.77789-0.06975,6.99556-0.414879,0.141799-0.224825,0.261542-1.14456,0.266103-2.04387,0.0094-1.85945,0.531502-3.88083,1.11819-4.32943,0.218194-0.166835,0.351584-0.523829,0.296422-0.793324-0.07384-0.360715,0.19457-0.606105,1.01736-0.930112,1.01698-0.400484,1.41656-1.13253,0.524258-0.960467-0.223574,0.04312-0.171992-0.08625,0.12836-0.321926,0.567855-0.445573,1.26479-0.291833,1.26479,0.279008,0,0.208787,0.122323,0.379617,0.27184,0.379617,0.473545,0,0.293244-1.0594-0.22789-1.339-0.978914-0.52521-2.99648,0.481479-3.68241,1.83739-0.397483,0.785721-1.26915,3.31676-1.7605,5.11194-0.521656,1.90591-1.0052,2.14317-4.58302,2.24874-1.72189,0.05081-3.5443,0.01459-4.0498-0.08048l-0.919085-0.172855v-8.68555c0-7.93846,0.04444-8.78712,0.516673-9.86634,0.563614-1.28806,1.36374-2.44086,1.37752-1.9847,0.0048,0.157376-0.138077,0.433229-0.317404,0.613006-0.350507,0.351386-0.987875,18.9944-0.660597,19.3225,0.09413,0.09437,0.244712,0.09782,0.334626,0.0077,0.08992-0.09014,0.156096-3.8202,0.14707-8.28902-0.01823-9.02618,0.101138-9.85746,1.67129-11.6383,0.980815-1.11244,2.63933-1.66611,2.63933-0.881106,0,0.243558,0.112321,0.442836,0.249602,0.442836,0.137282,0,0.443094,0.07443,0.679586,0.165415,0.240583,0.09255,0.429984,0.02544,0.429984-0.152342,0-0.174764-0.11619-0.245766-0.258196-0.157781-0.142007,0.08799-0.386659-0.08066-0.543669-0.374774-0.384579-0.720399-0.360043-0.854677,0.122279-0.669128,0.285105,0.109677,0.407751-0.02068,0.407751-0.43341,0-0.32465,0.122326-0.514481,0.271835-0.421846,0.149508,0.09263,0.271831,0.467764,0.271831,0.833629,0,0.365864,0.129712,0.665206,0.288246,0.665206,0.166858,0,0.252711-0.43036,0.203876-1.02193-0.07389-0.894967-0.200406-1.05953-1.01832-1.32456-1.17199-0.379755-2.63568-0.0069-5.36295,1.36604-1.07116,0.539249-2.17209,0.971805-2.44651,0.961246-0.278544-0.01072-0.07521-0.175772,0.460321-0.373643,0.527592-0.194943,1.6198-0.690003,2.42714-1.10014,2.34254-1.19003,3.49938-1.5185,4.68091-1.32909,1.33582,0.214141,1.98354,1.06825,1.72052,2.26877-0.361731,1.65108-1.48065,2.08018-2.85885,1.09635l-0.766294-0.547017-0.877395,0.740129c-1.80739,1.52463-1.87475,1.94496-1.8814,11.7401l-0.006,8.79727,3.19405-0.07678,3.19405-0.07678,0.588743-1.22632c0.323806-0.674478,0.735689-1.71685,0.915292-2.31638,0.813893-2.71686,1.45887-4.00158,2.39895-4.77841,1.28735-1.06381,2.81036-1.12317,3.45639-0.134721,0.408921,0.62566,0.404552,0.746493-0.06169,1.70322-0.415451,0.852522-0.699296,1.07368-1.64894,1.2848-1.10833,0.246392-1.15786,0.303237-1.46559,1.68174-0.263123,1.1787-0.2381,1.86721,0.143941,3.96064,0.254333,1.39366,0.592432,2.69096,0.751329,2.8829,0.233894,0.282528-1.58073,0.348977-9.5304,0.348977-5.40062,0-9.8193-0.04796-9.8193-0.106587z"/>
<path d="m75.0871,48.4699,0-6.30381-0.912382-0.862643c-0.93454-0.883596-1.67317-2.01456-1.45714-2.23114,0.06656-0.06673,1.08566-0.000797,2.26466,0.146472l2.14362,0.267809-1.9708-0.107283c-1.29601-0.07055-1.9708-0.0065-1.9708,0.187036,0,0.161873,0.489301,0.826475,1.08733,1.47689l1.08734,1.18258v6.27395c0,3.45067-0.06116,6.27395-0.135917,6.27395-0.07475,0-0.135917-2.83672-0.135917-6.30381z"/>
<path d="m110.63,127.94c-4.40355-0.0791-6.85909-0.27626-6.85909-0.55077,0-0.61094,0.86132-2.16876,1.38877-2.51179,0.24594-0.15994,0.89955-0.17698,1.45248-0.0379l1.00531,0.25296-0.89954-1.14645c-0.49474-0.63054-0.89953-1.47124-0.89953-1.86821,0-0.99582-0.46764-1.09043-4.91398-0.99423-4.97171,0.10757-4.75065,0.0525-3.91732,0.97566,0.392752,0.43507,0.863748,1.45623,1.04664,2.26923,0.555319,2.4684-0.07407,2.74972-5.45876,2.43993-2.51336-0.14461-4.8757-0.42289-5.24965-0.61842-0.420612-0.21993-1.05194-0.1618-1.65539,0.1524-0.657475,0.34233-2.13454,0.44099-4.53081,0.30264-3.01398-0.17401-3.6972-0.34951-4.48708-1.15261-0.92495-0.94045-0.925791-0.9518-0.115726-1.55497,0.448816-0.33418,1.18591-0.55445,1.63799-0.48947,0.664066,0.0954,0.913485-0.23676,1.29838-1.72924,0.262029-1.01605,0.608493-2.27257,0.769921-2.79228,0.266015-0.85641,0.193846-0.91984-0.770555-0.67718-0.923441,0.23235-1.15462,0.0773-1.74939-1.17303-0.753424-1.58391-0.56741-2.6172,0.547691-3.04234,0.399248-0.15221,1.06176-0.70223,1.47225-1.22226,0.46861-0.59366,1.18379-0.9455,1.92189-0.9455,0.727659,0,1.40362-0.32642,1.77413-0.85673l0.598577-0.85673,0.298674,0.95936c0.360838,1.15903,2.65622,4.44882,3.10407,4.44882,0.175807,0,0.374913-1.06223,0.442457-2.36052l0.122808-2.36052,1.63799-0.0352c2.72365-0.0586,2.66174-0.002,2.66174-2.4279v-2.25789h3.08409c2.1086,0,3.13489-0.16231,3.24468-0.51316,0.301046-0.96182,0.588317-11.7586,0.351762-13.22-0.131579-0.812818-0.474477-1.45627-0.776047-1.45627-0.761315,0-1.30482-1.13522-1.08796-2.27246,0.296489-1.5549,1.55339-2.36589,3.97932-2.56757l2.23119-0.18549,0.11708-9.28982c0.1065-8.45125,0.0524-9.33825-0.59955-9.82626-0.95754-0.716775-0.9078-2.35084,0.10237-3.36355,0.693-0.694732,0.819-1.36841,0.819-4.37893,0-4.5132,0.46519-4.22031,0.55046,0.346579l0.0638,3.41656,4.60684,0.116075,4.60685,0.116074v-7.41633-7.41633l-4.60685,0.116079-4.60684,0.116074,0.0432,1.11651c0.0238,0.614082-0.11444,1.01883-0.30713,0.899452-0.19269-0.119385-0.35033-0.740602-0.35033-1.38048,0-0.660571-0.26814-1.26658-0.6204-1.40209-0.34121-0.131265-0.80791-0.733104-1.0371-1.33742-0.34274-0.903775-0.26898-1.25638,0.41566-1.98697,1.69758-1.81153,0.91939-4.36824-2.25201-7.3988l-2.24468-2.14498,0.851504-1.08521c0.468311-0.596866,1.20666-1.08521,1.64076-1.08521,0.55452,0,0.78926-0.285742,0.78926-0.960741,0-1.50071,2.25791-5.65859,3.97393-7.31791,0.85486-0.826618,2.47568-2.03863,3.60179-2.69335,1.90367-1.1068,2.05653-1.31512,2.17617-2.96586l0.12868-1.77545-1.66429,0.266798-1.66431,0.266803v-1.84205c0-1.80769,0.0196-1.83458,1.0504-1.44169,0.57772,0.220202,1.43107,0.400366,1.89632,0.400366,0.72721,0,0.81457-0.187224,0.62244-1.33421-0.12292-0.733811-0.35103-1.65749-0.50689-2.05262-0.24418-0.619-0.0318-0.718419,1.5349-0.718419,1.00007,0,1.91714,0.09908,2.03793,0.220179,0.1208,0.121101-0.0155,0.905746-0.30281,1.74366-0.28733,0.837912-0.42524,1.68112-0.30646,1.8738,0.2141,0.347292,1.70625,0.171577,3.08551-0.363351,0.62631-0.242909,0.71661-0.0082,0.71661,1.86253,0,1.87309-0.0895,2.10498-0.71661,1.85636-0.39415-0.156261-1.32879-0.387093-2.07701-0.512959l-1.36037-0.228853,0.28765,1.59798c0.3496,1.94217,0.84464,2.62429,1.90447,2.62429,1.00258,0,4.9835,4.03481,5.99462,6.07579,0.41387,0.835403,0.98967,2.39641,1.27958,3.46891,0.42299,1.5649,0.70256,1.94999,1.41571,1.94999,2.1616,0,2.57341,2.45776,0.61214,3.65348-1.5948,0.97229-2.18465,1.82636-3.27029,4.73528-0.80162,2.14787-0.81944,2.3972-0.21903,3.06231,0.94691,1.04896,0.80318,2.40702-0.37013,3.49713-1.01341,0.941555-1.02374,1.02049-1.02374,7.82092v6.86977l1.18687,1.11148c0.92582,0.86702,1.13924,1.36131,0.97029,2.24732-0.11912,0.624707-0.56107,1.35151-0.98213,1.61512-0.71046,0.444811-0.76553,1.13659-0.76553,9.61734v9.13806l1.74036,0.04864c0.95721,0.02675,1.96623,0.01968,2.24229-0.0157,0.90536-0.116061,2.91505,1.17154,3.19152,2.04481,0.41982,1.32603-0.0914,2.66133-1.21534,3.17473-1.38481,0.632546-1.51539,1.42241-1.3728,8.30329l0.1232,5.94415,3.46475,0.41053,3.46476,0.41052-0.11916,2.20041c-0.0904,1.66941,0.0103,2.15715,0.41724,2.02117,0.295-0.0986,1.27719,0.0403,2.18261,0.3086,1.55842,0.46183,1.64861,0.57652,1.6908,2.15014,0.0622,2.31964,0.34534,2.85168,1.45302,2.73016,0.52766-0.0579,1.45383-0.12064,2.05813-0.13946,0.92974-0.0289,1.09372-0.21052,1.06622-1.18057-0.0403-1.42121,0.79646-3.0658,1.44588-2.84176,0.26629,0.0919,1.01444,0.0168,1.66257-0.1667,1.31521-0.37245,2.71181,0.16839,2.71181,1.05017,0,0.30864,0.55282,0.75438,1.22849,0.99051,0.92087,0.32182,1.2285,0.68498,1.2285,1.45027,0,1.70356-0.73002,3.12702-1.60369,3.12702-1.32391,0-1.47658,0.88027-0.30149,1.73841,0.74611,0.54487,1.08618,1.16808,1.08618,1.99055,0,0.76971,0.21108,1.19733,0.59102,1.19733,0.54886,0,1.86596,1.48031,1.86596,2.09719,0,1.41147-9.15978,2.34047-9.67986,0.98174-0.29313-0.7658-1.37657-0.81504-1.37657-0.0626,0,0.41675-1.18038,0.62081-4.78499,0.8272-2.66278,0.15246-4.94645,0.11212-5.14903-0.091-0.21236-0.2129-0.18036-1.36093,0.0768-2.75562,0.24246-1.31487,0.2877-2.5442,0.10052-2.73185-0.18717-0.18764-2.97804-0.28972-6.20192-0.22683-4.73081,0.0923-5.91706,0.23313-6.14906,0.73012-0.15808,0.33868-0.50658,1.03895-0.77445,1.55617-0.59174,1.14259-0.3103,1.71946,0.70858,1.45234,0.97243-0.25493,2.10813,0.88094,2.10813,2.10845,0,0.9276-0.80628,1.54552-1.77386,1.35942-0.2631-0.0506-3.56496-0.14743-7.33746-0.21518zm-4.47618-1.58607c0.23484,0.14551,0.52978,0.0978,0.65542-0.10599,0.25151-0.40798-1.21479-0.9236-1.58137-0.55609-0.12566,0.12597-0.22565,0.52153-0.2222,0.87903,0.005,0.52899,0.0728,0.54468,0.36372,0.0843,0.19659-0.31116,0.54958-0.4467,0.78443-0.3012zm6.21655-1.19701c0-1.08021,0.14127-1.34538,0.61889-1.16164,0.44284,0.17036,0.54687,0.0499,0.36567-0.42341-0.13926-0.36383-0.0627-0.6615,0.17009-0.6615,0.2328,0,0.50755,0.32329,0.61055,0.71842s0.21147,0.0718,0.24105-0.71842c0.0422-1.12884,0.14595-1.30484,0.48383-0.82105,0.33989,0.48669,0.37774,0.42852,0.18053-0.27742-0.16025-0.57361-0.0309-1.0159,0.36161-1.23609,0.48098-0.26983,0.53521-0.68043,0.25463-1.92764-0.1961-0.87162-0.26087-1.83471-0.14393-2.14019,0.11693-0.30549-0.0834-0.85217-0.44519-1.21486-0.69294-0.69469-0.49331-1.61923,0.25016-1.15858,0.24994,0.15485,0.35297,0.027,0.24266-0.3012-0.1054-0.31366-0.54393-0.58169-0.97449-0.5956-0.43055-0.0139-1.05923-0.13475-1.39707-0.26851-1.58668-0.62823-2.02584-0.6136-3.20766,0.10691-0.6969,0.42487-1.37182,0.60262-1.49982,0.395-0.12801-0.20762-0.47627-0.28381-0.77394-0.16929-0.38847,0.14944-0.22278,0.54996,0.5869,1.4189,0.62047,0.66589,1.30805,1.2107,1.52794,1.2107,0.2199,0,0.6274,0.27492,0.90557,0.61093,0.41196,0.49763,0.37146,0.66259-0.21839,0.88951-0.48383,0.18614-0.96257-0.0166-1.44263-0.61093-0.39517-0.48923-0.89957-0.88951-1.12089-0.88951-0.56351,0-0.94596,1.15436-0.47843,1.44403,0.56656,0.35104,0.34473,2.34476-0.35318,3.17437-0.53789,0.6394-0.52896,0.71842,0.0811,0.71842,0.53918,0,0.62886,0.24099,0.42011,1.12895-0.21824,0.92827-0.16868,1.03772,0.27883,0.61578,0.84825-0.79975,1.07267-0.61597,0.87732,0.71842-0.10823,0.73928,0.002,1.23158,0.27567,1.23158,0.25079,0,0.45598-0.26621,0.45598-0.59156,0-0.32536,0.2133-0.72372,0.474-0.88525,0.33078-0.20494,0.3988,0.005,0.22511,0.69419-0.24091,0.95627-0.22943,0.96178,0.35891,0.17192,0.58028-0.77903,0.60354-0.75991,0.51369,0.42226-0.0518,0.68104,0.0469,1.46689,0.21913,1.74635,0.5166,0.83797,1.07565,0.12907,1.07565-1.36399zm-1.97028-3.90464c-1.15757-1.08114-1.1302-1.2901,0.12752-0.97363,1.09331,0.27509,1.33711-0.17412,0.53236-0.98089-0.3822-0.38316-0.18906-0.49264,0.86913-0.49264,1.19976,0,1.29639,0.0775,0.8177,0.65573-0.47397,0.57253-0.42023,0.63763,0.42366,0.51315,1.47111-0.21699,1.45613,0.71922-0.0233,1.45912-1.65306,0.82673-1.6694,0.82565-2.74704-0.18084zm2.46276-4.02915c-0.73972-0.47041,0.48201-1.47724,1.37547-1.13352,0.57822,0.22244,0.58203,0.31803,0.0345,0.86698-0.71128,0.71306-0.70859,0.71255-1.40993,0.26654zm2.92418,8.9352c0.7153-0.83751,0.71031-0.85069-0.21612-0.57173-0.52157,0.15706-1.21815,0.54284-1.54793,0.85729-0.52278,0.49846-0.49508,0.57173,0.21611,0.57173,0.44867,0,1.14523-0.38578,1.54794-0.85729zm-30.1545-1.19533c0.284862-0.56448,0.520649-0.7954,0.523969-0.51316,0.0088,0.74617,1.12929,0.62878,1.57224-0.16471,0.285019-0.51058,0.735104-0.61985,1.82373-0.44274,1.21815,0.19817,1.47975,0.10315,1.66435-0.60452,0.179829-0.68939,0.425044-0.78899,1.37023-0.55656,1.22016,0.30005,2.71186,1.46063,1.87737,1.46063-0.260193,0-0.586969-0.18473-0.726172-0.41052-0.139194-0.22579-0.610753-0.41053-1.04791-0.41053-0.576423,0-0.794832,0.28417-0.794832,1.03414,0,1.04717-0.420352,1.10516-2.76411,0.3813-0.966484-0.2985-0.505237,0.43204,0.59671,0.94508,1.13905,0.53032,4.49476,0.69479,5.58878,0.27392,0.353725-0.13607,0.530332-0.53437,0.409566-0.92368-0.187939-0.60583-0.144507-0.60193,0.378122,0.034,0.867809,1.05589,1.18247,0.88152,1.03797-0.5752-0.203449-2.05098-1.71945-2.89461-5.52108-3.07236-1.76368-0.0825-3.4387-0.23712-3.72228-0.34368-0.28358-0.10655-0.928539,0.4514-1.43324,1.23991-1.11006,1.73428-2.01548,2.03291-6.16353,2.03291h-3.19839l1.03169,0.88947c0.873966,0.75348,1.4863,0.87901,4.00529,0.82105,2.72817-0.0628,3.01635-0.15313,3.49153-1.09473zm46.4743-0.41053c0.20069,0,0.31073,0.32329,0.24455,0.71842-0.0949,0.56676,0.18222,0.72363,1.31292,0.74312,1.87282,0.0323,2.86647-0.22569,2.86647-0.74417,0-0.26297-0.72201-0.31923-1.94324-0.15143l-1.94325,0.26702,1.53375-1.26741c1.95106-1.61227,1.95054-2.12869-0.002-1.83455-1.42977,0.21541-1.46505,0.19692-0.51187-0.26819l1.02374-0.49954-1.35761-0.15174c-1.96999-0.22019-2.54447,0.45378-2.43994,2.86247,0.0712,1.6414,0.16309,1.87258,0.47001,1.18303,0.2098-0.47137,0.54566-0.85703,0.74633-0.85703zm16.2591,0.55981c1.28505-1.28421,0.8954-1.5908-1.31321-1.03328-1.21323,0.30626-2.24531,0.32333-3.18659,0.0527-1.92706-0.55406-2.01184-0.52912-2.01184,0.59182,0,1.1966,0.36757,1.3494,3.27598,1.36187,1.83661,0.008,2.43372-0.17171,3.23566-0.97311zm-9.99236-0.14928c-0.13921-0.22579-0.51863-0.41053-0.84317-0.41053s-0.59008,0.18474-0.59008,0.41053c0,0.22578,0.37942,0.41052,0.84316,0.41052s0.72927-0.18474,0.59009-0.41052zm2.79-0.97457c0.11876-0.31023-0.26778-1.24557-0.85897-2.07855-0.81052-1.14198-1.28088-1.459-1.91246-1.28891-0.46067,0.12406-1.26135,0.22809-1.7793,0.23117-0.77072,0.005-0.86996,0.13413-0.54659,0.71343,0.25065,0.44902,0.25283,0.97436,0.006,1.43683-0.32925,0.61678-0.21357,0.72999,0.75136,0.7353,0.62729,0.003,1.41694,0.18537,1.75478,0.40424,0.89881,0.58232,2.33628,0.49696,2.58525-0.15351zm-57.4617-0.8683c0.325748-0.39349,0.40726-1.13922,0.228772-2.09303-0.187895-1.00408-0.136853-1.39474,0.158331-1.21185,0.239589,0.14845,0.435616,0.81321,0.435616,1.47725s0.184276,1.20735,0.409503,1.20735c0.537231,0,0.52724-2.29657-0.01441-3.31119-0.528683-0.99033-0.05967-1.04305,0.672859-0.0756,0.497793,0.6574,0.5451,0.62951,0.557017-0.32842,0.0072-0.57576-0.208105-1.26852-0.478374-1.53947-0.382196-0.38315-0.3367-0.49263,0.20475-0.49263,0.779916,0,0.863148-0.33122,0.305376-1.21525-0.32422-0.51386-0.49656-0.4921-1.20697,0.15242-0.557186,0.50551-1.06857,0.64464-1.56062,0.42461-0.652747-0.2919-0.63226-0.34476,0.189498-0.48887,0.681131-0.11945,0.921367-0.44315,0.921367-1.24145,0-0.78535-0.122848-0.95671-0.450446-0.62829s-0.66264,0.23885-1.22849-0.32842c-0.93458-0.93692-2.12832-1.00641-2.82533-0.16446-0.439906,0.53139-0.334801,0.5805,0.768857,0.35921,1.31085-0.26283,1.54764,0.0157,0.893869,1.05148-0.303022,0.48008-0.488084,0.49283-0.997821,0.0687-0.799394-0.6651-2.34306-0.21384-2.03364,0.59449,0.125217,0.32713,0.521217,0.59477,0.879999,0.59477,0.507369,0,0.543134,0.10948,0.160937,0.49263-0.724576,0.72639-0.598313,1.10064,0.292539,0.86709,1.04931-0.27509,1.91135,1.21515,1.09555,1.89391-0.308165,0.25639-0.65323,0.96855-0.766811,1.58257-0.202028,1.09214-0.193663,1.09729,0.385016,0.23664,0.385222-0.57294,0.869901-0.8068,1.38966-0.67055,0.819247,0.21478,1.12054,0.93453,0.391196,0.93453-0.223811,0-0.32964,0.41566-0.235179,0.92368,0.09447,0.50803,0.185442,1.06223,0.20218,1.23158,0.05031,0.50897,0.715863,0.34809,1.2552-0.3034zm61.1722-1.46611c-0.17715-1.11061-0.10748-1.61732,0.22241-1.61732,0.33087,0,0.39325-0.4657,0.20041-1.49618-0.20659-1.104-0.15266-1.41729,0.2058-1.1952,0.26719,0.16555,0.77414,0.19006,1.12655,0.0545,0.48208-0.18546,0.52881-0.38171,0.18869-0.79257-0.54176-0.65442-0.19608-1.11687,0.60461-0.80884,0.38065,0.14643,0.57421-0.0707,0.57421-0.64407,0-0.96386-0.47017-1.08102-1.69691-0.42284-0.45324,0.24318-1.13095,0.32408-1.50603,0.17979-0.59102-0.22737-0.55094-0.36141,0.30067-1.00539,0.65484-0.49518,0.8936-0.97559,0.71578-1.44016-0.3819-0.99773-2.11324-0.68084-2.11324,0.38679,0,0.45158-0.23034,1.06516-0.51186,1.36353-0.28154,0.29836-0.51188,0.79394-0.51188,1.10128,0,0.30733-0.35314,0.67116-0.78477,0.80849-1.00778,0.32067-1.92038,2.6793-1.03667,2.6793,0.32612,0,0.59295,0.28801,0.59295,0.64002s0.18427,0.52584,0.40949,0.3863c0.24731-0.15323,0.40949,0.40626,0.40949,1.4126,0,2.09628,0.79923,2.21218,0.87476,0.12686,0.0386-1.06446,0.10701-1.22279,0.22181-0.51315,0.23474,1.4512,1.0107,2.88509,1.42303,2.62962,0.19176-0.11881,0.23259-0.94382,0.0907-1.83335zm1.89419,1.28993c0-0.71034-0.49706-1.67568-0.86281-1.67568-0.42436,0-0.49597,1.37464-0.0927,1.77894,0.39531,0.39631,0.9555,0.33577,0.9555-0.10326zm-65.2722-1.5645c-0.136075-0.13641-0.23286,0.10606-0.215076,0.53882,0.01965,0.47824,0.116683,0.57551,0.247404,0.24803,0.118291-0.29636,0.103742-0.65043-0.03233-0.78685zm65.8865-0.5217c-0.13919-0.22579-0.43735-0.41052-0.66258-0.41052-0.22522,0-0.2956,0.18473-0.15642,0.41052,0.13921,0.22579,0.43737,0.41052,0.66258,0.41052,0.22522,0,0.29563-0.18473,0.15642-0.41052zm-41.1567-0.81989c0.98963-0.53097,1.02581-1.10585,0.17691-2.81176l-0.64424-1.29465h-6.72671-6.72673v2.03117,2.03117l2.14987,0.12408c6.12626,0.3536,11.0248,0.3203,11.7709-0.08zm27.1314,0.0465c0.56647-0.0377,0.71663-0.4254,0.71663-1.85016,0-1.72958-0.0538-1.80841-1.33088-1.94999-0.73197-0.0811-4.64266-0.14755-8.69041-0.14755h-7.35955l-0.39322,1.11652c-0.52703,1.49645,0.54601,2.69514,2.56371,2.86391,1.3373,0.11186,12.7074,0.0862,14.4937-0.0327zm-27.2045-5.89668c0.0922-0.80327,0.42186-1.20151,1.1452-1.38351,0.55863-0.14056,1.12837-0.14261,1.26608-0.005,0.29748,0.29823,1.34947-0.50448,1.34947-1.02968,0-0.2059-4.65982-0.35473-10.6442-0.33997-10.6342,0.0262-10.6444,0.0271-10.812,0.92965-0.370588,1.9949-0.198896,2.69954,0.701573,2.87935,0.491725,0.0982,4.48739,0.15561,8.87925,0.1276l7.98521-0.0509,0.12947-1.12794zm21.9177,0.74108c0.12466-0.32566,0.1192-1.25595-0.0122-2.06731l-0.2388-1.4752-7.315,0.0485c-4.13075,0.0274-7.31499,0.21248-7.31499,0.42521,0,0.20719,0.51596,0.37671,1.14659,0.37671,1.38095,0,2.12939,0.66615,2.12939,1.89526,0,0.50049,0.23034,1.00317,0.51188,1.11705,0.28152,0.11389,2.84165,0.22165,5.68915,0.23948,4.15381,0.026,5.2221-0.0846,5.40393-0.55971zm7.64144-1.46051c0-1.75508-0.11472-2.05262-0.7914-2.05262-0.96191,0-1.41075,1.23317-1.04932,2.8829,0.18373,0.83861,0.51469,1.22235,1.05426,1.22235,0.67075,0,0.78646-0.30199,0.78646-2.05263zm-11.9778-3.00285c0.59438-0.38296,0.69468-2.9933,0.12848-3.34411-0.33955-0.21038-16.2512-0.36224-27.1553-0.25917l-3.99261,0.0377v1.6217c0,1.04236,0.228203,1.74973,0.638796,1.98008,0.799422,0.44851,29.6818,0.41405,30.3807-0.0362zm7.39452-1.85272c0.0959-1.30421-0.0205-1.71282-0.48771-1.71282-0.89098,0-1.07164,0.50186-0.79526,2.20923,0.32262,1.99309,1.12271,1.68352,1.28297-0.49641zm-14.4553-2.79712c0.50949-0.196,0.61119-1.42305,0.61119-7.37538v-7.14026h-8.80421-8.8042v7.14997c0,5.34256,0.129386,7.19914,0.511878,7.34446,0.74033,0.28129,15.759,0.30062,16.4853,0.0212zm7.89839-7.43917,0.12098-7.07646-1.05184,0-1.05185,0,0.0394,6.94052c0.0217,3.81729,0.15518,7.05656,0.29664,7.19837,0.14146,0.14182,0.5426,0.20299,0.89142,0.13594,0.5377-0.10336,0.65263-1.19882,0.75521-7.19837zm-6.2208-6.55476c-0.41626-0.417308-0.75972,0.21096-0.41819,0.764962,0.258,0.418494,0.35445,0.418821,0.49316,0.0017,0.0948-0.285227,0.0611-0.630203-0.075-0.766619zm8.67855-2.59576c0.2669-2.29667-0.14459-2.36873-14.2494-2.49544-7.09455-0.06374-13.3044,0.0241-13.7996,0.195179-1.02659,0.354643-1.52644,1.53393-1.15177,2.71736,0.248012,0.783355,0.663579,0.803715,14.6671,0.718415l14.4119-0.08778,0.12176-1.04774zm-13.126-12.0874c0.0561-4.80147-0.0679-8.8849-0.27975-9.21663-0.48241-0.755326-7.68491-1.15484-8.9156-0.494548-0.78041,0.418709-0.81952,0.866016-0.83074,9.50068l-0.0118,9.06128,4.9686-0.114887,4.96862-0.114879,0.10065-8.62102zm6.15202-0.513156,0.11021-9.13417-0.98718,0c-0.68263,0-1.05812,0.284963-1.21709,0.923677-0.12646,0.508028-0.23493,4.67651-0.24105,9.26329l-0.0111,8.33961,1.11802-0.129119,1.11802-0.129115,0.11021-9.13418zm-5.36723-7.18418c-0.1136-0.282235-0.20653-0.05131-0.20653,0.513156,0,0.56447,0.0929,0.795392,0.20653,0.513157,0.1136-0.282235,0.1136-0.744078,0-1.02631zm7.02193-4.07763c0.085-0.737699-0.1178-1.22871-0.61424-1.48712-1.02734-0.534752-16.094-0.627506-17.4584-0.107482-1.33458,0.508681-1.40725,1.40446-0.18366,2.26366,0.76882,0.539851,2.2662,0.624214,9.52083,0.536433l8.60853-0.104164,0.12692-1.10133zm-2.06258-9.88548,0.11182-7.28154-1.03319,0-1.0332,0,0,7.11576c0,3.91367,0.12923,7.2453,0.28716,7.40363,0.15794,0.158335,0.57255,0.232933,0.92137,0.16578,0.53909-0.103783,0.65099-1.21416,0.74604-7.40363zm1.52047-8.77131c0.36687-0.367794,0.56431-0.937111,0.43874-1.26515-0.12556-0.328034-0.22829-0.673686-0.22829-0.768116,0-0.09442-4.2186-0.171683-9.37465-0.171683-7.66655,0-9.41479,0.104924-9.59507,0.575879-0.25038,0.654133,0.447,1.68531,1.36131,2.01289,0.33783,0.121042,4.24049,0.234662,8.67257,0.252486,6.929,0.02787,8.15183-0.06131,8.72539-0.636309zm-15.3505-3.3681c0-1.19158,0.49966-1.379,0.99676-0.373882,0.34896,0.705563,0.87365,0.951428,2.24103,1.05016,1.7004,0.122776,1.77128,0.08368,1.48853-0.821051-0.16329-0.522474-0.54228-1.81315-0.84224-2.86818-0.7461-2.6243-1.27792-3.52107-2.27652-3.83881-1.09427-0.348179-1.40072-0.01113-1.41176,1.55273-0.0104,1.46949-0.82168,1.97155-1.209,0.748146-0.47012-1.48491-3.49129-3.31722-3.49129-2.11743,0,0.208466,0.45369,0.919543,1.00819,1.58017,0.55447,0.660628,1.20685,2.08999,1.4497,3.17635,0.24284,1.08636,0.53714,2.13028,0.65399,2.31982,0.39552,0.641563,1.39261,0.349424,1.39261-0.408022zm11.1266,0.07321c0.41187-0.373676,0.77066-0.974068,0.7973-1.33421,0.0267-0.36013,0.16667-0.10058,0.31116,0.576784,0.20511,0.96162,0.4826,1.23158,1.26592,1.23158,0.86277,0,1.12023-0.349026,1.83873-2.49254,0.45951-1.3709,1.16439-2.99066,1.56638-3.59948,0.64469-0.976407,0.65639-1.13561,0.0992-1.34995-0.78176-0.300745-2.43933,0.750462-3.32849,2.11087-1.00566,1.53869-1.53653,1.27144-1.23459-0.621504,0.22999-1.44182,0.16501-1.6421-0.53266-1.6421-1.04727,0-2.02922,1.02349-2.29224,2.38922-0.11653,0.605132-0.39321,1.88802-0.61486,2.85086-0.22163,0.962842-0.40297,1.9327-0.40297,2.15525,0,0.651226,1.71157,0.465123,2.52712-0.274781zm-2.7988-1.27058c0.3126-0.620917,0.66772-1.86788,0.78916-2.77104,0.12145-0.903152,0.35603-1.97895,0.52128-2.39066,0.26048-0.649035,0.11611-0.730912-1.08578-0.615788l-1.38622,0.132779-0.1225,2.83294c-0.17224,3.98367,0.23983,4.886,1.28406,2.81177zm11.3566-6.9107c0.39051-0.471717,0.42018-0.837957,0.10807-1.3342-0.38376-0.610175-1.79038-0.695735-13.031-0.79265-8.95617-0.07722-12.7631,0.02637-13.1618,0.358159-0.701412,0.583571-0.730895,1.87124-0.04918,2.14701,0.281516,0.113884,6.15572,0.221649,13.0538,0.239473,10.9697,0.02835,12.6094-0.0491,13.0802-0.61779zm-21.8753-3.26185c0.21012-0.548926,0.30401-0.54054,0.74693,0.0667,0.63181,0.866222,1.85353,0.469714,1.85353-0.601561,0-0.888692-1.88678-2.94254-2.70318-2.94254-0.74314,0-1.39181,1.32672-1.39181,2.84669,0,1.35228,1.0489,1.79493,1.49453,0.63071zm5.83244-0.09057c0.38273-0.676916,0.43946-0.673292,0.98196,0.06272,0.6916,0.938272,1.51902,0.549339,1.51902-0.71402,0-1.37435-1.16633-2.80291-2.16867-2.65625-1.00377,0.146863-2.52593,2.52662-2.18529,3.41652,0.31762,0.829786,1.35675,0.76868,1.85298-0.10897zm4.71973,0.469235c0.35626-0.137053,0.64773-0.49562,0.64773-0.796821,0-0.301202,0.15186-0.641725,0.33745-0.756715,0.18561-0.114995,0.3238,0.197392,0.30713,0.694189-0.0234,0.697912,0.20242,0.903269,0.99342,0.903269,0.91747,0,1.01258-0.14917,0.91629-1.43683-0.10608-1.41858-1.28662-2.87367-2.33143-2.87367-1.12293,0-2.67509,3.11658-2.05395,4.12412,0.28446,0.461418,0.33761,0.467819,1.18336,0.14246zm6.99931-0.674498c0.57549-0.799342,0.64753-0.818891,0.53508-0.145218-0.0715,0.428152,0.12788,0.868382,0.44298,0.978288,0.45953,0.160283,0.51736-0.148538,0.29217-1.56035-0.34727-2.1771-0.5133-2.45429-1.47011-2.45429-0.90826,0-2.64716,2.62988-2.31414,3.49988,0.34748,0.907807,1.75999,0.72896,2.51402-0.318318zm-14.421-2.87367,0.17746-0.923677,0.0558,0.923677c0.0722,1.19644,0.60128,1.17673,1.25442-0.04673,0.43066-0.80672,0.4078-1.18414-0.13554-2.23748-1.26785-2.45789-2.90549-2.45859-4.1728-0.0018-0.54718,1.06083-0.56557,1.33694-0.1066,1.60182,0.30501,0.176029,0.9231,0.60393,1.37355,0.950891,1.10896,0.854181,1.34622,0.813453,1.55375-0.266732zm11.7063-0.41052c0.29625-1.02854,0.39274-1.12259,0.42121-0.410526,0.044,1.09991,0.17188,1.12295,1.4766,0.26593,0.85657-0.562661,0.93395-0.783996,0.53516-1.531-1.11224-2.08344-2.48749-2.62233-3.60988-1.41456-0.98559,1.06056-1.04933,2.27409-0.18446,3.51196,0.82796,1.18504,0.90549,1.16102,1.36137-0.421809zm-5.97762-0.615788,0.17059-1.12894,0.0614,1.1384c0.0602,1.11771,0.08,1.12618,1.0851,0.465942,1.24536-0.818044,1.28023-1.37198,0.17502-2.78056-1.0321-1.31538-1.86777-1.36607-3.11749-0.189069-1.19632,1.12671-1.20517,2.11144-0.0264,2.93577,1.27868,0.894193,1.45719,0.846482,1.65182-0.44155zm-3.35137-2.8979c0.0262-0.444812,0.13715-0.350898,0.30894,0.261423,0.26611,0.948454,0.27536,0.945802,1.23341-0.353277l0.96529-1.30889-0.83552-0.837602c-0.74165-0.743519-0.97525-0.77957-2.07964-0.320975-2.04258,0.848184-2.36187,1.52239-1.27186,2.68556,0.9956,1.06243,1.61222,1.01608,1.67938-0.126243zm8.19038-0.255461,1.18323-0.998106-1.07696-0.849254c-1.45783-1.14961-3.65367-1.13119-4.2767,0.03589-0.4032,0.755286-0.33022,0.994365,0.49747,1.6296,0.89998,0.690726,1.00694,0.695251,1.48186,0.0627,0.46067-0.613553,0.51187-0.591769,0.51187,0.21776,0,1.14212,0.22402,1.12897,1.67923-0.09859zm-4.52571-3.4475c-0.4942-0.0743-1.18665-0.02427-1.53877,0.111191-0.56244,0.216372-0.54754,0.348918,0.1226,1.09129l0.76281,0.844998,0.77596-0.95619c0.76782-0.946147,0.76654-0.957615-0.1226-1.09129zm0.69354-2.84121c-0.0573-1.12482,0.074-1.92184,0.31021-1.88346,0.22522,0.03659,1.10051,0.195703,1.9451,0.353581,1.50755,0.281801,1.53563,0.263636,1.53563-0.9938v-1.28085l-2.25403,0.26558-2.25406,0.265584,0.62399-1.77298c0.66814-1.89845,0.39762-2.62489-0.884-2.37382-0.64138,0.125648-0.73755,0.461942-0.61567,2.1527l0.14445,2.0038-1.88482-0.258991c-1.79769-0.247016-1.88481-0.212479-1.88481,0.747192,0,0.905083,0.1543,0.997107,1.53561,0.915829l1.53561-0.09036,0.12482,1.94999c0.11257,1.7588,0.22268,1.95,1.12303,1.95,0.9318,0,0.99161-0.129759,0.89894-1.95zm-9.61922,35.4078c-0.005-0.903152,0.0756-1.32097,0.1781-0.928466,0.10249,0.392499,0.1062,1.13144,0.008,1.6421-0.0979,0.510657-0.18181,0.189521-0.18635-0.713631z"/>
</g>
</g>
<g id="lion">
<g fill="#5ab532" stroke="#000" stroke-width="0.43">
<path d="m90.6399,169.86c-0.433544-1.17479-0.830096-2.37794-0.506876-3.74239l0.933256,0.43181c-0.700218-1.05429-0.953798-2.46276-0.696864-3.70895,0.286333,0.15552,0.861696,0.68492,1.41475,0.97413-0.655903-1.43938-0.309382-2.87875-0.358945-4.31813l-0.215366-0.9356,0.738915-0.0211c-1.16308-1.37057-0.925296-3.53158-2.22546-4.53404l0.696863-0.91452c0.152132-0.28788-0.04396-0.57575-0.143577-0.86363-0.351483-0.83061-1.04719-1.02194-1.65115-1.34633l-0.789678,0.33877-0.933256,0.93559c-1.6852-0.39161-2.39221-0.36294-3.15871-0.35984l-0.933256,0.50378-0.502522,0.64772-0.143578,0.64772-2.22546,1.07954c-0.08339,0.22778-0.233606,0.47789,0.07179,0.57575,0.248574,0.11206,0.487758,0.23668,0.595339,0.53721-0.136658,0.30072-0.218567,0.60144-0.164604,0.90217,0.03578,0.32423,0.06796,0.64937,0.290235,0.92686,2.54524-0.6431,1.69947-0.91309,2.67106-0.94486,0.555254,0.023,0.757319,0.0706,1.00505,0.35985l0.146657,0.57266c-0.413813-0.0636-0.827626-0.02-1.24144-0.26679-0.769385-0.0663-1.35622,0.29269-1.9383,0.64772-2.43221,1.52608-7.38287-0.0346-2.94027-2.20251-3.13476-0.21268-4.87282,4.0489-0.944298,4.47443,1.77269,0.13177,2.11143-0.44706,3.63458-0.97957,0.445907,0.11258,0.329652,0.8664,0.537143,0.89525,0.107403,0.27882,0.374247,0.41579,0.616363,0.55957,0.81473-0.0322,1.4642,0.0439,1.60909,0.34749,0.139819,0.22602,0.05624,0.34006-0.07179,0.43182-0.249904,0.41269-0.607224,0.71771-1.06016,0.92686-0.523549,0.0912-1.0471,0.0205-1.57065-0.0167-0.927536-0.54328-1.33332-1.08656-1.73164-1.62984-0.02595,0.62987-0.01694,1.40281,0.219722,1.76941-0.826462-0.0152-1.58947,0.19232-2.28057,0.65209-1.35539,0.81951-2.69136,2.10402-3.85558,3.24297-0.895172,0.42306-1.76265,0.97107-2.7867,0.81273-1.82835-0.91779-0.867952-1.90398-0.574312-2.51891-0.671677,0.037-0.947125,0.63676-1.21606,1.41393-0.0433,0.65774-0.03019,1.22548,0.329208,1.81594,0.747516,0.67072,1.24237,0.63346,1.72294,0.72406,1.16089-0.0528,2.22994-0.2437,3.25588-0.49942-0.732066,0.42026-0.969482,0.64466-1.03478,0.93123,2.57998,0.40181,3.59038-0.52589,5.38417-0.79166-0.373679,0.53961-0.963089,1.11012-0.90352,1.58768,3.01914,0.16496,5.35308-1.24171,6.31307-1.4859-0.394555,0.42875-0.759881,0.85016-0.358945,1.07954,1.3077,0.0276,2.95798-1.13236,3.311-1.46483,1.09333,0.5099,2.23728,1.33224,3.66124,1.79923z"/>
<path d="m76.9808,162.792c-2.22556-1.5882-3.74424-3.50989-4.34323-5.86547,0.119649-0.36052,0.358944-0.64703,0.717889-0.86362l0.03589-0.50379c-0.293995-0.18506-0.542317-0.41591-0.6461-0.79166-0.122336-0.5744-0.488978-1.02634-0.789678-1.51134-0.396099-0.37027-0.774572-0.35482-1.07683-0.39583,0.08674,0.58774-0.0069,1.17549-0.107683,1.76324-0.108256,0.49102-0.286587,0.88838-0.538418,1.18748l0.610206,0.86363,0.08974,0.39583-0.897362-0.036c-0.187931-0.12233-0.156119-0.29973-0.161525-0.4678l0.179472-0.68371c-0.0014-0.29318-0.208974-0.48299-0.394839-0.6837l-0.574311-0.036c-0.5648-0.84184-1.45856-0.63937-2.29725-0.61173-0.06668,0.12507-0.185538,0.19783-0.07179,0.50378l0.789678,0.79166,0.03589,1.22347c0.247279,0.23723,0.545233,0.43212,1.07683,0.43181,0.326856,0.58466,0.13637,0.71983-0.251262,0.68371-0.365626-0.0666-0.389061-0.40766-0.538416-0.64772-0.383741-0.15183-0.570962-0.14605-0.71789-0.10795l-0.574311,0.64772c-0.501556,0.0612-0.838501,0.16672-1.14862,0.46779,0.05602,0.36912,0.358222,0.42972,0.592259,0.57576,0.262959-0.005,0.484162,0.11519,0.699942,0.25189,0.08897,0.20729,0.248462,0.39723,0.430733,0.55776,0.422135-0.1327,0.821587-0.21991,1.14862-0.16193,0.30828,0.0982,0.349501,0.23766,0.0359,0.43181-0.645173-0.0235-0.827456,0.18498-1.00505,0.39583,0.09572,0.38383,0.09572,0.6957,0,0.9356-0.335014,0.65285-0.670029,0.94862-1.00504,1.33142,0.522857,0.0288,1.03235,0.0308,1.50757-0.036,0.240709-0.11712,0.487348-0.22234,0.681995-0.43182h0.717889c0.155543-0.21288,0.311085-0.47127,0.466628-0.82764,0.283729-0.0351,0.537803-0.16693,1.00504,0.39583-0.02927,0.58996-0.150469,1.1492-0.32305,1.69127,0.443713,0.13052,0.798826-0.13866,1.14862-0.43181,0.142387,0.65684,0.03419,1.08365-0.03589,1.65528,0.526452-0.32386,0.885397-0.43181,1.07684-0.32386l0.394838,1.69127c1.42164-0.81664,2.6353-2.54375,4.05607-3.45451z"/>
<path d="m88.9721,169.963c-0.510155-0.62023-1.17868-1.04199-1.87821-1.42491-1.45073,1.1789-3.17851,1.79497-4.91217,1.87983,0.236945-0.30528,0.635122-0.57488,0.687097-1.0656-1.73775,0.72789-3.69676,1.19444-5.91255,1.15556,0.06262-0.47497,0.308537-0.94994,0.558387-1.42491-1.24022,0.33684-2.51905,0.65684-4.8373,0.5238-1.11853,0.87738-2.24306,1.75112-4.67014,1.83203-0.214788-0.0535-0.111484-0.26642-0.05076-0.45801,0.306542-0.16157,0.507876-0.53408,0.722463-0.88003-0.209582-0.28576-0.429666-0.561-0.827067-0.65848-0.150229-0.48593-0.452833-0.97187-0.841935-1.45781-0.259794-0.16149-0.4478-0.0796-0.707594-0.054-0.01408,0.55875-0.04386,1.11751,0.0805,1.67627-0.34061,0.16787-0.620649,0.28357-0.725542,0.64049,0.239016,0.33767,0.487021,0.66857,0.913724,0.86512,0.04996,0.23542,0.142787,0.48803-0.0359,0.63176-0.389178,0.20145-0.778357,0.23316-1.16754,0.0509-0.02617-0.54754,0.357994-1.24026-0.406099-1.52669-0.934279-0.12968-1.80068-0.0552-2.63965,0.10178-0.184149,0.004-0.315062,0.11502-0.453325,0.21117-0.115499,0.13317-0.132669,0.26633-0.105062,0.3995,0.426588,0.0897,0.851512,0.18266,1.1378,0.55362,0.155212,0.39624,0.03768,0.60268,0.0056,0.952l0.437247,0.19904,0.602107-0.0253c0.551322,0.30533,0.291698,0.61067,0.05076,0.91601-0.507923-0.11874-0.848292-0.23748-1.16754-0.35623,0.07033,0.47137-0.03538,0.73096-0.20305,0.91602-0.575308,0.20186-1.15062,0.24085-1.72592,0.20356,0.116732,0.61422,0.794919,0.99391,1.47211,1.37402,0.427697,0.1597,0.727716,0.12741,0.964486,0,0.563439-0.0279,0.989624,0.0426,1.2183,0.25445,0.04736-0.3223,0.02818-0.64461,0.253812-0.96691,0.276541-0.15317,0.478339-0.0816,0.659912,0.0509,0.02833,0.5324-0.377276,0.81621-0.659912,1.17047,0.01489,0.39168,0.06514,0.75677,0.456862,0.86512-0.159798,0.60188-0.22801,1.17315-0.101525,1.67936,0.957775-0.15861,1.6553-0.69408,2.18278-1.4758,0.393271-0.28798,0.834181-0.54943,0.812199-1.06868-0.380313-0.17434-0.790375-0.34325-0.659912-0.61068,0.62395-0.65419,1.29312-0.86011,2.01255-0.70064,0.176964,0.63848-0.300793,0.83938-0.507624,1.22135,0.358296-0.0444,0.662446-0.12947,0.830146-0.31715,0.54926-0.64289,1.1354-1.22415,1.82745-1.62847,0.204146,0.0615,0.285919,0.20472,0.203052,0.458l-0.979355,0.92475c0.593403,0.1817,1.03405-0.1864,1.53466-0.46982,0.676901-1.07714,1.25498-1.71744,1.64542-1.59558,0.319688,0.69386,1.14554,1.11449,2.08126,1.4758l-0.5765-1.249c0.458469-0.99666,1.95635-1.12498,2.94422-1.67936,0.444072,0.99278,1.31916,1.78915,2.28431,2.54448,1.72963,0.9447,4.67086,2.02436,4.87319,2.79894-2.85266,0.0579-5.45081-1.07486-8.17275-1.62847-2.21478-0.25748-2.94907,0.46305-3.50261,0.86512-0.975464,1.32497-0.921374,2.47792-1.37059,3.71496-0.423021,0.25804-0.846041,0.22594-1.26906,0.15266-1.07456-0.64526-1.03174-1.43737-0.925512-2.27204-0.706182,0.22773-1.15687,1.09726-1.11678,2.29004,0.06407,0.80361,0.54559,1.28531,1.23009,1.61048,0.992827,0.45046,1.93862,0.58268,2.74117-0.25445,0.606673,0.47432,1.04816,1.06692,1.31982,1.78114-0.166709,2.10882-2.52409,3.14721-3.14727,3.40961-0.211385-0.35623-0.05613-0.71246,0-1.06868-0.01321-0.42595-0.151109-0.78939-0.355337-1.11958l-0.964487-0.0509c-0.477683-0.84687-1.28325-0.44468-1.97974-0.45801,0.242403,0.33374,0.603646,0.56634,0.674779,1.07178-0.08625,0.5005-0.395385,0.62857-0.609149,0.91601,0.703722,0.68397,1.06592,1.0598,1.29317,1.31387,0.119633,0.45595-0.123315,0.40264-0.277918,0.44619-0.312156,0.23341-0.812043-0.47419-1.2183-0.71245-0.340469-0.0258-0.680938,0.12119-1.02141,0.38295-1.25482,0.0821-1.50112,0.89434-1.93768,1.56885,0.590075,0.0185,1.18437-0.0887,1.63927,0.11051,0.431572,0.39466,0.849087,0.7851,0.812199,1.03887,0.432942,0.0448,0.758814-0.15186,1.00038-0.53871,0.542458-0.0544,0.691507,0.0704,0.710674,0.25445-0.67743,0.33711-1.19878,0.684-1.11677,1.06869l0.456862,0.66156c-0.175558,0.49194-0.163335,0.98387-0.101525,1.47581,0.168681,0.45324,0.283163,0.41748,0.4061,0.458,0.549565-0.81215,0.733352-0.95204,1.01525-1.27224,0.950384-0.23455,1.10383-0.93003,0.812199-1.88292,0.246356-0.54591,0.684066-0.46837,1.11677-0.40712,0.04132,0.52689-0.03174,1.05378-0.229707,1.58067,0.237296,0.3086,0.362522,0.32233,0.695278,0.39169-0.08318,0.59721-0.170251,1.13842,0.07487,1.68862,1.04748-0.14244,1.01478-1.0068,1.42135-1.57758,0.31143-0.33085,0.339929-0.86671,0.316363-1.24552l-0.653753-1.04144c0.3784-0.80998,1.18431-0.9606,2.18278-0.81423-0.24065,0.42408-0.06943,0.84816-0.05076,1.27224,0.549748,0.48434,1.07172,1.10794,1.57364,1.83203,0.116328-0.34934,0.313525-0.63787,0.253812-1.11957-0.449953-0.54052-0.874413-1.07251-0.761437-1.42491,0.03426-0.8134,0.465198-0.83146,0.761436-1.11958-0.144591,0.52586-0.09219,1.05172,0,1.57758,0.023,0.42447,0.256951,0.73144,0.710675,0.91602,0.947333-0.25416,1.44691,0.0528,2.0305,0.25445-0.04912-0.42634-0.384219-0.78896-0.862962-1.11958-0.80416-0.28352-0.617484-0.7533-0.710675-1.17046-0.06367-0.58998,0.08765-0.67707,0.152287-0.96691,0.379213,0.37101,0.392136,1.03578,0.558388,1.57759,0.973436,0.53483,1.47042,0.59202,2.0305,0.71245,0.167372-0.13632,0.170406-0.32755,0.05076-0.55979-0.386533-0.28652-0.817621-0.46138-1.11677-0.9669-0.377395-0.57031-0.179602-0.82609-0.05076-1.11957,0.811115-0.28766,1.66824-0.53166,1.74079-1.0507,0.509721-0.6288,0.700336-1.4094,0.761436-2.23915-0.276401-0.86667-0.687077-1.47636-1.48698-1.34112,0.152528,0.54282,0.417494,1.08565,0.304575,1.62847,0.141796,0.7874-0.300279,0.93093-0.609149,1.22135,0.04257-0.32448,0.04579-0.63911-0.101524-0.91601-0.720053-1.11937-1.57738-2.20816-1.47211-3.51139,0.2852-0.71254,0.856517-0.75581,1.42135-0.81424l3.19495-0.09c1.00215-0.59209,1.87825-0.67867,2.79193-0.91601-1.00402,1.82512-2.24808,3.62017-2.53504,5.53516,0.05638,1.05175,0.212107,1.98398,0.507624,2.74804,0.534873,0.9003,0.297551,1.28452,0.304574,1.83203-0.471882,0.22396-1.23095-0.0703-1.92897-0.25444-0.16407,0.70335,0.547394,1.04528,1.16754,1.42491,1.0293-0.0209,1.2872-0.19653,1.6244-0.35623,0.626464-0.55111,0.751902-1.35336,0.812198-2.18826,1.57364,0.22355,3.07548,0.14085,4.64912,0.0298-0.05852,1.50973-1.40118,3.01946-2.28431,4.52919-0.311746,0.0769-0.561364,0.0707-0.588124-0.23337l0.152287-0.35623c0.06615-0.27419-0.03065-0.48303-0.203049-0.66156-1.0403-0.0835-2.06323-0.22801-3.19495,0.009-0.2217,0.21247-0.420017,0.42494-0.4061,0.6374,0.631502,0.31031,1.07321,0.62062,1.41827,0.93092,0.06852,0.28712,0.142155,0.56655,0.304574,0.71246l1.06601,0.15267c0.117219,0.28838,0.1751,0.57675,0.101524,0.86513-0.455717-0.003-0.859401-0.16338-1.26906-0.30534-0.235153,0.27951-0.564579,0.54448-0.203049,0.91601-0.474525,0.31816-0.613468,0.59426-0.710675,0.86513-0.141632,0.62801-0.09575,1.14324,0,1.62847,0.04532,0.35593,0.275209,0.43431,0.507626,0.5089,0.567947-0.65898,1.07209-1.22201,1.16754-1.17047,0.394422-0.44773,0.657563-0.30322,0.964487-0.35623,0.161317-0.4978,0.182685-1.22009,0.558386-1.37402,0.199228,0.0246,0.43618-0.0264,0.4061,0.45801-0.41219,0.33926-0.465945,0.67853-0.60915,1.01779,0.554211,0.42927,0.94202,0.84001,1.06601,1.22136,0.699402,0.49196,1.32237,0.75405,1.87821,0.81423-0.163491-0.62573-0.216519-1.21454-0.507624-1.88292,0.39942-0.21924,0.313177-0.49933,0.355337-0.76334-0.07511-0.23962-0.155755-0.48081-0.558388-0.81424-0.231677,0.0757-0.257427-0.20994-0.304574-0.45801,0.494993-0.35976,0.753502-0.15054,1.01525,0.0509,0.132105,0.23074,0.163185,0.42773,0.152288,0.61068-0.165075,0.23749-0.06607,0.47497,0.05076,0.71246,0.350845,0.0644,0.747908-0.0102,0.964487,0.458-0.09877,0.67324-0.02366,1.11988,0.355337,1.17047,0.318789-0.15674,0.532518-0.47147,0.659912-0.91602,0.216257-0.86636,0.273876-1.78574,0.203049-2.74804-0.299985-0.28062-0.627639-0.50575-1.11677-0.40712-0.246496-0.28733-0.118748-0.52106,0.304575-0.71246,0.663956-0.11642,0.920854-0.46604,1.26906-0.76334,0.321495,0.2715,0.786569,1.23809,1.10806,1.06612,0.608851,0.0252,0.73296,0.55788,0.862961,0.61068l-0.04205-1.2188c-0.597202-0.44291-1.07378-0.96896-0.913723-1.93381l1.11677,1.17047c0.770409,0.0616,0.779561,0.6516,0.964486,1.11957,0.352266-0.12583,0.492519-0.50671,0.60915-0.91601-0.559277-0.78006-1.09007-1.56827-1.31982-2.44271-0.196791-0.80329,0.211777-0.72997,0.4061-0.96691,0.143454,0.95718,0.54556,1.60319,1.16754,1.9847,0.690288,0.20336,1.3277,0.2742,1.82745,0,0.793-0.81552,1.53286-1.661,1.57363-2.90071-1.18164,0.82639-2.5559,2.93422-3.24879,0.5089-0.107748-0.6367,0.08254-1.18802,0.304575-1.73025,0.06571-0.77053-0.03017-1.57346-0.20305-2.39182,0.449366,0.006,0.812281,0.27116,1.16754,0.55979,0.159953,0.36447,0.250227,0.7988,0.367131,1.20644,0.18171-0.54533,0.38505-1.08137,0.24202-1.76623-0.558928-1.12984-1.4141-1.6855-2.69041-1.42491-1.62691,0.35775-2.94914,0.94287-4.59836,1.42182-0.778535-0.55121-0.573228-1.57759-0.224075-2.69407,1.59579-0.15409,2.61548-0.91971,3.40108-1.93381,0.352791-1.14036,0.474405-2.38547,0.635806-3.81364-0.372041-1.27327-0.623474-2.54654-1.44801-3.81982-0.791592-1.72395-0.706233-2.80012-0.609149-3.86762,0.579152-2.47801,1.75644-4.2279,2.99498-5.90321,0.479517-1.0438,0.987778-2.06101,0.862961-3.66406-0.630406-1.39178-2.15316-3.59801-1.50493-3.92159,0.120801-0.57061,0.495645-0.3783,0.845014-0.35314,0.665152,0.009,1.031,0.49719,1.47211,0.86512,0.09576-0.57916-0.532642-1.35885-0.985512-2.16718-0.373091-0.55073-0.946326-0.81483-1.65413-0.8862-1.09647,0.18914-1.30784,1.04377-1.67516,1.78114-0.513178-0.31193-1.13258-0.47172-1.97973-0.30534-0.444255-0.0238-0.704652-0.47775-1.01525-0.81424-0.03729,0.77241,0.105924,1.51465,0.355337,2.23915,0.122949,0.48943,0.266887,0.96716,0.812199,1.22136l0.609149,0.20355c-0.219196,0.37371-0.676157,0.58851-0.507624,1.22136,0.394042,0.53658,0.700622,1.09822,0.761436,1.73025-0.0303,0.52941-0.238827,0.88015-0.456862,1.22135,0.506896,0.016,1.00095,0.016,1.31982-0.20356,0.399224-0.15818,0.542278-0.52181,0.710672-0.86512-0.05015-0.8312-0.214948-1.6624,0-2.4936,0.448895-0.0898,0.700248,0.11746,0.862963,0.45801,0.717285,1.46096,0.333812,2.40262,0.304573,3.51139-0.914792,2.27308-2.26494,4.54615-3.40108,6.81922-0.322086,0.96135-0.08649,1.82952,0.152287,2.69716,0.891019,1.70028,1.0767,2.9965,1.31982,4.32563,0.482366,1.24186,0.137163,2.41458,0.101526,3.61317,0.0067,0.43133-0.179533,0.72445-0.507624,0.91601-0.416909,0.31917-0.91165,0.53429-1.47211,0.66157-0.101256-0.62764-0.103191-1.25528-0.659912-1.88292-1.65289-2.06835-3.84345-4.17431-3.55337-6.10677-0.0033-0.92842-0.15509-1.90647,0.101525-2.74804z"/>
</g>
<g fill="#e20909" stroke="#000" stroke-width="0.2">
<path d="m83.5494,157.808-1.07683-0.072c-1.05212,0.54963-2.06757,1.08957-3.30229,1.18749-1.95972,0.0857-4.09134-1.14197-1.75883-2.7888-3.35794,1.3102-2.12114,4.16099,1.43578,3.74239,2.2994-0.96503,3.13491-1.37941,4.70218-2.06911z"/>
<path d="m71.13,154.947c0.39484-0.13271,0.789678-0.14317,1.18452-0.036v-0.34185c-0.269709-0.59299-0.633635-1.0443-1.09478-1.34942,0.03519,0.59207,0.06265,1.1822-0.08974,1.72726z"/>
<path d="m68.5994,155.271c-0.261499,0.32651-0.571391,0.41046-0.879414,0.50378-0.124573-0.34238-0.348042-0.63519-0.664047-0.88162,0.271837-0.062,0.549511-0.11526,0.915308-0.036,0.230229,0.0753,0.487935,0.0679,0.628153,0.41382z"/>
<path d="m66.5175,158.366c-0.111613,0.18791-0.162235,0.36359-0.03589,0.50378-0.233314,0.007-0.466628,0.0378-0.699942-0.23389,0.126805-0.23843,0.420282-0.26799,0.735837-0.26989z"/>
<path d="m67.6123,161.676c0.187433,0.21059,0.423129,0.38892,0.753783,0.50379-0.219407,0.14977-0.434303,0.31312-0.699942,0.32386-0.211151,0.0829-0.459228,0.0177-0.717889-0.09,0.344386-0.18423,0.507049-0.45954,0.664048-0.73769z"/>
<path d="m66.7128,168.284c-0.124118,0.34774-0.112471,0.69549,0.101525,1.04324,0.288982,0.14818,0.483215,0.0114,0.710674-0.0255-0.169532-0.38999-0.375367-0.76179-0.812199-1.01779z"/>
<path d="m62.3472,170.676c0.389179-0.2101,0.778358-0.36969,1.16754-0.17812,0.0085,0.25022,0.0032,0.49355-0.253812,0.61068-0.261396-0.31734-0.58597-0.38133-0.913724-0.43256z"/>
<path d="m61.6873,174.594c0.35657,0.31177,0.737597,0.58266,1.29444,0.55979,0.0022-0.21204,0.02174-0.42408-0.304575-0.63612l-0.989868,0.0763z"/>
<path d="m65.7229,177.088c0.01044,0.41659-0.166134,0.73944-0.279193,1.09413,0.534792-0.2345,1.03666-0.52402,1.37059-1.09413-0.363798,0.10522-0.727595,0.16346-1.09139,0z"/>
<path d="m68.8448,184.492c-0.07602,0.33415,0.205856,0.59654,0.456862,0.86512l0.456862-0.63612c-0.205354-0.24212-0.505341-0.32611-0.913724-0.229z"/>
<path d="m66.9666,188.182c-0.4781,0.0294-0.900844,0.22534-1.24368,0.66157,0.499878-0.007,0.921231,0.0917,1.2183,0.35623,0.102949-0.31558,0.188283-0.63558,0.02538-1.0178z"/>
<path d="m68.8194,192.05c-0.189178,0.44953-0.09866,0.89906-0.02538,1.34858,0.268375-0.2792,0.547867-0.54168,0.685293-1.01779-0.219971,0.0449-0.439942-0.10556-0.659912-0.33079z"/>
<path d="m72.6774,192.228c0.137748,0.0909,0.37869,0.0784,0.786818-0.10178-0.07225,0.52781-0.398498,0.92831-0.736055,1.32313-0.07285-0.40712-0.346792-0.81423-0.05076-1.22135z"/>
<path d="m86.8908,192.024c-0.610579-0.10465-1.09588,0.0419-1.57364,0.20356,0.621617,0.21204,0.751242,0.42408,0.989867,0.63612,0.416613-0.23538,0.49679-0.53821,0.583769-0.83968z"/>
<path d="m86.1294,196.35c-0.210831,0.56643-0.279673,1.1044-0.152287,1.60302,0.358094-0.29123,0.647175-0.61706,0.736055-1.04324-0.03341-0.18659-0.281965-0.37319-0.583768-0.55978z"/>
<path d="m89.7843,198.029c0.222268-0.30691,0.50536-0.4309,0.862961-0.33079,0.177672,0.43257,0.327427,0.8558,0.304575,1.22136-0.473341-0.12811-0.827558-0.49507-1.16754-0.89057z"/>
<path d="m92.7539,196.859,0.159141-0.22702c0.0905,0.00032,0.284159-0.20591,0.450008-0.25643,0.02681,0.48724-0.02701,0.92058-0.203049,1.27224-0.135367,0.0489-0.270733-0.46663-0.4061-0.78879z"/>
</g>
<g fill="#fff" stroke="#000" stroke-width="0.2">
<path d="m84.1955,158.276c-0.630523-0.0216-1.29673-0.0257-2.20751,0.4678,0.16179,0.14887,0.333488,0.38396,0.538418,0.35984h0.592258c0.671647-0.19751,0.978505-0.48644,1.07683-0.82764z"/>
<path d="m82.9314,154.213c0.175525-0.34764,1.61181-0.25487,1.59902-0.20356,0.423155,0.13904,0.455153,0.43494,0.533006,0.71245l0.05076,0.33079-0.177669-0.20356c-0.152303,0.14415-0.360623,0.1479-0.558387,0.17811l-0.228431,0.0255c-0.280229-0.20418-0.418211-0.48985-0.533006-0.78879-0.300546,0.001-0.472795-0.0299-0.685292-0.0509z"/>
</g>
<path fill="#fcef3c" stroke="#000" stroke-width="0.42" d="m82.6527,152.604c3.22375-0.52191,4.85683-0.19292,6.74097,0.002,0.114166-1.2531,0.665131-1.33777,1.1322-1.64686,1.00711-0.79103,1.94477-1.11527,2.88274-1.4416-1.22168-0.38298-2.25465-0.12246-2.9434,1.0813-0.457656,0.13407-0.879188,0.11787-1.2429-0.13888,1.83306-1.07378,1.16438-1.46151,1.38685-2.09362-1.51326,0.14646-2.34192,0.67184-2.2004,1.7342-0.59226,0.0835-1.16947,0.22221-1.87328-0.10307,1.65418-0.41986,1.26677-1.5033,0.853111-2.25565-2.70078,0.48333-1.95027,1.88926-1.43976,2.31373-0.538195,0.21138-1.05437,0.2181-1.75126,0.20613,0.419517-0.30547,0.725732-0.68558,0.65887-1.31146-0.267407-0.61199-0.792213-0.87927-1.57442-0.80182-0.435996,0.39034-0.888808,0.76881-0.598215,1.67175l1.08465,0.52494-1.34824,0.0271c-0.42364-1.69151-1.54196-1.35993-2.67718-0.97913,1.10298,0.28499,1.89597,0.68608,2.09005,1.31147,0.581081,0.65838,0.747179,1.28288,0.819617,1.89973z"/>
<path fill="#c8b80f" stroke="#cea301" stroke-width="0.19" d="m82.3309,151.425c1.39301-0.29284,2.78235-0.4379,4.16795-0.43184,1.15216,0.005,2.30172,0.11457,3.44865,0.33054"/>
</g>
<use xlink:href="#lion" x="58"/>
<use xlink:href="#lion" x="21.25" y="60.5"/>
<g id="horn" fill="#fff" stroke="#fff" stroke-width="0.6">
<path fill="#e20909" stroke-width="0.6" d="m184.307,242.871c10.2873,13.7987,19.5999,9.71134,26.1429-2.5626l1.51048,0.69889c-6.92413,20.5136-23.7928,20.6996-36.3677,8.15374l8.7143-6.29003z"/>
<path d="m184.026,242.476c1.02702,1.51587-0.16907,4.09782-2.67137,5.76658-2.5023,1.66875-5.36299,1.79221-6.38911,0.27574-1.02703-1.51588,0.16906-4.09783,2.67136-5.76658,2.50231-1.66876,5.363-1.79221,6.38912-0.27574z"/>
<path d="m183.462,242.847c0.89724,1.32828-0.1477,3.59072-2.33379,5.05296-2.18609,1.46225-4.68528,1.57043-5.58174,0.24162-0.89723-1.32829,0.14771-3.59072,2.3338-5.05297,2.18609-1.46224,4.68528-1.57042,5.58173-0.24161z"/>
<path d="m186.861,246.077c0.64522,1.25556,0.007,3.41312-1.59418,5.10323-1.50725,1.59119-3.53521,2.36098-4.83657,1.96789,0.0671,0.0931,0.78191,0.64019,1.07437,0.72572,1.27474,0.37282,3.17568-0.41518,4.64669-1.96811,1.50155-1.58516,2.17803-3.58215,1.67583-4.82622-0.10267-0.25433-0.78845-0.91988-0.96614-1.00251z"/>
<path  d="m205.075,247.803c-0.32957,0.32056-0.66325,0.62131-1.00096,0.9034,1.3011,0.35852,2.1257,1.19284,2.09896,2.88253,0.31926-0.36299,0.63356-0.74245,0.93995-1.13967-0.17784-1.22333-0.78447-2.15466-2.03795-2.64626z"/>
<path stroke-width="0.4" d="m195.479,225.051c-7.24651,2.15833-5.26972,9.11335-2.31246,12.9394,2.64932,3.42765,7.15374,7.69212,8.37365,9.02563l2.989,1.29533c0.13305-0.11933,0.26475-0.24152,0.3965-0.36692l-1.18396-1.48157-6.11941-6.13198-1.28655-1.35113c-2.42292-3.12458-5.43809-7.56096-3.24132-11.0435,0.47844-1.1315,4.50794-3.35365,6.85419,0,0.60174,1.57195,1.21071,3.1369,0.061,5.82622-0.85822,1.5075-1.79228,3.00542-3.61287,5.15611l1.25615,1.41228c2.88939-2.6745,6.46673-8.79425,3.19819-13.5009-1.50957-1.82442-4.02505-2.07616-5.37211-1.77899zm-0.50187,15.1354-5.18777,3.82207-2.30137,2.599c0.17547,0.17745,0.3493,0.35257,0.52405,0.51981l3.00009-1.09242c1.13996-0.94913,4.11714-3.40088,5.2571-4.3641l-1.2921-1.48436z"/>
<path stroke-width="1.2" d="m211.389,238.355-0.76251,2.03473,1.10355,0.51146,0.793-2.1209-1.13404-0.42529z"/>
</g>
<use xlink:href="#horn" x="62"/>
<use xlink:href="#horn" x="29.5" y="36.75"/>
</svg>