<?xml version="1.0" standalone="no"?>
<!DOCTYPE svg PUBLIC "-//W3C//DTD SVG 1.1//EN" "http://www.w3.org/Graphics/SVG/1.1/DTD/svg11.dtd">

<svg
	width="600"
	height="400"
	xmlns="http://www.w3.org/2000/svg"
	id="State flag of Bremen with middle arms">
	
		<g id="stripes">
			<rect fill="#FF0000" width="50" height="50"/> 
			<rect x="50" fill="#FFFFFF" width="50" height="50"/> 
			<rect x="100" fill="#FF0000" width="500" height="50"/> 
			
			<rect y="50" fill="#FFFFFF" width="50" height="50"/> 
			<rect x="50" y="50" fill="#FF0000" width="50" height="50"/> 
			<rect x="100" y="50" fill="#FFFFFF" width="500" height="50"/> 
			
			<rect y="100" fill="#FF0000" width="50" height="50"/> 
			<rect x="50" y="100" fill="#FFFFFF" width="50" height="50"/> 
			<rect x="100" y="100" fill="#FF0000" width="100" height="50"/>
			<rect x="200" y="100" fill="#FFFFFF" width="200" height="50"/> 
			<rect x="400" y="100" fill="#FF0000" width="200" height="50"/>
			
			<rect y="150" fill="#FFFFFF" width="50" height="50"/> 
			<rect x="50" y="150" fill="#FF0000" width="50" height="50"/> 
			<rect x="100" y="150" fill="#FFFFFF" width="500" height="50"/> 
			
			<rect y="200" fill="#FF0000" width="50" height="50"/> 
			<rect x="50" y="200" fill="#FFFFFF" width="50" height="50"/> 
			<rect x="100" y="200" fill="#FF0000" width="100" height="50"/> 
			<rect x="200" y="200" fill="#FFFFFF" width="200" height="50"/> 
			<rect x="400" y="200" fill="#FF0000" width="200" height="50"/> 
			
			<rect y="250" fill="#FFFFFF" width="50" height="50"/> 
			<rect x="50" y="250" fill="#FF0000" width="50" height="50"/> 
			<rect x="100" y="250" fill="#FFFFFF" width="500" height="50"/> 
			
			<rect y="300" fill="#FF0000" width="50" height="50"/> 
			<rect x="50" y="300" fill="#FFFFFF" width="50" height="50"/> 
			<rect x="100" y="300" fill="#FF0000" width="500" height="50"/> 
			
			<rect y="350" fill="#FFFFFF" width="50" height="50"/>
			<rect x="50" y="350" fill="#FF0000" width="50" height="50"/>
			<rect x="100" y="350" fill="#FFFFFF" width="500" height="50"/>
		</g>
		<g id="coat of arms">
			
				<path fill-rule="evenodd" clip-rule="evenodd" fill="#FFFF00" stroke="#000000" stroke-width="0.75" stroke-miterlimit="2.4142001" d="
				M237.9125977,140.6572266c0.3012695-1.4033203,1.4042969-2.7070313,3.2089844-2.9082031
				c1.4550781-0.3007813,3.0600586,0.0986328,4.4648438,0.5507813c0.4501953-0.1494141,0.7011719-0.6523438,0.6518555-1.6054688
				c2.0556641-0.4501953,4.1118164,0.8037109,6.9702148,4.0136719c0.6030273-0.2509766,0.6523438-1.0039063,0.953125-1.7558594
				c0.8027344,0.2011719,1.5058594,0.7519531,1.9570313,1.5546875c1.0517578,0.5009766,2.0053711,0.1503906,2.5576172,0.6035156
				c0.7011719,0.5996094,0.8007813,2.8564453,2.3056641,4.2617188c0.7529297,0.8017578,1.8061523,1.7041016,2.2075195,2.8076172
				c0.3505859,1.6552734-0.1503906,3.5107422-1.0537109,4.1630859c0.0507813,1.6552734,2.3066406,4.3134766,5.7675781,3.7099609
				c3.3095703-0.8017578,2.8085938-4.6123047,2.206543-5.7158203c-1.6044922,0.0996094-2.7583008-0.5019531-3.4101563-2.1064453
				c-2.6083984,0.2509766-4.7138672-1.1035156-4.9145508-2.6582031c-0.1508789-1.4550781,0.9023438-2.6083984,1.2539063-3.2587891
				c-2.1074219-1.2539063-4.8149414-3.1601563-5.0161133-5.6679688c0.8530273-0.6015625,2.4575195-1.0546875,4.112793-0.9023438
				c-1.5039063-1.1035156-3.059082-3.109375-3.2597656-5.3173828c1.3041992-0.4003906,2.8588867-0.9033203,4.4140625,0.0507813
				c-1.5551758-1.5537109-1.956543-3.4599609-2.3081055-5.5166016c0.8525391-0.5019531,2.2075195-0.5507813,3.5615234-0.6035156
				c0.3007813-1.5019531-0.1503906-3.609375,1.6044922-4.4121094c0.953125,0.3515625,2.4082031,1.1542969,3.2099609,2.8085938
				c1.2539063,0.0507813,1.9555664-1.7050781,2.9584961-1.3535156c2.1069336,0.7021484,1.6547852,4.0117188,2.2573242,5.0146484
				c1.1538086,0.9023438,1.9052734-1.1025391,3.6611328-0.5009766c1.0024414,0.8027344,1.0527344,2.5566406,1.3037109,4.2636719
				c0.953125,1.2539063,2.3579102,0,3.3613281,0.9023438c0.3999023,1.453125-0.3022461,3.2099609-0.5029297,5.2148438
				c1.0527344,0.703125,2.3071289,1.4042969,2.4072266,3.1601563c-0.2514648,2.1054688-1.253418,2.7578125-2.3061523,3.6103516
				c0.6010742,0.7529297,1.1533203,1.7548828,0.6513672,3.3603516c-0.4003906,1.1035156-1.6547852,1.8056641-2.8588867,1.6044922
				c1.0537109,3.3613281,5.1660156,4.8652344,8.6767578,4.5644531c3.8115234-0.5009766,6.6699219-3.1591797,6.2680664-6.4707031
				c-1.2036133,0.3017578-2.3066406-0.0996094-3.0585938-0.8007813c-0.8017578-0.8535156-0.9023438-1.8056641-0.9023438-2.6083984
				c-2.4580078,0.25-6.3198242-1.4042969-6.4702148-3.6611328c0.0507813-1.6552734,1.6049805-3.2109375,3.059082-3.8115234
				c-0.6020508-1.9052734-2.9086914-3.2089844-2.9086914-5.2158203c1.1533203-0.6533203,2.9589844-0.4511719,4.9145508-0.0498047
				c-1.1020508-1.2041016-1.8549805-3.0585938-1.1523438-4.4648438c1.7543945-0.0996094,3.1591797-0.0996094,4.6640625,0.4521484
				c-1.1542969-0.8017578-2.0058594-3.6113281-1.2041016-5.2158203c1.6054688-0.5019531,4.1123047,1.1533203,5.065918,2.7578125
				c-0.4023438-3.5605469,0.6005859-6.8193359,3.0576172-7.9228516c1.4550781,0.4501953,2.4082031,3.3603516,2.2578125,6.46875
				c1.3544922,0.4521484,3.5097656-2.1064453,6.5693359-0.9521484c0.6513672,1.8554688-0.4013672,3.359375-0.5996094,5.1152344
				c1.1005859,0.5507813,2.0039063-0.1005859,3.0556641,0.3505859c0.1025391,1.3046875-0.3496094,2.3583984-0.7509766,3.5615234
				c1.1542969,0.953125,3.0097656-0.4013672,4.8662109,0.6523438c0.4492188,1.9042969-2.4589844,3.5107422-2.7617188,4.8125
				c-0.0488281,1.40625,1.6582031,2.7597656-0.0986328,5.8193359c-1.0029297,1.6542969-3.8613281,1.7548828-5.2646484,0.7529297
				c0.0996094,1.0527344-0.2011719,2.0556641-0.953125,2.7558594c-0.9033203,0.6533203-2.0058594,0.6533203-3.1601563-0.0996094
				c-0.2509766,3.7119141,3.0595703,6.7714844,7.171875,7.4726563c4.1123047,0.5019531,7.3730469-2.6074219,7.6230469-5.3662109
				c-1.453125,0.0507813-2.3066406-0.6005859-2.8066406-1.6035156c-0.4033203-1.1542969,0.1992188-2.5087891,0.6992188-3.0595703
				c-1.0029297-0.4511719-2.0058594-1.3046875-2.5556641-2.9082031c0.7011719-1.9570313,1.9560547-2.609375,3.9101563-2.9101563
				c-0.9013672-1.5537109-1.4541016-3.2099609-1.7050781-5.3652344c1.4052734-0.5527344,2.6074219-0.3515625,3.9628906,0.25
				c-0.2509766-1.6542969-0.4521484-4.3632813,0.25-5.5664063c1.2021484-0.0996094,2.7578125,0.9023438,3.4101563,1.4550781
				c0-3.2109375,0.2519531-4.5644531,1.7568359-5.9179688c1.0019531,0.1484375,2.0058594,0.8515625,2.7080078,1.8046875
				c2.0546875-1.0029297,2.4570313-4.1113281,5.3662109-3.8613281c1.6542969,1.2539063,0.0488281,3.9619141,1.3037109,5.3652344
				c1.2021484,0.703125,2.2558594-0.8027344,4.0117188-0.0996094c0.6513672,1.2539063-0.6533203,3.2099609-1.1523438,4.9150391
				c1.1523438,1.0527344,2.4550781-0.1503906,3.7089844,0.8525391c0.1015625,1.9052734-1.1035156,2.6083984-1.5029297,4.1621094
				c0.2001953,0.8027344,1.1035156,0.8535156,1.5546875,1.6054688c-0.4511719,2.0058594-2.0058594,2.8574219-3.7109375,4.1123047
				c0.1484375,1.2539063,1.4033203,2.1572266,1.1523438,4.5126953c-1.0039063,1.1035156-2.7089844,2.0068359-4.9638672,2.2568359
				c-0.1513672,1.1035156-0.3525391,1.7558594-1.1044922,2.3574219c-0.8525391,0.5517578-1.8066406,0.6015625-3.0087891-0.0498047
				c-0.5527344,1.5039063-0.7539063,4.2128906,1.90625,5.0644531c2.40625,0.5527344,4.3623047-1.3535156,4.5644531-2.8076172
				c0.2988281-2.7080078,1.4042969-4.2626953,2.6064453-5.6181641c1.3037109-1.9052734,1.0517578-4.1113281,2.0566406-5.9169922
				c0.953125-0.0498047,1.4541016,0.5019531,2.0058594,1.1044922c-0.2998047-2.2578125,0.7011719-4.4140625,1.7548828-5.1669922
				c1.0039063,0.3515625,1.1533203,2.9091797,2.2080078,3.4619141c2.0058594-2.0566406,3.6103516-3.4619141,6.1669922-3.7128906
				c0.6025391,1.1035156,0.4023438,1.7060547,0.2509766,2.5585938c5.3662109-0.8027344,7.2226563,0.8525391,9.0283203,2.5566406
				c-1.3046875,1.3046875-3.4599609-1.0019531-6.8720703,2.9589844c-1.3037109,1.6064453-1.4023438,3.1601563-5.1640625,5.015625
				c-0.6025391,1.3037109-1.1044922,2.0058594-2.4072266,3.109375c-1.1542969,0.8525391-2.6582031,1.2041016-4.1621094,1.2539063
				c-1.9580078,2.6074219-3.1611328,4.765625-3.4111328,6.9199219l-3.8623047,13.9433594
				c-9.9804688-4.4628906-25.6279297-6.9707031-35.7568359-6.6699219
				c-10.9335938-0.0996094-25.6796875,2.5078125-35.5087891,7.4726563c0,0.0488281-5.6665039-13.390625-5.6665039-13.4414063
				c-1.3032227-2.7568359-2.6074219-5.0654297-4.1616211-7.5214844c-1.5058594-0.1015625-3.2104492-0.5527344-4.1630859-1.4550781
				c-1.003418-0.9023438-1.3554688-2.2568359-1.5546875-3.3105469c-1.8061523-0.7011719-2.2573242-0.6513672-4.0625-2.5566406
				c-1.4042969-1.203125-1.9067383-2.9589844-2.8588867-4.0625
				C241.4228516,141.1591797,239.9189453,140.4072266,237.9125977,140.6572266L237.9125977,140.6572266z"/>
			
				<path fill-rule="evenodd" clip-rule="evenodd" fill="#FFFF00" stroke="#000000" stroke-width="0.75" stroke-miterlimit="2.4142001" d="
				M257.215332,162.4189453c-0.7509766,0.2519531-1.1538086,1.2050781-0.8032227,2.0078125
				c0.4013672,0.8027344,1.0541992,1.1025391,1.956543,0.8027344c13.9423828-5.7685547,27.6835938-8.1259766,41.6757813-8.0751953
				c13.640625,0.0996094,27.734375,2.4091797,41.8261719,7.6728516c0.7529297,0.2519531,1.5058594-0.1992188,1.7060547-0.8515625
				c0.3496094-0.7519531,0.0996094-1.7050781-0.7539063-2.0058594c-14.0917969-5.4667969-28.2841797-8.0253906-42.6757813-8.0742188
				C285.9526367,153.7939453,271.0063477,156.5029297,257.215332,162.4189453L257.215332,162.4189453z"/>
			
				<path fill-rule="evenodd" clip-rule="evenodd" fill="#FFFF00" stroke="#000000" stroke-width="0.75" stroke-miterlimit="2.4142001" d="
				M300.5678711,166.6923828c-13.7392578-0.0488281-27.1303711,2.7089844-39.6176758,8.2753906
				c-1.0527344-0.1503906-1.2539063,1.4550781-0.8530273,2.2050781c0.3510742,0.703125,1.3032227,1.0546875,2.1069336,0.703125
				c12.0864258-5.3652344,25.2763672-7.9726563,38.1655273-8.0244141
				c13.1376953-0.0478516,26.3808594,2.7597656,37.3623047,7.5751953c0.8515625,0.3496094,1.7060547-0.1513672,2.0068359-0.8535156
				c0.3007813-0.7529297,0.0996094-1.6552734-0.8027344-2.0566406
				C327.8520508,169.5517578,313.0571289,166.6923828,300.5678711,166.6923828L300.5678711,166.6923828z"/>
			
				<polyline fill-rule="evenodd" clip-rule="evenodd" fill="none" stroke="#000000" stroke-width="0.75" stroke-miterlimit="2.4142001" points="
				271.605957,143.3212891 274.5644531,145.0771484 275.4672852,142.1181641 "/>
			
				<polyline fill-rule="evenodd" clip-rule="evenodd" fill="none" stroke="#000000" stroke-width="0.75" stroke-miterlimit="2.4142001" points="
				297.8178711,140.2851563 299.6230469,142.4912109 301.3793945,140.3857422 "/>
			
				<polyline fill-rule="evenodd" clip-rule="evenodd" fill="none" stroke="#000000" stroke-width="0.75" stroke-miterlimit="2.4142001" points="
				323.7202148,142.4423828 324.7729492,145.5517578 327.4311523,143.4951172 "/>
			
				<path fill-rule="evenodd" clip-rule="evenodd" fill="#008837" stroke="#000000" stroke-width="0.5" stroke-miterlimit="2.4142001" d="
				M270.5625,134.5517578c1.4042969-0.6513672,3.3598633,0.8515625,4.0639648,2.7597656
				c0.7514648,2.0048828,0.5512695,4.0605469-0.8540039,4.8144531c-1.5043945,0.5527344-3.1601563-0.6523438-4.1123047-2.609375
				C268.8579102,137.4609375,269.0087891,135.2041016,270.5625,134.5517578L270.5625,134.5517578z"/>
			
				<path fill-rule="evenodd" clip-rule="evenodd" fill="#FF0000" stroke="#000000" stroke-width="0.5" stroke-miterlimit="2.4142001" d="
				M299.5683594,130.8613281c-2.0048828,0.1494141-2.8583984,2.4072266-2.9082031,4.4140625
				c0.0498047,1.9541016,1.4042969,4.0615234,3.0087891,4.1123047c1.8569336-0.1523438,2.8598633-2.1582031,2.8598633-4.0126953
				C302.4780273,133.21875,301.4233398,130.9609375,299.5683594,130.8613281L299.5683594,130.8613281z"/>
			
				<path fill-rule="evenodd" clip-rule="evenodd" fill="#008837" stroke="#000000" stroke-width="0.5" stroke-miterlimit="2.4142001" d="
				M328.6557617,133.9853516c-1.6025391-0.6035156-3.3085938,1.2519531-4.0117188,2.8066406
				c-0.8515625,2.1582031-0.2998047,4.2646484,0.9541016,4.8154297c1.6044922,0.6025391,3.3085938-1.1533203,3.9111328-2.7080078
				C330.3608398,136.7919922,330.3110352,134.6357422,328.6557617,133.9853516L328.6557617,133.9853516z"/>
			
				<path fill-rule="evenodd" clip-rule="evenodd" fill="#FF0000" stroke="#000000" stroke-width="0.5" stroke-miterlimit="2.4142001" d="
				M347.7436523,151.6210938c-1.5058594,1.0537109-2.5087891,1.2539063-4.2128906,1.2539063
				c-0.2021484-1.6044922-0.2021484-2.8583984,1.6025391-4.4140625c1.65625-1.2548828,4.0625-1.4033203,4.8144531,0
				C349.3979492,149.9658203,348.8461914,150.6181641,347.7436523,151.6210938L347.7436523,151.6210938z"/>
			
				<path fill-rule="evenodd" clip-rule="evenodd" fill="#FF0000" stroke="#000000" stroke-width="0.5" stroke-miterlimit="2.4142001" d="
				M249.4804688,148.6064453c1.5551758-0.953125,3.7119141-1.1035156,5.065918,0.1992188
				c1.6044922,1.5546875,1.3032227,4.1132813,0.5014648,4.8144531c-1.1538086-0.0996094-2.8583984-0.3515625-4.012207-1.3037109
				C249.9321289,151.2128906,249.5800781,149.6591797,249.4804688,148.6064453L249.4804688,148.6064453z"/>
			
				<path fill-rule="evenodd" clip-rule="evenodd" fill="none" stroke="#000000" stroke-width="0.75" stroke-miterlimit="2.4142001" d="
				M274.7612305,148.1787109c0,0,0.0224609,1.5087891-0.2993164,2.9863281
				c-0.3051758,1.4042969-0.9550781,2.7792969-0.9550781,2.7792969l5.668457-1.2539063c0,0-1.3427734-0.8671875-2.4643555-2.0136719
				C275.6269531,149.5673828,274.7612305,148.1787109,274.7612305,148.1787109L274.7612305,148.1787109z"/>
			
				<path fill-rule="evenodd" clip-rule="evenodd" fill="none" stroke="#000000" stroke-width="0.75" stroke-miterlimit="2.4142001" d="
				M299.550293,145.9267578c0,0-0.5727539,1.34375-1.421875,2.5976563
				c-0.8808594,1.3027344-2.0380859,2.5185547-2.0380859,2.5185547h6.9208984c0,0-1.3427734-1.3818359-2.2421875-2.7119141
				C299.9428711,147.1064453,299.550293,145.9267578,299.550293,145.9267578L299.550293,145.9267578z"/>
			
				<path fill-rule="evenodd" clip-rule="evenodd" fill="none" stroke="#000000" stroke-width="0.75" stroke-miterlimit="2.4142001" d="
				M319.2807617,152.5234375c0,0,1.2412109-0.8300781,2.3183594-1.9443359
				c1.1054688-1.1425781,2.0458984-2.5683594,2.0458984-2.5683594s0.15625,1.4882813,0.6933594,2.9589844
				c0.5419922,1.4882813,1.4619141,2.9589844,1.4619141,2.9589844L319.2807617,152.5234375L319.2807617,152.5234375z"/>
			
				<line fill="none" stroke="#000000" stroke-width="0.5" stroke-miterlimit="2.4142001" x1="248.2324219" y1="143.5087891" x2="249.9868164" y2="148.2226563"/>
			
				<line fill="none" stroke="#000000" stroke-width="0.5" stroke-miterlimit="2.4142001" x1="250.7236328" y1="143.0224609" x2="251.7773438" y2="147.9384766"/>
			
				<line fill="none" stroke="#000000" stroke-width="0.5" stroke-miterlimit="2.4142001" x1="253.6005859" y1="145.2431641" x2="253.2993164" y2="148.0517578"/>
			
				<line fill="none" stroke="#000000" stroke-width="0.5" stroke-miterlimit="2.4142001" x1="255.7607422" y1="146.8701172" x2="254.456543" y2="148.7255859"/>
			
				<line fill="none" stroke="#000000" stroke-width="0.5" stroke-miterlimit="2.4142001" x1="257.0620117" y1="149.5302734" x2="255.2573242" y2="149.9306641"/>
			
				<line fill="none" stroke="#000000" stroke-width="0.5" stroke-miterlimit="2.4142001" x1="258.5195313" y1="152.0957031" x2="255.7099609" y2="151.5947266"/>
			
				<line fill="none" stroke="#000000" stroke-width="0.5" stroke-miterlimit="2.4142001" x1="277.1293945" y1="131.109375" x2="274.3706055" y2="136.5263672"/>
			
				<line fill="none" stroke="#000000" stroke-width="0.5" stroke-miterlimit="2.4142001" x1="278.1567383" y1="135.2861328" x2="274.796875" y2="137.8447266"/>
			
				<line fill="none" stroke="#000000" stroke-width="0.5" stroke-miterlimit="2.4142001" x1="275.0336914" y1="138.6591797" x2="279.1958008" y2="138.7587891"/>
			
				<line fill="none" stroke="#000000" stroke-width="0.5" stroke-miterlimit="2.4142001" x1="275.1142578" y1="140.1845703" x2="278.8261719" y2="141.3896484"/>
			
				<line fill="none" stroke="#000000" stroke-width="0.5" stroke-miterlimit="2.4142001" x1="270.9140625" y1="141.3232422" x2="268.6069336" y2="143.6298828"/>
			
				<line fill="none" stroke="#000000" stroke-width="0.5" stroke-miterlimit="2.4142001" x1="266.9741211" y1="141.6181641" x2="269.7822266" y2="139.7626953"/>
			
				<line fill="none" stroke="#000000" stroke-width="0.5" stroke-miterlimit="2.4142001" x1="266.4584961" y1="139.2080078" x2="269.4179688" y2="138.9072266"/>
			
				<line fill="none" stroke="#000000" stroke-width="0.5" stroke-miterlimit="2.4142001" x1="265.0761719" y1="136.7490234" x2="269.2387695" y2="137.8017578"/>
			
				<line fill="none" stroke="#000000" stroke-width="0.5" stroke-miterlimit="2.4142001" x1="269.2084961" y1="136.3818359" x2="264.6948242" y2="132.8212891"/>
			
				<line fill="none" stroke="#000000" stroke-width="0.5" stroke-miterlimit="2.4142001" x1="269.8129883" y1="134.9853516" x2="265.6000977" y2="129.6201172"/>
			
				<line fill="none" stroke="#000000" stroke-width="0.5" stroke-miterlimit="2.4142001" x1="270.7446289" y1="134.4492188" x2="268.0864258" y2="125.7724609"/>
			
				<line fill="none" stroke="#000000" stroke-width="0.5" stroke-miterlimit="2.4142001" x1="271.3383789" y1="127.7373047" x2="271.9907227" y2="134.6064453"/>
			
				<line fill="none" stroke="#000000" stroke-width="0.5" stroke-miterlimit="2.4142001" x1="273.8134766" y1="129.7148438" x2="273.2617188" y2="135.2314453"/>
			
				<line fill="none" stroke="#000000" stroke-width="0.5" stroke-miterlimit="2.4142001" x1="300.3793945" y1="124.6103516" x2="299.9785156" y2="130.9306641"/>
			
				<line fill="none" stroke="#000000" stroke-width="0.5" stroke-miterlimit="2.4142001" x1="302.4780273" y1="126.8837891" x2="300.7729492" y2="131.2978516"/>
			
				<line fill="none" stroke="#000000" stroke-width="0.5" stroke-miterlimit="2.4142001" x1="305.152832" y1="128.6337891" x2="301.9438477" y2="132.6474609"/>
			
				<line fill="none" stroke="#000000" stroke-width="0.5" stroke-miterlimit="2.4142001" x1="307.449707" y1="131.0849609" x2="302.4370117" y2="134.1455078"/>
			
				<line fill="none" stroke="#000000" stroke-width="0.5" stroke-miterlimit="2.4142001" x1="302.5776367" y1="135.5009766" x2="307.4926758" y2="134.3466797"/>
			
				<line fill="none" stroke="#000000" stroke-width="0.5" stroke-miterlimit="2.4142001" x1="302.4526367" y1="136.5322266" x2="308.8217773" y2="137.3349609"/>
			
				<line fill="none" stroke="#000000" stroke-width="0.5" stroke-miterlimit="2.4142001" x1="302.0874023" y1="137.6982422" x2="305.0463867" y2="138.6005859"/>
			
				<line fill="none" stroke="#000000" stroke-width="0.5" stroke-miterlimit="2.4142001" x1="294.8481445" y1="138.8535156" x2="297.5058594" y2="138.0009766"/>
			
				<line fill="none" stroke="#000000" stroke-width="0.5" stroke-miterlimit="2.4142001" x1="292.4765625" y1="137.4091797" x2="296.9394531" y2="136.7070313"/>
			
				<line fill="none" stroke="#000000" stroke-width="0.5" stroke-miterlimit="2.4142001" x1="296.690918" y1="135.4560547" x2="291.2236328" y2="133.4501953"/>
			
				<line fill="none" stroke="#000000" stroke-width="0.5" stroke-miterlimit="2.4142001" x1="296.8334961" y1="133.9873047" x2="293.1723633" y2="130.0751953"/>
			
				<line fill="none" stroke="#000000" stroke-width="0.5" stroke-miterlimit="2.4142001" x1="297.6357422" y1="131.9511719" x2="294.5263672" y2="127.4882813"/>
			
				<line fill="none" stroke="#000000" stroke-width="0.5" stroke-miterlimit="2.4142001" x1="297.0341797" y1="125.4794922" x2="298.5380859" y2="131.2480469"/>
			
				<line fill="none" stroke="#000000" stroke-width="0.5" stroke-miterlimit="2.4142001" x1="330.4282227" y1="126.8837891" x2="327.8725586" y2="133.9560547"/>
			
				<line fill="none" stroke="#000000" stroke-width="0.5" stroke-miterlimit="2.4142001" x1="332.3950195" y1="130.0263672" x2="329.4370117" y2="134.4892578"/>
			
				<line fill="none" stroke="#000000" stroke-width="0.5" stroke-miterlimit="2.4142001" x1="334.3754883" y1="133.3701172" x2="330.0131836" y2="136.2783203"/>
			
				<line fill="none" stroke="#000000" stroke-width="0.5" stroke-miterlimit="2.4142001" x1="335.7817383" y1="136.7998047" x2="330.0131836" y2="137.3007813"/>
			
				<line fill="none" stroke="#000000" stroke-width="0.5" stroke-miterlimit="2.4142001" x1="334.4516602" y1="138.7587891" x2="329.5874023" y2="138.8095703"/>
			
				<line fill="none" stroke="#000000" stroke-width="0.5" stroke-miterlimit="2.4142001" x1="333.050293" y1="140.7470703" x2="329.0375977" y2="139.9443359"/>
			
				<line fill="none" stroke="#000000" stroke-width="0.5" stroke-miterlimit="2.4142001" x1="331.6958008" y1="142.5537109" x2="328.6362305" y2="140.4462891"/>
			
				<line fill="none" stroke="#000000" stroke-width="0.5" stroke-miterlimit="2.4142001" x1="329.5327148" y1="143.1289063" x2="327.878418" y2="141.2236328"/>
			
				<line fill="none" stroke="#000000" stroke-width="0.5" stroke-miterlimit="2.4142001" x1="321.9624023" y1="141.2783203" x2="324.5717773" y2="140.5751953"/>
			
				<line fill="none" stroke="#000000" stroke-width="0.5" stroke-miterlimit="2.4142001" x1="320.7475586" y1="139.2822266" x2="324.2592773" y2="139.2314453"/>
			
				<line fill="none" stroke="#000000" stroke-width="0.5" stroke-miterlimit="2.4142001" x1="321.9145508" y1="137.296875" x2="324.2700195" y2="138.3994141"/>
			
				<line fill="none" stroke="#000000" stroke-width="0.5" stroke-miterlimit="2.4142001" x1="324.5668945" y1="136.9970703" x2="322.5600586" y2="134.0888672"/>
			
				<line fill="none" stroke="#000000" stroke-width="0.5" stroke-miterlimit="2.4142001" x1="325.121582" y1="135.9785156" x2="323.815918" y2="129.9599609"/>
			
				<line fill="none" stroke="#000000" stroke-width="0.5" stroke-miterlimit="2.4142001" x1="327.0581055" y1="126.8447266" x2="326.105957" y2="134.6181641"/>
			
				<line fill="none" stroke="#000000" stroke-width="0.5" stroke-miterlimit="2.4142001" x1="341.3676758" y1="150.7763672" x2="343.3764648" y2="151.5791016"/>
			
				<line fill="none" stroke="#000000" stroke-width="0.5" stroke-miterlimit="2.4142001" x1="341.519043" y1="148.3935547" x2="343.8745117" y2="149.9990234"/>
			
				<line fill="none" stroke="#000000" stroke-width="0.5" stroke-miterlimit="2.4142001" x1="342.6450195" y1="146.5810547" x2="344.3510742" y2="149.2880859"/>
			
				<line fill="none" stroke="#000000" stroke-width="0.5" stroke-miterlimit="2.4142001" x1="344.7290039" y1="144.3730469" x2="345.3833008" y2="148.3857422"/>
			
				<line fill="none" stroke="#000000" stroke-width="0.5" stroke-miterlimit="2.4142001" x1="347.5229492" y1="143.6259766" x2="346.6713867" y2="147.6884766"/>
			
				<line fill="none" stroke="#000000" stroke-width="0.5" stroke-miterlimit="2.4142001" x1="349.487793" y1="144.9794922" x2="348.0336914" y2="147.5371094"/>
			
				<polygon fill-rule="evenodd" clip-rule="evenodd" fill="#008837" stroke="#000000" stroke-width="0.5" stroke-miterlimit="2.4142001" points="
				258.3554688,170.6162109 261.0131836,164.3476563 267.1821289,167.0058594 264.675293,173.2255859 258.3554688,170.6162109 "/>
			
				<polygon fill-rule="evenodd" clip-rule="evenodd" fill="#008837" stroke="#000000" stroke-width="0.5" stroke-miterlimit="2.4142001" points="
				275.8730469,164.6210938 281.3393555,168.5332031 285.3017578,162.8154297 279.8349609,158.9521484 275.8730469,164.6210938 "/>
			
				<polygon fill-rule="evenodd" clip-rule="evenodd" fill="#008837" stroke="#000000" stroke-width="0.5" stroke-miterlimit="2.4142001" points="
				294.7280273,161.8681641 299.59375,157.1542969 304.2573242,161.9199219 299.3920898,166.6328125 294.7280273,161.8681641 "/>
			
				<polygon fill-rule="evenodd" clip-rule="evenodd" fill="#008837" stroke="#000000" stroke-width="0.5" stroke-miterlimit="2.4142001" points="
				314.6333008,162.8378906 320.2504883,159.0751953 324.0600586,164.6923828 318.4448242,168.4052734 314.6333008,162.8378906 "/>
			
				<polygon fill-rule="evenodd" clip-rule="evenodd" fill="#008837" stroke="#000000" stroke-width="0.5" stroke-miterlimit="2.4142001" points="
				333.034668,167.1962891 338.8022461,164.0361328 342.012207,169.9541016 336.1430664,173.2128906 333.034668,167.1962891 "/>
			
				<circle fill-rule="evenodd" clip-rule="evenodd" fill="#FF0000" stroke="#000000" stroke-width="0.5" stroke-miterlimit="2.4142001" cx="271.1630859" cy="165.8916016" r="2.2070313"/> 
			
				<circle fill-rule="evenodd" clip-rule="evenodd" fill="#FF0000" stroke="#000000" stroke-width="0.216" stroke-miterlimit="2.4142001" cx="289.730957" cy="162.40625" r="2.2060547"/> 
			
				<circle fill-rule="evenodd" clip-rule="evenodd" fill="#FF0000" stroke="#000000" stroke-width="0.216" stroke-miterlimit="2.4142001" cx="309.3139648" cy="162.3852539" r="2.206543"/> 
			
				<circle fill-rule="evenodd" clip-rule="evenodd" fill="#FF0000" stroke="#000000" stroke-width="0.216" stroke-miterlimit="2.4142001" cx="328.5151367" cy="165.7226563" r="2.2060547"/> 
			
				<path fill-rule="evenodd" clip-rule="evenodd" fill="none" stroke="#000000" stroke-width="0.75" stroke-miterlimit="2.4142001" d="
				M269.4614258,147.4306641c1.2045898-0.4023438,2.2075195,2.0058594,0.5517578,2.7070313
				c-1.4033203,0.5019531-2.6079102-0.25-3.109375-1.8554688c-0.3505859-1.2539063,0.4516602-3.109375,2.5073242-3.109375
				c1.8061523,0.0507813,3.1098633,1.6542969,3.1098633,3.9628906c0,1.8046875-0.5019531,2.9589844-1.6552734,4.7138672
				c-0.7514648,0.953125-1.1030273,1.3544922-2.9589844,2.3076172c-3.3095703,1.3525391-7.6220703-1.0546875-8.4750977-4.5644531
				c0.8530273,0.7021484,1.9560547,0.9023438,2.9086914,0.7519531"/>
			
				<path fill-rule="evenodd" clip-rule="evenodd" fill="none" stroke="#000000" stroke-width="0.75" stroke-miterlimit="2.4142001" d="
				M281.1669922,145.2431641c-0.7026367-0.7011719-1.9555664-0.4003906-2.1064453,0.8027344
				c-0.1508789,1.4550781,1.9560547,2.6582031,3.4614258,1.2548828c1.6040039-1.6552734,0.4008789-3.7119141-0.6025391-4.3642578
				c-1.0532227-0.5507813-2.4072266-0.8017578-3.7109375,0.3007813c-1.2036133,1.2539063-1.4545898,3.6621094,0.3505859,6.0693359
				c2.0566406,2.6074219,5.4672852,3.7099609,10.1303711,3.4101563c2.7084961-0.2509766,4.4135742-1.5048828,5.9682617-3.109375
				c1.4038086-1.6054688,2.7583008-4.4130859,2.4580078-6.3701172c-0.4018555-2.3564453-2.809082-3.1083984-4.4643555-2.1054688
				c-1.5541992,1.0527344-1.4047852,3.1582031-0.3500977,4.2128906c0.8017578,0.7011719,2.206543,1.0029297,3.0078125,0.25
				c0.9545898-1.0019531,0.6030273-2.9589844-1.3540039-2.4570313"/>
			
				<path fill-rule="evenodd" clip-rule="evenodd" fill="none" stroke="#000000" stroke-width="0.75" stroke-miterlimit="2.4142001" d="
				M305.5522461,143.5615234c0.2509766-0.6523438-0.1513672-1.2539063-0.9023438-1.3535156
				c-1.2041016,0.1503906-1.6572266,1.6054688-0.953125,2.3574219c0.8027344,0.8515625,2.1064453,1.0029297,3.0097656,0.1992188
				c0.9521484-0.9023438,1.2021484-3.7597656-0.9521484-4.6123047c-2.1582031-0.6523438-3.8632813,0.9521484-4.0126953,2.9589844
				c-0.0498047,2.1552734,0.4501953,4.2128906,2.1054688,6.1181641c-0.0488281,0.0507813,2.9091797,2.6582031,7.0703125,3.2597656
				c3.2109375,0.1015625,4.9150391-0.953125,6.4208984-2.0556641c1.8056641-1.4052734,2.9580078-2.4589844,3.5595703-4.4140625
				c0.4511719-1.8544922-0.25-3.7617188-2.2558594-4.1630859c-2.0058594-0.4003906-2.9589844,0.953125-3.2597656,2.3085938
				c-0.1015625,1.3027344,0.8017578,2.3554688,2.1064453,2.4560547c0,0.0498047,1.3046875,0.2509766,1.8554688-1.2529297
				c0.2509766-1.3046875-0.5029297-2.0058594-1.3554688-1.65625"/>
			
				<path fill-rule="evenodd" clip-rule="evenodd" fill="none" stroke="#000000" stroke-width="0.75" stroke-miterlimit="2.4142001" d="
				M331.6313477,147.5224609c-0.453125-0.5517578-1.3056641-0.7021484-1.8056641-0.0996094
				c-0.5039063,0.703125-0.3525391,1.5039063,0.6513672,2.0058594c0.9521484,0.4003906,2.1044922,0.1503906,2.6572266-0.8535156
				c0.7021484-1.5039063,0.2509766-3.0078125-1.6542969-3.6601563c-1.7558594-0.4511719-3.6611328,0.7011719-4.2636719,2.9082031
				c-0.7021484,2.4082031,0.4013672,5.265625,3.7626953,6.4707031c3.5595703,1.3535156,6.2685547-0.5527344,8.6269531-2.8085938
				c-1.0556641,0.25-2.3583984,0.3505859-3.5117188-0.1503906"/>
			
				<path fill-rule="evenodd" clip-rule="evenodd" fill="#FF0000" stroke="#000000" stroke-width="0.75" stroke-miterlimit="2.4142001" d="
				M253.5498047,177.9472656v62.3388672c0.0507813,21.8164063,21.1142578,44.0820313,46.5395508,44.1328125
				c24.0742188,0.0507813,46.2900391-19.6591797,46.2900391-43.0800781v-63.3916016H253.5498047L253.5498047,177.9472656z"/>
			<path fill-rule="evenodd" clip-rule="evenodd" fill="none" stroke="#000000" stroke-miterlimit="2.4142001" d="
				M257.315918,181.4296875v58.0751953c0,21.3144531,19.8583984,41.2255859,42.9277344,41.2753906
				c23.8242188-0.1015625,42.4785156-19.7099609,42.5292969-39.7695313l0.0996094-59.4316406L257.315918,181.4296875
				L257.315918,181.4296875z"/>
			
				<polygon fill-rule="evenodd" clip-rule="evenodd" fill="#FFFFFF" stroke="#000000" stroke-width="0.75" stroke-miterlimit="2.4142001" points="
				269.9868164,200.3427734 271.4912109,201.8994141 277.6108398,196.3818359 282.1738281,200.8955078 279.9672852,203.1025391 
				277.5600586,200.6943359 275.9545898,202.0996094 279.7163086,205.9599609 285.2333984,200.9443359 277.7612305,193.2724609 
				269.9868164,200.3427734 "/>
			
				<polygon fill-rule="evenodd" clip-rule="evenodd" fill="#FFFFFF" stroke="#000000" stroke-width="0.75" stroke-miterlimit="2.4142001" points="
				279.7255859,210.4287109 297.6796875,193.7275391 289.3041992,185.5029297 283.1357422,191.2197266 287.5991211,195.7841797 
				290.2080078,193.3759766 288.050293,191.1689453 289.4545898,189.8662109 293.0151367,193.4765625 287.5498047,198.5917969 
				280.1777344,191.0693359 289.3041992,182.6953125 310.0180664,203.3564453 300.9399414,212.1328125 293.9189453,204.9111328 
				299.4355469,199.7451172 302.8452148,203.2568359 301.3911133,204.6601563 299.4848633,202.7050781 296.9277344,205.0615234 
				301.0395508,209.2744141 307.1586914,203.4560547 299.184082,195.3818359 281.2290039,212.0332031 279.7255859,210.4287109 "/>
			
				<polygon fill-rule="evenodd" clip-rule="evenodd" fill="#FFFFFF" stroke="#000000" stroke-width="0.75" stroke-miterlimit="2.4142001" points="
				286.0629883,212.421875 291.5791016,207.3056641 298.6000977,214.4277344 290.7768555,221.7001953 289.3730469,220.0957031 
				295.4907227,214.4277344 291.4287109,210.3662109 289.0214844,212.671875 290.828125,214.4277344 289.3730469,215.8828125 
				286.0629883,212.421875 "/>
			<polygon fill-rule="evenodd" clip-rule="evenodd" fill="#FFFFFF" stroke="#000000" stroke-miterlimit="2.4142001" points="
				260.2753906,200.4960938 293.5766602,234.1494141 297.9892578,229.8867188 264.7895508,196.0830078 260.2753906,200.4960938 "/>
			
				<path fill-rule="evenodd" clip-rule="evenodd" fill="#FFFFFF" stroke="#000000" stroke-width="0.75" stroke-miterlimit="2.4142001" d="
				M298.8383789,231.2314453c0.199707-0.25,0.300293-0.6503906,0.0493164-0.953125
				c-0.2504883-0.0986328-0.6015625-0.2490234-0.9536133-0.0498047l-4.1621094,4.0615234
				c-0.2001953,0.3017578-0.25,0.7548828,0,0.9550781c0.3007813,0.25,0.7519531,0.25,1.003418,0L298.8383789,231.2314453
				L298.8383789,231.2314453z"/>
			
				<path fill-rule="evenodd" clip-rule="evenodd" fill="#FFFFFF" stroke="#000000" stroke-width="0.75" stroke-miterlimit="2.4142001" d="
				M299.3999023,231.0947266c0.5517578-0.4501953,1.6044922-0.5507813,2.3076172,0.2021484
				c0.7519531,0.6503906,0.7021484,1.8544922,0.0986328,2.4042969l-4.6630859,4.6171875
				c-0.6523438,0.5498047-1.8046875,0.4990234-2.4067383-0.2509766c-0.652832-0.6523438-0.6020508-1.7050781,0-2.3076172
				L299.3999023,231.0947266L299.3999023,231.0947266z"/>
			
				<path fill-rule="evenodd" clip-rule="evenodd" fill="#FFFFFF" stroke="#000000" stroke-width="0.75" stroke-miterlimit="2.4142001" d="
				M301.7758789,234.1816406c0.3515625-0.3037109,0.8017578-0.1523438,1.0537109,0.0986328
				c0.2021484,0.3007813,0.2509766,0.7011719,0,1.0527344l-4.1118164,3.8623047
				c-0.3022461,0.1992188-0.8535156,0.2509766-1.0537109-0.0507813c-0.3012695-0.3515625-0.2504883-0.703125,0-1.0029297
				L301.7758789,234.1816406L301.7758789,234.1816406z"/>
			
				<path fill-rule="evenodd" clip-rule="evenodd" fill="#FFFFFF" stroke="#000000" stroke-width="0.75" stroke-miterlimit="2.4142001" d="
				M297.5966797,256.28125c-0.6523438-0.6025391-1.5551758-0.5537109-2.0073242-0.0498047
				c-0.5009766,0.5019531-0.6513672,1.5029297,0,2.1552734l4.3139648,4.1630859
				c0.5004883,0.5507813,1.5053711,0.5,2.0053711-0.0498047c0.5517578-0.5517578,0.6025391-1.4550781,0.1015625-1.9560547
				L297.5966797,256.28125L297.5966797,256.28125z"/>
			
				<path fill-rule="evenodd" clip-rule="evenodd" fill="#FFFFFF" stroke="#000000" stroke-width="0.75" stroke-miterlimit="2.4142001" d="
				M299.2246094,255.5683594c-0.300293-0.3525391-0.7011719-0.3017578-0.9516602-0.0498047
				c-0.2006836,0.2001953-0.3510742,0.75-0.0507813,1.0019531l3.4121094,3.2617188
				c0.3007813,0.3007813,0.7509766,0.3007813,0.953125,0c0.25-0.2529297,0.2978516-0.8037109,0.0488281-1.0048828
				L299.2246094,255.5683594L299.2246094,255.5683594z"/>
			
				<path fill-rule="evenodd" clip-rule="evenodd" fill="#FFFFFF" stroke="#000000" stroke-width="0.75" stroke-miterlimit="2.4142001" d="
				M318.1899414,259.6816406c-0.3007813,0.3017578-0.2519531,0.9023438-0.0498047,1.1025391
				c0.2490234,0.2529297,0.7001953,0.3515625,1.0029297,0.1025391l3.8095703-3.6123047
				c0.4023438-0.3505859,0.4023438-0.8017578,0.1523438-1.1044922c-0.3017578-0.25-0.8037109-0.3496094-1.1044922-0.0488281
				L318.1899414,259.6816406L318.1899414,259.6816406z"/>
			
				<path fill-rule="evenodd" clip-rule="evenodd" fill="#FFFFFF" stroke="#000000" stroke-width="0.75" stroke-miterlimit="2.4142001" d="
				M323.6499023,256.953125c0.6523438-0.6015625,1.6054688-0.3017578,2.1064453,0.1523438
				c0.5527344,0.5,0.4501953,1.4033203-0.0996094,2.0048828l-4.7636719,4.5634766
				c-0.5527344,0.4521484-1.5556641,0.4521484-2.0566406-0.1503906c-0.6035156-0.6005859-0.5009766-1.5048828-0.0517578-2.0058594
				L323.6499023,256.953125L323.6499023,256.953125z"/>
			
				<path fill-rule="evenodd" clip-rule="evenodd" fill="#FFFFFF" stroke="#000000" stroke-width="0.75" stroke-miterlimit="2.4142001" d="
				M320.3071289,233.8886719c0.6513672-0.6025391,1.6054688-0.4013672,2.1572266,0.1513672l4.0117188,4.2626953
				c0.5498047,0.5009766,0.6015625,1.5039063,0.0498047,2.0546875c-0.4013672,0.4541016-1.3046875,0.6025391-1.9550781,0
				l-4.2636719-4.3632813C319.706543,235.34375,319.706543,234.3916016,320.3071289,233.8886719L320.3071289,233.8886719z"/>
			
				<path fill-rule="evenodd" clip-rule="evenodd" fill="#FFFFFF" stroke="#000000" stroke-width="0.75" stroke-miterlimit="2.4142001" d="
				M319.2446289,237.6816406c-0.3007813-0.2519531-0.2529297-0.9033203,0-1.1542969c0.2988281-0.25,0.9013672-0.25,1.1533203,0
				l3.4091797,3.5107422c0.3007813,0.2519531,0.3007813,0.8525391,0,1.1035156
				c-0.1503906,0.1015625-0.4013672,0.4511719-1.0039063,0.0488281L319.2446289,237.6816406L319.2446289,237.6816406z"/>
			<path fill-rule="evenodd" clip-rule="evenodd" fill="#FFFFFF" stroke="#000000" stroke-miterlimit="2.4142001" d="
				M299.3740234,238.9482422l2.956543-2.7441406c2.4501953,2.1953125,5.3232422,3.3164063,8.7861328,3.6523438
				c3.3183594,0.2519531,6.2753906-0.5908203,8.21875-1.5830078l2.9140625,2.8505859
				c-1.1601563,1.7128906-2.3007813,4.2685547-2.5957031,7.1191406c-0.2119141,2.8535156,0.4433594,5.4716797,1.4980469,8.2167969
				l-2.7041016,2.5556641c-2.6181641-1.2880859-5.6181641-2.4492188-8.2802734-2.4492188
				c-2.7666016,0-5.5136719,0.5488281-7.6679688,1.7109375l-2.8720703-2.8095703
				c1.8144531-2.6201172,2.5126953-5.3242188,2.5126953-8.3242188
				C302.1401367,244.3779297,300.9155273,241.1464844,299.3740234,238.9482422L299.3740234,238.9482422z M307.3168945,247.5029297
				c-1.2041016-0.9921875-1.5625-2.5986328-0.7626953-3.4648438c0.9091797-0.7373047,2.4091797-0.2304688,3.5087891,0.7617188
				c0.4628906,0.5058594,1.0136719,0.6123047,1.4140625,0.2109375c1.3105469-0.8652344,2.7050781-1.6689453,3.6142578-0.7197266
				c0.7382813,1.2050781-0.2119141,2.3671875-1.1005859,3.5302734c-0.359375,0.4443359-0.359375,0.78125,0.1484375,1.1396484
				c1.3945313,1.2451172,1.7529297,2.8525391,1.0556641,3.6123047c-0.8007813,0.6972656-2.9150391-0.1894531-3.8232422-1.1621094
				c-0.3378906-0.4013672-0.9931641-0.4013672-1.3945313-0.0849609c-1.1601563,1.2470703-2.8085938,1.6494141-3.7167969,0.8466797
				c-0.6552734-0.8466797-0.359375-2.1982422,0.9501953-3.3164063
				C307.5688477,248.5175781,307.7163086,247.96875,307.3168945,247.5029297L307.3168945,247.5029297z"/>
			
				<circle fill-rule="evenodd" clip-rule="evenodd" fill="#FFFFFF" stroke="#000000" stroke-width="0.75" stroke-miterlimit="2.4142001" cx="326.8305664" cy="233.769043" r="3.1098633"/> 
			
				<circle fill-rule="evenodd" clip-rule="evenodd" fill="#FFFFFF" stroke="#000000" stroke-width="0.75" stroke-miterlimit="2.4142001" cx="325.7104492" cy="263.6606445" r="3.1088867"/> 
			
				<circle fill-rule="evenodd" clip-rule="evenodd" fill="#FFFFFF" stroke="#000000" stroke-width="0.75" stroke-miterlimit="2.4142001" cx="295.2509766" cy="262.8149414" r="3.1098633"/> 
			<path fill-rule="evenodd" clip-rule="evenodd" fill="none" stroke="#000000" stroke-miterlimit="2.4142001" d="
				M303.0532227,239.9179688c2.1572266,5.3173828,2.0576172,10.1826172-0.25,15.1982422
				c5.2158203-1.9570313,9.8798828-1.9570313,15.1962891,0.25c-1.8066406-5.1660156-1.4052734-9.7802734,1.2519531-14.2929688
				C314.3393555,243.3808594,307.7182617,242.8789063,303.0532227,239.9179688L303.0532227,239.9179688z"/>
		</g>
</svg>
